# Blender v2.82 (sub 7) OBJ File: 'Under-Ramp Plastic.blend'
# www.blender.org
mtllib Under-Ramp Plastic 2.mtl
o Cylinder
v 3.004038 -0.982833 -4.000200
v 3.004038 1.017167 -4.000200
v 3.558690 -0.982833 -2.878583
v 3.558690 1.017167 -2.878583
v 4.101754 -0.982833 -1.796306
v 4.101754 1.017167 -1.796306
v 4.284547 -0.982833 -1.428968
v 4.284547 1.017167 -1.428968
v 4.394328 -0.982833 -1.215826
v 4.394328 1.017167 -1.215826
v 4.511056 -0.982833 -0.979017
v 4.511056 1.017167 -0.979017
v 4.608027 -0.982833 -0.782790
v 4.608027 1.017167 -0.782790
v 4.704870 -0.982833 -0.581021
v 4.704870 1.017167 -0.581021
v 4.980062 -0.982833 -0.052096
v 4.980062 1.017167 -0.052096
v 4.966006 -0.982833 -0.021953
v 4.966006 1.017167 -0.021953
v 4.907785 -0.982833 -0.030982
v 4.907785 1.017167 -0.030982
v 3.968124 -0.982833 -0.270223
v 3.968124 1.017167 -0.270223
v 3.025333 -0.982833 -0.507885
v 3.025333 1.017167 -0.507885
v 1.874666 -0.982833 -0.807885
v 1.874666 1.017167 -0.807885
v 1.331875 -0.982833 -0.920223
v 1.331875 1.017167 -0.920223
v 1.112214 -0.982833 -0.990983
v 1.112214 1.017167 -0.990983
v 1.029486 -0.982833 -1.162576
v 1.029486 1.017167 -1.162576
v 0.795172 -0.982833 -2.074221
v 0.795172 1.017167 -2.074221
v 0.417712 -0.982833 -5.012619
v 0.417712 1.017167 -5.012619
v 0.301973 -0.982833 -5.962791
v 0.301973 1.017167 -5.962791
v 0.148944 -0.982833 -7.009018
v 0.148944 1.017167 -7.009018
v 1.055673 -0.982833 -5.935827
v 1.055673 1.017167 -5.935827
v 2.015454 -0.982833 -5.028969
v 2.015454 1.017167 -5.028969
v 2.918247 -0.982833 -4.076307
v 2.918247 1.017167 -4.076307
v 2.960115 -0.982833 -4.047540
v 2.960115 1.017167 -4.047540
v 3.004038 0.817167 -4.000200
v 3.558690 0.817167 -2.878583
v 4.101754 0.817167 -1.796306
v 4.284547 0.817167 -1.428968
v 4.394328 0.817167 -1.215826
v 4.511056 0.817167 -0.979017
v 4.608027 0.817167 -0.782790
v 4.704870 0.817167 -0.581021
v 4.980062 0.817167 -0.052096
v 4.966006 0.817167 -0.021953
v 4.907785 0.817167 -0.030982
v 3.968124 0.817167 -0.270223
v 3.025333 0.817167 -0.507885
v 1.874666 0.817167 -0.807885
v 1.331875 0.817167 -0.920223
v 1.112214 0.817167 -0.990983
v 1.029486 0.817167 -1.162576
v 0.795172 0.817167 -2.074221
v 0.417712 0.817167 -5.012619
v 0.301973 0.817167 -5.962791
v 0.148944 0.817167 -7.009018
v 1.055673 0.817167 -5.935827
v 2.015454 0.817167 -5.028969
v 2.918247 0.817167 -4.076307
v 2.960115 0.817167 -4.047540
v 3.558690 -0.892833 -2.878583
v 4.101754 -0.892833 -1.796306
v 4.284547 -0.892833 -1.428968
v 4.394328 -0.892833 -1.215826
v 4.511056 -0.892833 -0.979017
v 4.608027 -0.892833 -0.782790
v 4.704870 -0.892833 -0.581021
v 4.980062 -0.892833 -0.052096
v 4.966006 -0.892833 -0.021953
v 4.907785 -0.892833 -0.030982
v 3.968124 -0.892833 -0.270223
v 3.025333 -0.892833 -0.507885
v 1.874666 -0.892833 -0.807885
v 1.331875 -0.892833 -0.920223
v 1.112214 -0.892833 -0.990983
v 1.077034 -0.953377 -1.162576
v 0.842721 -0.953377 -2.074221
v 0.465261 -0.953377 -5.012619
v 0.349522 -0.953377 -5.962791
v 0.148944 -0.892833 -7.009018
v 1.055673 -0.892833 -5.935827
v 2.015454 -0.892833 -5.028969
v 2.918247 -0.892833 -4.076307
v 2.960115 -0.892833 -4.047540
v 3.004038 -0.892833 -4.000200
v 0.156595 -0.982833 -6.956707
v 0.156595 1.017167 -6.956707
v 0.156595 0.817167 -6.956707
v 0.156595 -0.892833 -6.956707
v 1.099805 -0.982833 -1.016722
v 1.099805 1.017167 -1.016722
v 1.099805 0.817167 -1.016722
v 1.099805 -0.892833 -1.016722
v 0.417712 0.817167 -5.012619
v 0.301973 0.817167 -5.962791
v 0.795172 0.817167 -2.074221
v 1.029486 0.817167 -1.162576
v 1.099805 0.817167 -1.016722
v 1.129486 -0.892833 -1.162576
v 0.895172 -0.892833 -2.074221
v 0.517712 -0.892833 -5.012619
v 0.401973 -0.892833 -5.962791
v 1.099805 -0.892833 -1.016722
v 0.156595 0.817167 -6.956707
v 0.156595 -0.892833 -6.956707
v 0.615331 0.817167 -4.902811
v 0.499592 0.817167 -5.757966
v 0.992791 0.817167 -2.258252
v 1.227105 0.817167 -1.437772
v 1.297424 0.817167 -1.306503
v 1.227105 -0.892833 -1.437772
v 0.992791 -0.892833 -2.258252
v 0.615331 -0.892833 -4.902811
v 0.499592 -0.892833 -5.757966
v 1.297424 -0.892833 -1.306503
v 0.354214 0.817167 -6.652490
v 0.354214 -0.892833 -6.652490
vt 1.000000 0.950000
vt 1.000000 1.000000
vt 0.960000 1.000000
vt 0.960000 0.950000
vt 0.920000 1.000000
vt 0.920000 0.950000
vt 0.880000 1.000000
vt 0.880000 0.950000
vt 0.840000 1.000000
vt 0.840000 0.950000
vt 0.800000 1.000000
vt 0.800000 0.950000
vt 0.760000 1.000000
vt 0.760000 0.950000
vt 0.720000 1.000000
vt 0.720000 0.950000
vt 0.680000 1.000000
vt 0.680000 0.950000
vt 0.640000 1.000000
vt 0.640000 0.950000
vt 0.600000 1.000000
vt 0.600000 0.950000
vt 0.560000 1.000000
vt 0.560000 0.950000
vt 0.520000 1.000000
vt 0.520000 0.950000
vt 0.480000 1.000000
vt 0.480000 0.950000
vt 0.440000 1.000000
vt 0.440000 0.950000
vt 0.400000 1.000000
vt 0.400000 0.950000
vt 0.394000 0.950000
vt 0.394000 1.000000
vt 0.360000 1.000000
vt 0.360000 0.950000
vt 0.320000 1.000000
vt 0.320000 0.950000
vt 0.280000 1.000000
vt 0.280000 0.950000
vt 0.240000 1.000000
vt 0.240000 0.950000
vt 0.202000 0.950000
vt 0.202000 1.000000
vt 0.200000 1.000000
vt 0.200000 0.950000
vt 0.160000 1.000000
vt 0.160000 0.950000
vt 0.120000 1.000000
vt 0.120000 0.950000
vt 0.080000 1.000000
vt 0.080000 0.950000
vt 0.309686 0.482460
vt 0.250000 0.490000
vt 0.190315 0.482460
vt 0.134379 0.460314
vt 0.085709 0.424953
vt 0.047361 0.378599
vt 0.021747 0.324164
vt 0.021183 0.321210
vt 0.010474 0.265070
vt 0.014251 0.205029
vt 0.032841 0.147813
vt 0.065077 0.097018
vt 0.102353 0.062013
vt 0.108931 0.055836
vt 0.161650 0.026854
vt 0.219920 0.011892
vt 0.280080 0.011892
vt 0.338350 0.026854
vt 0.391068 0.055836
vt 0.434923 0.097018
vt 0.467158 0.147813
vt 0.485749 0.205028
vt 0.489526 0.265070
vt 0.478254 0.324164
vt 0.452639 0.378598
vt 0.414291 0.424952
vt 0.365621 0.460314
vt 0.040000 1.000000
vt 0.040000 0.950000
vt -0.000000 1.000000
vt -0.000000 0.950000
vt 0.750000 0.490000
vt 0.809686 0.482460
vt 0.865621 0.460314
vt 0.914291 0.424952
vt 0.952639 0.378598
vt 0.978254 0.324164
vt 0.989526 0.265070
vt 0.985749 0.205028
vt 0.967158 0.147813
vt 0.934923 0.097018
vt 0.891068 0.055836
vt 0.838350 0.026854
vt 0.780080 0.011892
vt 0.719920 0.011892
vt 0.661650 0.026854
vt 0.608931 0.055836
vt 0.602353 0.062013
vt 0.565077 0.097018
vt 0.532841 0.147813
vt 0.514251 0.205029
vt 0.510474 0.265070
vt 0.521183 0.321210
vt 0.521747 0.324164
vt 0.547361 0.378599
vt 0.585709 0.424953
vt 0.634379 0.460314
vt 0.690315 0.482460
vt 0.040000 0.522500
vt -0.000000 0.522500
vt 0.080000 0.522500
vt 0.120000 0.522500
vt 0.160000 0.522500
vt 0.200000 0.522500
vt 0.202000 0.522500
vt 0.240000 0.950000
vt 0.280000 0.950000
vt 0.280000 0.522500
vt 0.320000 0.522500
vt 0.320000 0.522500
vt 0.280000 0.522500
vt 0.202000 0.950000
vt 0.360000 0.950000
vt 0.394000 0.950000
vt 0.440000 0.522500
vt 0.400000 0.522500
vt 0.480000 0.522500
vt 0.520000 0.522500
vt 0.560000 0.522500
vt 0.600000 0.522500
vt 0.640000 0.522500
vt 0.680000 0.522500
vt 0.720000 0.522500
vt 0.760000 0.522500
vt 0.800000 0.522500
vt 0.840000 0.522500
vt 0.880000 0.522500
vt 0.920000 0.522500
vt 0.960000 0.522500
vt 1.000000 0.522500
vt 1.000000 0.500000
vt 0.960000 0.500000
vt 0.920000 0.500000
vt 0.880000 0.500000
vt 0.840000 0.500000
vt 0.800000 0.500000
vt 0.760000 0.500000
vt 0.720000 0.500000
vt 0.680000 0.500000
vt 0.640000 0.500000
vt 0.600000 0.500000
vt 0.560000 0.500000
vt 0.520000 0.500000
vt 0.480000 0.500000
vt 0.440000 0.500000
vt 0.400000 0.500000
vt 0.394000 0.500000
vt 0.394000 0.522500
vt 0.360000 0.522500
vt 0.360000 0.500000
vt 0.320000 0.500000
vt 0.280000 0.500000
vt 0.240000 0.522500
vt 0.240000 0.500000
vt 0.202000 0.500000
vt 0.200000 0.500000
vt 0.160000 0.500000
vt 0.120000 0.500000
vt 0.080000 0.500000
vt 0.040000 0.500000
vt -0.000000 0.500000
vt 0.394000 0.522500
vt 0.202000 0.522500
vt 0.240000 0.522500
vt 0.240000 0.522500
vt 0.202000 0.522500
vt 0.360000 0.522500
vt 0.360000 0.522500
vt 0.320000 0.522500
vt 0.320000 0.950000
vt 0.320000 0.950000
vt 0.360000 0.950000
vt 0.202000 0.950000
vt 0.240000 0.950000
vt 0.394000 0.950000
vt 0.394000 0.522500
vt 0.280000 0.522500
vt 0.280000 0.950000
vn 0.8964 0.0000 -0.4433
vn 0.8938 0.0000 -0.4485
vn 0.8953 0.0000 -0.4455
vn 0.8890 0.0000 -0.4579
vn 0.8970 0.0000 -0.4421
vn 0.8965 0.0000 -0.4430
vn 0.9015 0.0000 -0.4327
vn 0.8871 0.0000 -0.4616
vn 0.9063 0.0000 0.4226
vn -0.1532 0.0000 0.9882
vn -0.2467 0.0000 0.9691
vn -0.2444 0.0000 0.9697
vn -0.2523 0.0000 0.9677
vn -0.2027 0.0000 0.9792
vn -0.3066 0.0000 0.9518
vn -0.9008 0.0000 0.4343
vn -0.9685 0.0000 0.2489
vn -0.9919 0.0000 0.1274
vn -0.9927 0.0000 0.1209
vn -0.9895 0.0000 0.1447
vn 0.7639 0.0000 -0.6454
vn 0.6868 0.0000 -0.7269
vn 0.7258 0.0000 -0.6879
vn 0.0000 1.0000 -0.0000
vn 0.5663 0.0000 -0.8242
vn 0.7331 0.0000 -0.6802
vn 0.0000 -1.0000 0.0000
vn 0.0000 0.0000 1.0000
vn -0.7523 0.6517 0.0966
vn -0.9075 0.3612 0.2146
vn -0.5219 0.8424 0.1341
vn -0.5254 0.8482 0.0675
vn -0.5256 0.8483 0.0640
vn -0.9161 0.3646 0.1670
vn -0.8262 0.0000 -0.5634
vn -0.7430 0.6437 0.1834
vn -0.7526 0.6520 0.0917
vn -0.7470 0.6472 -0.1520
vn -0.7419 0.6428 0.1907
vn -0.9910 0.0000 0.1341
vn -0.9900 0.0000 0.1413
vn -0.9616 0.0000 0.2746
vn -0.8815 0.0000 0.4722
vn -0.9870 0.0000 0.1604
vn -0.8386 0.0000 0.5448
usemtl None
s off
f 51/1/1 2/2/1 4/3/1 52/4/1
f 52/4/2 4/3/2 6/5/2 53/6/2
f 53/6/3 6/5/3 8/7/3 54/8/3
f 54/8/4 8/7/4 10/9/4 55/10/4
f 55/10/5 10/9/5 12/11/5 56/12/5
f 56/12/6 12/11/6 14/13/6 57/14/6
f 57/14/7 14/13/7 16/15/7 58/16/7
f 58/16/8 16/15/8 18/17/8 59/18/8
f 59/18/9 18/17/9 20/19/9 60/20/9
f 60/20/10 20/19/10 22/21/10 61/22/10
f 61/22/11 22/21/11 24/23/11 62/24/11
f 62/24/12 24/23/12 26/25/12 63/26/12
f 63/26/13 26/25/13 28/27/13 64/28/13
f 64/28/14 28/27/14 30/29/14 65/30/14
f 65/30/15 30/29/15 32/31/15 66/32/15
f 107/33/16 106/34/16 34/35/16 67/36/16
f 67/36/17 34/35/17 36/37/17 68/38/17
f 68/38/18 36/37/18 38/39/18 69/40/18
f 69/40/19 38/39/19 40/41/19 70/42/19
f 103/43/20 102/44/20 42/45/20 71/46/20
f 71/46/21 42/45/21 44/47/21 72/48/21
f 72/48/22 44/47/22 46/49/22 73/50/22
f 73/50/23 46/49/23 48/51/23 74/52/23
f 4/53/24 2/54/24 50/55/24 48/56/24 46/57/24 44/58/24 42/59/24 102/60/24 40/61/24 38/62/24 36/63/24 34/64/24 106/65/24 32/66/24 30/67/24 28/68/24 26/69/24 24/70/24 22/71/24 20/72/24 18/73/24 16/74/24 14/75/24 12/76/24 10/77/24 8/78/24 6/79/24
f 74/52/25 48/51/25 50/80/25 75/81/25
f 75/81/26 50/80/26 2/82/26 51/83/26
f 1/84/27 3/85/27 5/86/27 7/87/27 9/88/27 11/89/27 13/90/27 15/91/27 17/92/27 19/93/27 21/94/27 23/95/27 25/96/27 27/97/27 29/98/27 31/99/27 105/100/27 33/101/27 35/102/27 37/103/27 39/104/27 101/105/27 41/106/27 43/107/27 45/108/27 47/109/27 49/110/27
f 99/111/26 75/81/26 51/83/26 100/112/26
f 98/113/25 74/52/25 75/81/25 99/111/25
f 97/114/23 73/50/23 74/52/23 98/113/23
f 96/115/22 72/48/22 73/50/22 97/114/22
f 95/116/21 71/46/21 72/48/21 96/115/21
f 104/117/20 103/43/20 71/46/20 95/116/20
f 69/40/28 70/42/28 110/118/28 109/119/28
f 93/120/29 92/121/29 115/122/29 116/123/29
f 70/42/28 103/43/28 119/124/28 110/118/28
f 107/33/28 67/36/28 112/125/28 113/126/28
f 89/127/15 65/30/15 66/32/15 90/128/15
f 88/129/14 64/28/14 65/30/14 89/127/14
f 87/130/13 63/26/13 64/28/13 88/129/13
f 86/131/12 62/24/12 63/26/12 87/130/12
f 85/132/11 61/22/11 62/24/11 86/131/11
f 84/133/10 60/20/10 61/22/10 85/132/10
f 83/134/9 59/18/9 60/20/9 84/133/9
f 82/135/8 58/16/8 59/18/8 83/134/8
f 81/136/7 57/14/7 58/16/7 82/135/7
f 80/137/6 56/12/6 57/14/6 81/136/6
f 79/138/5 55/10/5 56/12/5 80/137/5
f 78/139/4 54/8/4 55/10/4 79/138/4
f 77/140/3 53/6/3 54/8/3 78/139/3
f 76/141/2 52/4/2 53/6/2 77/140/2
f 100/142/1 51/1/1 52/4/1 76/141/1
f 1/143/1 100/142/1 76/141/1 3/144/1
f 3/144/2 76/141/2 77/140/2 5/145/2
f 5/145/3 77/140/3 78/139/3 7/146/3
f 7/146/4 78/139/4 79/138/4 9/147/4
f 9/147/5 79/138/5 80/137/5 11/148/5
f 11/148/6 80/137/6 81/136/6 13/149/6
f 13/149/7 81/136/7 82/135/7 15/150/7
f 15/150/8 82/135/8 83/134/8 17/151/8
f 17/151/9 83/134/9 84/133/9 19/152/9
f 19/152/10 84/133/10 85/132/10 21/153/10
f 21/153/11 85/132/11 86/131/11 23/154/11
f 23/154/12 86/131/12 87/130/12 25/155/12
f 25/155/13 87/130/13 88/129/13 27/156/13
f 27/156/14 88/129/14 89/127/14 29/157/14
f 29/157/15 89/127/15 90/128/15 31/158/15
f 105/159/30 108/160/30 91/161/30 33/162/30
f 33/162/31 91/161/31 92/121/31 35/163/31
f 35/163/32 92/121/32 93/120/32 37/164/32
f 37/164/33 93/120/33 94/165/33 39/166/33
f 101/167/20 104/117/20 95/116/20 41/168/20
f 41/168/21 95/116/21 96/115/21 43/169/21
f 43/169/22 96/115/22 97/114/22 45/170/22
f 45/170/23 97/114/23 98/113/23 47/171/23
f 47/171/25 98/113/25 99/111/25 49/172/25
f 49/172/26 99/111/26 100/112/26 1/173/26
f 39/166/34 94/165/34 104/117/34 101/167/34
f 108/160/28 107/33/28 113/126/28 118/174/28
f 70/42/20 40/41/20 102/44/20 103/43/20
f 31/158/16 90/128/16 108/160/16 105/159/16
f 90/128/16 66/32/16 107/33/16 108/160/16
f 66/32/16 32/31/16 106/34/16 107/33/16
f 120/175/24 117/176/24 129/177/24 132/178/24
f 115/122/24 114/179/24 126/180/24 127/181/24
f 112/125/27 111/182/27 123/183/27 124/184/27
f 110/118/27 119/124/27 131/185/27 122/186/27
f 118/174/35 113/126/35 125/187/35 130/188/35
f 104/117/36 94/165/36 117/176/36 120/175/36
f 94/165/37 93/120/37 116/123/37 117/176/37
f 68/38/28 69/40/28 109/119/28 111/182/28
f 91/161/38 108/160/38 118/174/38 114/179/38
f 67/36/28 68/38/28 111/182/28 112/125/28
f 92/121/39 91/161/39 114/179/39 115/122/39
f 103/43/28 104/117/28 120/175/28 119/124/28
f 128/189/40 121/190/40 122/186/40 129/177/40
f 127/181/41 123/183/41 121/190/41 128/189/41
f 126/180/42 124/184/42 123/183/42 127/181/42
f 130/188/43 125/187/43 124/184/43 126/180/43
f 129/177/44 122/186/44 131/185/44 132/178/44
f 113/126/27 112/125/27 124/184/27 125/187/27
f 116/123/24 115/122/24 127/181/24 128/189/24
f 109/119/27 110/118/27 122/186/27 121/190/27
f 119/124/45 120/175/45 132/178/45 131/185/45
f 117/176/24 116/123/24 128/189/24 129/177/24
f 111/182/27 109/119/27 121/190/27 123/183/27
f 114/179/24 118/174/24 130/188/24 126/180/24
