# Blender v2.82 (sub 7) OBJ File: 'Back Plastic.blend'
# www.blender.org
mtllib Back Plastic.mtl
o Cube
v 11.000000 1.000000 -1.000000
v 11.000000 -1.000000 -1.000000
v 11.000000 1.000000 4.000000
v 11.000000 -1.000000 4.000000
v -11.000000 1.000000 -1.000000
v -11.000000 -1.000000 -1.000000
v -11.000000 1.000000 9.000000
v -11.000000 -1.000000 9.000000
v 10.000000 -1.000000 -1.000000
v 9.000000 -1.000000 -1.000000
v 8.000000 -1.000000 -1.000000
v 7.000000 -1.000000 -1.000000
v 6.000000 -1.000000 -1.000000
v 5.000000 -1.000000 -1.000000
v 4.000000 -1.000000 -1.000000
v 3.000000 -1.000000 -1.000000
v 2.000000 -1.000000 -1.000000
v 1.000000 -1.000000 -1.000000
v 0.000000 -1.000000 -1.000000
v -1.000000 -1.000000 -1.000000
v -2.000000 -1.000000 -1.000000
v -3.000000 -1.000000 -1.000000
v -4.000000 -1.000000 -1.000000
v -5.000000 -1.000000 -1.000000
v -6.000000 -1.000000 -1.000000
v -7.000000 -1.000000 -1.000000
v -8.000000 -1.000000 -1.000000
v -9.000000 -1.000000 -1.000000
v -10.000000 -1.000000 -1.000000
v 10.000000 1.000000 2.700000
v 9.000000 1.000000 1.500000
v 8.000000 1.000000 0.800000
v 7.000000 1.000000 0.200000
v 6.000000 1.000000 -0.300000
v 5.000000 1.000000 -0.600000
v 4.000000 1.000000 -0.800000
v 3.000000 1.000000 -0.900000
v 2.000000 1.000000 -0.900000
v 1.000000 1.000000 -0.900000
v 0.000000 1.000000 -0.900000
v -1.000000 1.000000 -0.800000
v -2.000000 1.000000 -0.600000
v -3.000000 1.000000 -0.300000
v -4.000000 1.000000 0.100000
v -5.000000 1.000000 0.700000
v -6.000000 1.000000 1.300000
v -7.000000 1.000000 2.100000
v -8.000000 1.000000 3.000000
v -9.000000 1.000000 4.300000
v -10.000000 1.000000 6.000000
v -10.000000 -1.000000 6.000000
v -9.000000 -1.000000 4.300000
v -8.000000 -1.000000 3.000000
v -7.000000 -1.000000 2.100000
v -6.000000 -1.000000 1.300000
v -5.000000 -1.000000 0.700000
v -4.000000 -1.000000 0.100000
v -3.000000 -1.000000 -0.300000
v -2.000000 -1.000000 -0.600000
v -1.000000 -1.000000 -0.800000
v 0.000000 -1.000000 -0.900000
v 1.000000 -1.000000 -0.900000
v 2.000000 -1.000000 -0.900000
v 3.000000 -1.000000 -0.900000
v 4.000000 -1.000000 -0.800000
v 5.000000 -1.000000 -0.600000
v 6.000000 -1.000000 -0.300000
v 7.000000 -1.000000 0.200000
v 8.000000 -1.000000 0.800000
v 9.000000 -1.000000 1.500000
v 10.000000 -1.000000 2.700000
v -10.000000 1.000000 -1.000000
v -9.000000 1.000000 -1.000000
v -8.000000 1.000000 -1.000000
v -7.000000 1.000000 -1.000000
v -6.000000 1.000000 -1.000000
v -5.000000 1.000000 -1.000000
v -4.000000 1.000000 -1.000000
v -3.000000 1.000000 -1.000000
v -2.000000 1.000000 -1.000000
v -1.000000 1.000000 -1.000000
v 0.000000 1.000000 -1.000000
v 1.000000 1.000000 -1.000000
v 2.000000 1.000000 -1.000000
v 3.000000 1.000000 -1.000000
v 4.000000 1.000000 -1.000000
v 5.000000 1.000000 -1.000000
v 6.000000 1.000000 -1.000000
v 7.000000 1.000000 -1.000000
v 8.000000 1.000000 -1.000000
v 9.000000 1.000000 -1.000000
v 10.000000 1.000000 -1.000000
v 11.000000 0.000000 -1.000000
v -11.000000 0.000000 9.000000
v 11.000000 0.000000 4.000000
v -11.000000 0.000000 -1.000000
v -10.000000 0.000000 -1.000000
v -9.000000 0.000000 -1.000000
v -8.000000 0.000000 -1.000000
v -7.000000 0.000000 -1.000000
v -6.000000 0.000000 -1.000000
v -5.000000 0.000000 -1.000000
v -4.000000 0.000000 -1.000000
v -3.000000 0.000000 -1.000000
v -2.000000 0.000000 -1.000000
v -1.000000 0.000000 -1.000000
v 0.000000 0.000000 -1.000000
v 1.000000 0.000000 -1.000000
v 2.000000 0.000000 -1.000000
v 3.000000 0.000000 -1.000000
v 4.000000 0.000000 -1.000000
v 5.000000 0.000000 -1.000000
v 6.000000 0.000000 -1.000000
v 7.000000 0.000000 -1.000000
v 8.000000 0.000000 -1.000000
v 9.000000 0.000000 -1.000000
v 10.000000 0.000000 -1.000000
v 10.000000 0.000000 2.700000
v 9.000000 0.000000 1.500000
v 8.000000 0.000000 0.800000
v 7.000000 0.000000 0.200000
v 6.000000 0.000000 -0.300000
v 5.000000 0.000000 -0.600000
v 4.000000 0.000000 -0.800000
v 3.000000 0.000000 -0.900000
v 2.000000 0.000000 -0.900000
v 1.000000 0.000000 -0.900000
v 0.000000 0.000000 -0.900000
v -1.000000 0.000000 -0.800000
v -2.000000 0.000000 -0.600000
v -3.000000 0.000000 -0.300000
v -4.000000 0.000000 0.100000
v -5.000000 0.000000 0.700000
v -6.000000 0.000000 1.300000
v -7.000000 0.000000 2.100000
v -8.000000 0.000000 3.000000
v -9.000000 0.000000 4.300000
v -10.000000 0.000000 6.000000
v -10.000000 2.000000 6.000000
v -11.000000 2.000000 9.000000
v 11.000000 2.000000 -1.000000
v 11.000000 2.000000 4.000000
v -11.000000 2.000000 -1.000000
v 10.000000 2.000000 -1.000000
v 10.000000 2.000000 2.700000
v 9.000000 2.000000 1.500000
v 8.000000 2.000000 0.800000
v 7.000000 2.000000 0.200000
v 6.000000 2.000000 -0.300000
v 5.000000 2.000000 -0.600000
v 4.000000 2.000000 -0.800000
v 3.000000 2.000000 -0.900000
v 2.000000 2.000000 -0.900000
v 1.000000 2.000000 -0.900000
v 0.000000 2.000000 -0.900000
v -1.000000 2.000000 -0.800000
v -2.000000 2.000000 -0.600000
v -3.000000 2.000000 -0.300000
v -4.000000 2.000000 0.100000
v -5.000000 2.000000 0.700000
v -6.000000 2.000000 1.300000
v -7.000000 2.000000 2.100000
v -8.000000 2.000000 3.000000
v -9.000000 2.000000 4.300000
v -10.000000 2.000000 -1.000000
v -9.000000 2.000000 -1.000000
v -8.000000 2.000000 -1.000000
v -7.000000 2.000000 -1.000000
v -6.000000 2.000000 -1.000000
v -5.000000 2.000000 -1.000000
v -4.000000 2.000000 -1.000000
v -3.000000 2.000000 -1.000000
v -2.000000 2.000000 -1.000000
v -1.000000 2.000000 -1.000000
v 0.000000 2.000000 -1.000000
v 1.000000 2.000000 -1.000000
v 2.000000 2.000000 -1.000000
v 3.000000 2.000000 -1.000000
v 4.000000 2.000000 -1.000000
v 5.000000 2.000000 -1.000000
v 6.000000 2.000000 -1.000000
v 7.000000 2.000000 -1.000000
v 8.000000 2.000000 -1.000000
v 9.000000 2.000000 -1.000000
v -10.000000 3.000000 6.000000
v -11.000000 3.000000 9.000000
v 11.000000 3.000000 -1.000000
v 11.000000 3.000000 4.000000
v -11.000000 3.000000 -1.000000
v 10.000000 3.000000 -1.000000
v 10.000000 3.000000 2.700000
v 9.000000 3.000000 1.500000
v 8.000000 3.000000 0.800000
v 7.000000 3.000000 0.200000
v 6.000000 3.000000 -0.300000
v 5.000000 3.000000 -0.600000
v 4.000000 3.000000 -0.800000
v 3.000000 3.000000 -0.900000
v 2.000000 3.000000 -0.900000
v 1.000000 3.000000 -0.900000
v 0.000000 3.000000 -0.900000
v -1.000000 3.000000 -0.800000
v -2.000000 3.000000 -0.600000
v -3.000000 3.000000 -0.300000
v -4.000000 3.000000 0.100000
v -5.000000 3.000000 0.700000
v -6.000000 3.000000 1.300000
v -7.000000 3.000000 2.100000
v -8.000000 3.000000 3.000000
v -9.000000 3.000000 4.300000
v -10.000000 3.000000 -1.000000
v -9.000000 3.000000 -1.000000
v -8.000000 3.000000 -1.000000
v -7.000000 3.000000 -1.000000
v -6.000000 3.000000 -1.000000
v -5.000000 3.000000 -1.000000
v -4.000000 3.000000 -1.000000
v -3.000000 3.000000 -1.000000
v -2.000000 3.000000 -1.000000
v -1.000000 3.000000 -1.000000
v 0.000000 3.000000 -1.000000
v 1.000000 3.000000 -1.000000
v 2.000000 3.000000 -1.000000
v 3.000000 3.000000 -1.000000
v 4.000000 3.000000 -1.000000
v 5.000000 3.000000 -1.000000
v 6.000000 3.000000 -1.000000
v 7.000000 3.000000 -1.000000
v 8.000000 3.000000 -1.000000
v 9.000000 3.000000 -1.000000
vt 0.625000 0.806818
vt 0.625000 0.795455
vt 0.625000 0.795455
vt 0.625000 0.806818
vt 0.500000 0.988636
vt 0.625000 0.988636
vt 0.625000 1.000000
vt 0.500000 1.000000
vt 0.500000 0.000000
vt 0.625000 0.000000
vt 0.625000 0.250000
vt 0.500000 0.250000
vt 0.363636 0.500000
vt 0.375000 0.500000
vt 0.375000 0.750000
vt 0.363636 0.750000
vt 0.500000 0.500000
vt 0.625000 0.500000
vt 0.625000 0.750000
vt 0.500000 0.750000
vt 0.500000 0.488636
vt 0.625000 0.488636
vt 0.625000 0.261364
vt 0.500000 0.261364
vt 0.625000 0.272727
vt 0.500000 0.272727
vt 0.625000 0.284091
vt 0.500000 0.284091
vt 0.625000 0.295455
vt 0.500000 0.295455
vt 0.625000 0.306818
vt 0.500000 0.306818
vt 0.625000 0.318182
vt 0.500000 0.318182
vt 0.625000 0.329545
vt 0.500000 0.329545
vt 0.625000 0.340909
vt 0.500000 0.340909
vt 0.625000 0.352273
vt 0.500000 0.352273
vt 0.625000 0.363636
vt 0.500000 0.363636
vt 0.625000 0.375000
vt 0.500000 0.375000
vt 0.625000 0.386364
vt 0.500000 0.386364
vt 0.625000 0.397727
vt 0.500000 0.397727
vt 0.625000 0.409091
vt 0.500000 0.409091
vt 0.625000 0.420455
vt 0.500000 0.420455
vt 0.625000 0.431818
vt 0.500000 0.431818
vt 0.625000 0.443182
vt 0.500000 0.443182
vt 0.625000 0.454545
vt 0.500000 0.454545
vt 0.625000 0.465909
vt 0.500000 0.465909
vt 0.625000 0.477273
vt 0.500000 0.477273
vt 0.125000 0.500000
vt 0.136364 0.500000
vt 0.136364 0.750000
vt 0.125000 0.750000
vt 0.147727 0.500000
vt 0.147727 0.750000
vt 0.159091 0.500000
vt 0.159091 0.750000
vt 0.170455 0.500000
vt 0.170455 0.750000
vt 0.181818 0.500000
vt 0.181818 0.750000
vt 0.193182 0.500000
vt 0.193182 0.750000
vt 0.204545 0.500000
vt 0.204545 0.750000
vt 0.215909 0.500000
vt 0.215909 0.750000
vt 0.227273 0.500000
vt 0.227273 0.750000
vt 0.238636 0.500000
vt 0.238636 0.750000
vt 0.250000 0.500000
vt 0.250000 0.750000
vt 0.261364 0.500000
vt 0.261364 0.750000
vt 0.272727 0.500000
vt 0.272727 0.750000
vt 0.284091 0.500000
vt 0.284091 0.750000
vt 0.295455 0.500000
vt 0.295455 0.750000
vt 0.306818 0.500000
vt 0.306818 0.750000
vt 0.318182 0.500000
vt 0.318182 0.750000
vt 0.329545 0.500000
vt 0.329545 0.750000
vt 0.340909 0.500000
vt 0.340909 0.750000
vt 0.352273 0.500000
vt 0.352273 0.750000
vt 0.625000 0.761364
vt 0.500000 0.761364
vt 0.625000 0.772727
vt 0.500000 0.772727
vt 0.625000 0.784091
vt 0.500000 0.784091
vt 0.500000 0.795455
vt 0.500000 0.806818
vt 0.625000 0.818182
vt 0.500000 0.818182
vt 0.625000 0.829545
vt 0.500000 0.829545
vt 0.625000 0.840909
vt 0.500000 0.840909
vt 0.625000 0.852273
vt 0.500000 0.852273
vt 0.625000 0.863636
vt 0.500000 0.863636
vt 0.625000 0.875000
vt 0.500000 0.875000
vt 0.625000 0.886364
vt 0.500000 0.886364
vt 0.625000 0.897727
vt 0.500000 0.897727
vt 0.625000 0.909091
vt 0.500000 0.909091
vt 0.625000 0.920454
vt 0.500000 0.920455
vt 0.625000 0.931818
vt 0.500000 0.931818
vt 0.625000 0.943182
vt 0.500000 0.943182
vt 0.625000 0.954545
vt 0.500000 0.954545
vt 0.625000 0.965909
vt 0.500000 0.965909
vt 0.625000 0.977273
vt 0.500000 0.977273
vt 0.625000 0.272727
vt 0.625000 0.284091
vt 0.625000 0.488636
vt 0.625000 0.500000
vt 0.625000 0.943182
vt 0.625000 0.954545
vt 0.625000 0.420455
vt 0.625000 0.431818
vt 0.625000 0.784091
vt 0.625000 0.000000
vt 0.625000 0.250000
vt 0.625000 0.261364
vt 0.625000 0.931818
vt 0.625000 0.409091
vt 0.625000 0.772727
vt 0.625000 0.920454
vt 0.625000 0.397727
vt 0.625000 0.761364
vt 0.625000 0.750000
vt 0.625000 0.909091
vt 0.625000 0.386364
vt 0.625000 0.988636
vt 0.625000 1.000000
vt 0.625000 0.897727
vt 0.625000 0.375000
vt 0.375000 0.977273
vt 0.375000 0.988636
vt 0.375000 0.965909
vt 0.375000 0.954545
vt 0.375000 0.943182
vt 0.375000 0.931818
vt 0.375000 0.920455
vt 0.375000 0.909091
vt 0.375000 0.897727
vt 0.375000 0.886364
vt 0.375000 0.875000
vt 0.375000 0.863636
vt 0.375000 0.852273
vt 0.375000 0.840909
vt 0.375000 0.829545
vt 0.375000 0.818182
vt 0.375000 0.806818
vt 0.375000 0.795455
vt 0.375000 0.784091
vt 0.375000 0.772727
vt 0.375000 0.761364
vt 0.375000 0.477273
vt 0.375000 0.488636
vt 0.375000 0.465909
vt 0.375000 0.454545
vt 0.375000 0.443182
vt 0.375000 0.431818
vt 0.375000 0.420455
vt 0.375000 0.409091
vt 0.375000 0.397727
vt 0.375000 0.386364
vt 0.375000 0.375000
vt 0.375000 0.363636
vt 0.375000 0.352273
vt 0.375000 0.340909
vt 0.375000 0.329545
vt 0.375000 0.318182
vt 0.375000 0.306818
vt 0.375000 0.295455
vt 0.375000 0.284091
vt 0.375000 0.272727
vt 0.375000 0.261364
vt 0.375000 0.250000
vt 0.375000 0.000000
vt 0.375000 1.000000
vt 0.625000 0.931818
vt 0.625000 0.943182
vt 0.625000 0.352273
vt 0.625000 0.340909
vt 0.625000 0.340909
vt 0.625000 0.352273
vt 0.625000 0.772727
vt 0.625000 0.784091
vt 0.625000 0.920454
vt 0.625000 0.329545
vt 0.625000 0.329545
vt 0.625000 0.761364
vt 0.625000 0.477273
vt 0.625000 0.477273
vt 0.625000 0.488636
vt 0.625000 0.909091
vt 0.625000 0.318182
vt 0.625000 0.318182
vt 0.625000 0.750000
vt 0.625000 0.465909
vt 0.625000 0.465909
vt 0.625000 0.897727
vt 0.625000 0.306818
vt 0.625000 0.306818
vt 0.625000 0.500000
vt 0.625000 0.454545
vt 0.625000 0.454545
vt 0.625000 0.886364
vt 0.625000 0.886364
vt 0.625000 0.295455
vt 0.625000 0.295455
vt 0.625000 0.000000
vt 0.625000 0.250000
vt 0.625000 0.443182
vt 0.625000 0.443182
vt 0.625000 0.875000
vt 0.625000 0.875000
vt 0.625000 0.284091
vt 0.625000 0.965909
vt 0.625000 0.818182
vt 0.625000 0.977273
vt 0.625000 0.829545
vt 0.625000 0.840909
vt 0.625000 0.852273
vt 0.625000 0.863636
vt 0.625000 0.363636
vt 0.863636 0.500000
vt 0.875000 0.500000
vt 0.875000 0.750000
vt 0.863636 0.750000
vt 0.636364 0.500000
vt 0.636364 0.750000
vt 0.647727 0.500000
vt 0.647727 0.750000
vt 0.659091 0.500000
vt 0.659091 0.750000
vt 0.670455 0.500000
vt 0.670455 0.750000
vt 0.681818 0.500000
vt 0.681818 0.750000
vt 0.693182 0.500000
vt 0.693182 0.750000
vt 0.704545 0.500000
vt 0.704545 0.750000
vt 0.715909 0.500000
vt 0.715909 0.750000
vt 0.727273 0.500000
vt 0.727273 0.750000
vt 0.738636 0.500000
vt 0.738636 0.750000
vt 0.750000 0.500000
vt 0.750000 0.750000
vt 0.761364 0.500000
vt 0.761364 0.750000
vt 0.772727 0.500000
vt 0.772727 0.750000
vt 0.784091 0.500000
vt 0.784091 0.750000
vt 0.795455 0.500000
vt 0.795454 0.750000
vt 0.806818 0.500000
vt 0.806818 0.750000
vt 0.818182 0.500000
vt 0.818182 0.750000
vt 0.829545 0.500000
vt 0.829545 0.750000
vt 0.840909 0.500000
vt 0.840909 0.750000
vt 0.852273 0.500000
vt 0.852273 0.750000
vt 0.625000 0.795455
vt 0.625000 0.363636
vt 0.625000 0.954545
vt 0.625000 0.806818
vt 0.625000 0.375000
vt 0.625000 0.965909
vt 0.625000 0.818182
vt 0.625000 0.386364
vt 0.625000 0.977273
vt 0.625000 0.829545
vt 0.625000 0.397727
vt 0.625000 0.988636
vt 0.625000 0.840909
vt 0.625000 0.409091
vt 0.625000 0.261364
vt 0.625000 0.852273
vt 0.625000 0.420455
vt 0.625000 0.272727
vt 0.625000 0.863636
vt 0.625000 0.431818
vt 0.625000 1.000000
vn -0.4472 0.0000 0.8944
vn 0.9487 0.0000 0.3162
vn -1.0000 0.0000 0.0000
vn 0.0000 -1.0000 0.0000
vn 1.0000 0.0000 0.0000
vn 0.0000 0.0000 -1.0000
vn -0.7926 0.0000 0.6097
vn -0.7682 0.0000 0.6402
vn -0.5735 0.0000 0.8192
vn -0.5145 0.0000 0.8575
vn -0.2873 0.0000 0.9578
vn -0.1961 0.0000 0.9806
vn -0.0995 0.0000 0.9950
vn 0.0000 0.0000 1.0000
vn 0.0995 0.0000 0.9950
vn 0.1961 0.0000 0.9806
vn 0.2873 0.0000 0.9578
vn 0.3714 0.0000 0.9285
vn 0.5145 0.0000 0.8575
vn 0.6247 0.0000 0.7809
vn 0.6690 0.0000 0.7433
vn 0.7926 0.0000 0.6097
vn 0.8619 0.0000 0.5070
vn 0.0000 1.0000 0.0000
usemtl Material
s off
f 34/1/1 33/2/1 148/3/1 149/4/1
f 138/5/2 50/6/2 7/7/2 94/8/2
f 94/9/3 7/10/3 5/11/3 96/12/3
f 9/13/4 2/14/4 4/15/4 71/16/4
f 93/17/5 1/18/5 3/19/5 95/20/5
f 117/21/6 92/22/6 1/18/6 93/17/6
f 96/12/6 5/11/6 72/23/6 97/24/6
f 97/24/6 72/23/6 73/25/6 98/26/6
f 98/26/6 73/25/6 74/27/6 99/28/6
f 99/28/6 74/27/6 75/29/6 100/30/6
f 100/30/6 75/29/6 76/31/6 101/32/6
f 101/32/6 76/31/6 77/33/6 102/34/6
f 102/34/6 77/33/6 78/35/6 103/36/6
f 103/36/6 78/35/6 79/37/6 104/38/6
f 104/38/6 79/37/6 80/39/6 105/40/6
f 105/40/6 80/39/6 81/41/6 106/42/6
f 106/42/6 81/41/6 82/43/6 107/44/6
f 107/44/6 82/43/6 83/45/6 108/46/6
f 108/46/6 83/45/6 84/47/6 109/48/6
f 109/48/6 84/47/6 85/49/6 110/50/6
f 110/50/6 85/49/6 86/51/6 111/52/6
f 111/52/6 86/51/6 87/53/6 112/54/6
f 112/54/6 87/53/6 88/55/6 113/56/6
f 113/56/6 88/55/6 89/57/6 114/58/6
f 114/58/6 89/57/6 90/59/6 115/60/6
f 115/60/6 90/59/6 91/61/6 116/62/6
f 116/62/6 91/61/6 92/22/6 117/21/6
f 6/63/4 29/64/4 51/65/4 8/66/4
f 29/64/4 28/67/4 52/68/4 51/65/4
f 28/67/4 27/69/4 53/70/4 52/68/4
f 27/69/4 26/71/4 54/72/4 53/70/4
f 26/71/4 25/73/4 55/74/4 54/72/4
f 25/73/4 24/75/4 56/76/4 55/74/4
f 24/75/4 23/77/4 57/78/4 56/76/4
f 23/77/4 22/79/4 58/80/4 57/78/4
f 22/79/4 21/81/4 59/82/4 58/80/4
f 21/81/4 20/83/4 60/84/4 59/82/4
f 20/83/4 19/85/4 61/86/4 60/84/4
f 19/85/4 18/87/4 62/88/4 61/86/4
f 18/87/4 17/89/4 63/90/4 62/88/4
f 17/89/4 16/91/4 64/92/4 63/90/4
f 16/91/4 15/93/4 65/94/4 64/92/4
f 15/93/4 14/95/4 66/96/4 65/94/4
f 14/95/4 13/97/4 67/98/4 66/96/4
f 13/97/4 12/99/4 68/100/4 67/98/4
f 12/99/4 11/101/4 69/102/4 68/100/4
f 11/101/4 10/103/4 70/104/4 69/102/4
f 10/103/4 9/13/4 71/16/4 70/104/4
f 95/20/7 3/19/7 30/105/7 118/106/7
f 118/106/8 30/105/8 31/107/8 119/108/8
f 119/108/9 31/107/9 32/109/9 120/110/9
f 120/110/10 32/109/10 33/2/10 121/111/10
f 121/111/1 33/2/1 34/1/1 122/112/1
f 122/112/11 34/1/11 35/113/11 123/114/11
f 123/114/12 35/113/12 36/115/12 124/116/12
f 124/116/13 36/115/13 37/117/13 125/118/13
f 125/118/14 37/117/14 38/119/14 126/120/14
f 126/120/14 38/119/14 39/121/14 127/122/14
f 127/122/14 39/121/14 40/123/14 128/124/14
f 128/124/15 40/123/15 41/125/15 129/126/15
f 129/126/16 41/125/16 42/127/16 130/128/16
f 130/128/17 42/127/17 43/129/17 131/130/17
f 131/130/18 43/129/18 44/131/18 132/132/18
f 132/132/19 44/131/19 45/133/19 133/134/19
f 133/134/19 45/133/19 46/135/19 134/136/19
f 134/136/20 46/135/20 47/137/20 135/138/20
f 135/138/21 47/137/21 48/139/21 136/140/21
f 136/140/22 48/139/22 49/141/22 137/142/22
f 137/142/23 49/141/23 50/6/23 138/5/23
f 74/27/6 73/25/6 166/143/6 167/144/6
f 1/18/6 92/22/6 144/145/6 141/146/6
f 47/137/20 46/135/20 161/147/20 162/148/20
f 87/53/6 86/51/6 179/149/6 180/150/6
f 33/2/10 32/109/10 147/151/10 148/3/10
f 5/11/3 7/10/3 140/152/3 143/153/3
f 73/25/6 72/23/6 165/154/6 166/143/6
f 46/135/19 45/133/19 160/155/19 161/147/19
f 86/51/6 85/49/6 178/156/6 179/149/6
f 32/109/9 31/107/9 146/157/9 147/151/9
f 72/23/6 5/11/6 143/153/6 165/154/6
f 45/133/19 44/131/19 159/158/19 160/155/19
f 85/49/6 84/47/6 177/159/6 178/156/6
f 31/107/8 30/105/8 145/160/8 146/157/8
f 3/19/5 1/18/5 141/146/5 142/161/5
f 44/131/18 43/129/18 158/162/18 159/158/18
f 84/47/6 83/45/6 176/163/6 177/159/6
f 30/105/7 3/19/7 142/161/7 145/160/7
f 7/7/2 50/6/2 139/164/2 140/165/2
f 43/129/17 42/127/17 157/166/17 158/162/17
f 83/45/6 82/43/6 175/167/6 176/163/6
f 52/168/23 137/142/23 138/5/23 51/169/23
f 53/170/22 136/140/22 137/142/22 52/168/22
f 54/171/21 135/138/21 136/140/21 53/170/21
f 55/172/20 134/136/20 135/138/20 54/171/20
f 56/173/19 133/134/19 134/136/19 55/172/19
f 57/174/19 132/132/19 133/134/19 56/173/19
f 58/175/18 131/130/18 132/132/18 57/174/18
f 59/176/17 130/128/17 131/130/17 58/175/17
f 60/177/16 129/126/16 130/128/16 59/176/16
f 61/178/15 128/124/15 129/126/15 60/177/15
f 62/179/14 127/122/14 128/124/14 61/178/14
f 63/180/14 126/120/14 127/122/14 62/179/14
f 64/181/14 125/118/14 126/120/14 63/180/14
f 65/182/13 124/116/13 125/118/13 64/181/13
f 66/183/12 123/114/12 124/116/12 65/182/12
f 67/184/11 122/112/11 123/114/11 66/183/11
f 68/185/1 121/111/1 122/112/1 67/184/1
f 69/186/10 120/110/10 121/111/10 68/185/10
f 70/187/9 119/108/9 120/110/9 69/186/9
f 71/188/8 118/106/8 119/108/8 70/187/8
f 4/15/7 95/20/7 118/106/7 71/188/7
f 10/189/6 116/62/6 117/21/6 9/190/6
f 11/191/6 115/60/6 116/62/6 10/189/6
f 12/192/6 114/58/6 115/60/6 11/191/6
f 13/193/6 113/56/6 114/58/6 12/192/6
f 14/194/6 112/54/6 113/56/6 13/193/6
f 15/195/6 111/52/6 112/54/6 14/194/6
f 16/196/6 110/50/6 111/52/6 15/195/6
f 17/197/6 109/48/6 110/50/6 16/196/6
f 18/198/6 108/46/6 109/48/6 17/197/6
f 19/199/6 107/44/6 108/46/6 18/198/6
f 20/200/6 106/42/6 107/44/6 19/199/6
f 21/201/6 105/40/6 106/42/6 20/200/6
f 22/202/6 104/38/6 105/40/6 21/201/6
f 23/203/6 103/36/6 104/38/6 22/202/6
f 24/204/6 102/34/6 103/36/6 23/203/6
f 25/205/6 101/32/6 102/34/6 24/204/6
f 26/206/6 100/30/6 101/32/6 25/205/6
f 27/207/6 99/28/6 100/30/6 26/206/6
f 28/208/6 98/26/6 99/28/6 27/207/6
f 29/209/6 97/24/6 98/26/6 28/208/6
f 6/210/6 96/12/6 97/24/6 29/209/6
f 9/190/6 117/21/6 93/17/6 2/14/6
f 2/14/5 93/17/5 95/20/5 4/15/5
f 8/211/3 94/9/3 96/12/3 6/210/3
f 51/169/2 138/5/2 94/8/2 8/212/2
f 161/147/19 160/155/19 206/213/19 207/214/19
f 173/215/6 172/216/6 218/217/6 219/218/6
f 147/151/9 146/157/9 192/219/9 193/220/9
f 160/155/19 159/158/19 205/221/19 206/213/19
f 172/216/6 171/222/6 217/223/6 218/217/6
f 146/157/8 145/160/8 191/224/8 192/219/8
f 144/145/6 184/225/6 230/226/6 190/227/6
f 159/158/18 158/162/18 204/228/18 205/221/18
f 171/222/6 170/229/6 216/230/6 217/223/6
f 145/160/7 142/161/7 188/231/7 191/224/7
f 184/225/6 183/232/6 229/233/6 230/226/6
f 158/162/17 157/166/17 203/234/17 204/228/17
f 170/229/6 169/235/6 215/236/6 216/230/6
f 141/146/6 144/145/6 190/227/6 187/237/6
f 183/232/6 182/238/6 228/239/6 229/233/6
f 157/166/16 156/240/16 202/241/16 203/234/16
f 169/235/6 168/242/6 214/243/6 215/236/6
f 143/153/3 140/152/3 186/244/3 189/245/3
f 182/238/6 181/246/6 227/247/6 228/239/6
f 156/240/15 155/248/15 201/249/15 202/241/15
f 168/242/6 167/144/6 213/250/6 214/243/6
f 142/161/5 141/146/5 187/237/5 188/231/5
f 88/55/6 87/53/6 180/150/6 181/246/6
f 48/139/21 47/137/21 162/148/21 163/251/21
f 75/29/6 74/27/6 167/144/6 168/242/6
f 35/113/11 34/1/11 149/4/11 150/252/11
f 89/57/6 88/55/6 181/246/6 182/238/6
f 49/141/22 48/139/22 163/251/22 164/253/22
f 76/31/6 75/29/6 168/242/6 169/235/6
f 36/115/12 35/113/12 150/252/12 151/254/12
f 90/59/6 89/57/6 182/238/6 183/232/6
f 50/6/23 49/141/23 164/253/23 139/164/23
f 77/33/6 76/31/6 169/235/6 170/229/6
f 37/117/13 36/115/13 151/254/13 152/255/13
f 91/61/6 90/59/6 183/232/6 184/225/6
f 78/35/6 77/33/6 170/229/6 171/222/6
f 38/119/14 37/117/14 152/255/14 153/256/14
f 92/22/6 91/61/6 184/225/6 144/145/6
f 79/37/6 78/35/6 171/222/6 172/216/6
f 39/121/14 38/119/14 153/256/14 154/257/14
f 80/39/6 79/37/6 172/216/6 173/215/6
f 40/123/14 39/121/14 154/257/14 155/248/14
f 81/41/6 80/39/6 173/215/6 174/258/6
f 41/125/15 40/123/15 155/248/15 156/240/15
f 82/43/6 81/41/6 174/258/6 175/167/6
f 42/127/16 41/125/16 156/240/16 157/166/16
f 211/259/24 189/260/24 186/261/24 185/262/24
f 187/237/24 190/263/24 191/264/24 188/231/24
f 190/263/24 230/265/24 192/266/24 191/264/24
f 230/265/24 229/267/24 193/268/24 192/266/24
f 229/267/24 228/269/24 194/270/24 193/268/24
f 228/269/24 227/271/24 195/272/24 194/270/24
f 227/271/24 226/273/24 196/274/24 195/272/24
f 226/273/24 225/275/24 197/276/24 196/274/24
f 225/275/24 224/277/24 198/278/24 197/276/24
f 224/277/24 223/279/24 199/280/24 198/278/24
f 223/279/24 222/281/24 200/282/24 199/280/24
f 222/281/24 221/283/24 201/284/24 200/282/24
f 221/283/24 220/285/24 202/286/24 201/284/24
f 220/285/24 219/287/24 203/288/24 202/286/24
f 219/287/24 218/289/24 204/290/24 203/288/24
f 218/289/24 217/291/24 205/292/24 204/290/24
f 217/291/24 216/293/24 206/294/24 205/292/24
f 216/293/24 215/295/24 207/296/24 206/294/24
f 215/295/24 214/297/24 208/298/24 207/296/24
f 214/297/24 213/299/24 209/300/24 208/298/24
f 213/299/24 212/301/24 210/302/24 209/300/24
f 212/301/24 211/259/24 185/262/24 210/302/24
f 148/3/10 147/151/10 193/220/10 194/303/10
f 174/258/6 173/215/6 219/218/6 220/304/6
f 162/148/20 161/147/20 207/214/20 208/305/20
f 149/4/1 148/3/1 194/303/1 195/306/1
f 175/167/6 174/258/6 220/304/6 221/307/6
f 163/251/21 162/148/21 208/305/21 209/308/21
f 150/252/11 149/4/11 195/306/11 196/309/11
f 176/163/6 175/167/6 221/307/6 222/310/6
f 164/253/22 163/251/22 209/308/22 210/311/22
f 151/254/12 150/252/12 196/309/12 197/312/12
f 177/159/6 176/163/6 222/310/6 223/313/6
f 139/164/23 164/253/23 210/311/23 185/314/23
f 152/255/13 151/254/13 197/312/13 198/315/13
f 178/156/6 177/159/6 223/313/6 224/316/6
f 165/154/6 143/153/6 189/245/6 211/317/6
f 153/256/14 152/255/14 198/315/14 199/318/14
f 179/149/6 178/156/6 224/316/6 225/319/6
f 166/143/6 165/154/6 211/317/6 212/320/6
f 154/257/14 153/256/14 199/318/14 200/321/14
f 180/150/6 179/149/6 225/319/6 226/322/6
f 140/165/2 139/164/2 185/314/2 186/323/2
f 167/144/6 166/143/6 212/320/6 213/250/6
f 155/248/14 154/257/14 200/321/14 201/249/14
f 181/246/6 180/150/6 226/322/6 227/247/6
