# Blender v2.83.10 OBJ File: 'Bucket Plastic v3.blend'
# www.blender.org
mtllib Bucket Plastic v3.mtl
o Cube
v 4.155179 0.982519 1.537167
v 5.046200 0.153867 1.568308
v 5.000000 1.000000 8.100000
v 5.000000 -1.000000 8.100000
v 0.000000 1.000000 0.000000
v 0.000000 -1.000000 0.000000
v 0.800000 1.000000 5.000000
v 0.800000 -1.000000 5.000000
v -0.200000 -1.000000 0.100000
v -0.300000 -1.000000 0.300000
v -0.200000 -1.000000 1.500000
v 0.200000 -1.000000 3.200000
v 4.593815 0.998119 1.983049
v 5.043929 1.016690 2.566222
v 5.376169 1.029235 2.939665
v 4.700000 1.000000 6.700000
v 0.200000 1.000000 3.200000
v -0.200000 1.000000 1.500000
v -0.300000 1.000000 0.300000
v -0.200000 1.000000 0.100000
v 4.615429 -0.279886 6.740956
v 5.808195 0.028329 3.082772
v 5.820779 0.070049 2.584674
v 5.633902 0.113441 2.062705
v 4.054067 0.179370 1.244234
v 3.061935 0.204872 0.920160
v 2.069803 0.230375 0.596087
v 0.485695 0.232160 0.030706
v 4.000000 1.000000 7.600000
v 3.000000 1.000000 7.000000
v 2.000000 1.000000 6.200000
v 1.000000 1.000000 5.300000
v 1.000000 -1.000000 5.300000
v 2.000000 -1.000000 6.200000
v 3.000000 -1.000000 7.000000
v 4.000000 -1.000000 7.600000
v 0.402139 0.957202 0.076489
v 2.000000 1.000000 0.600000
v 3.000000 1.000000 0.900000
v 3.930908 0.973437 1.254996
v 1.000000 1.000000 0.600000
v 2.000000 1.000000 1.000000
v 3.000000 1.000000 1.300000
v 4.000000 1.000000 1.600000
v 1.000000 1.000000 1.600000
v 2.000000 1.000000 2.000000
v 3.000000 1.000000 2.300000
v 4.000000 1.000000 2.600000
v 1.000000 1.000000 2.600000
v 2.000000 1.000000 3.000000
v 3.000000 1.000000 3.300000
v 4.000000 1.000000 3.600000
v 1.000000 1.000000 3.600000
v 2.000000 1.000000 4.000000
v 3.000000 1.000000 4.300000
v 4.000000 1.000000 5.600000
v 0.740000 -1.000000 4.820000
v 5.070000 1.000000 8.080000
v 0.740000 1.000000 4.820000
v 5.070000 -1.000000 8.080000
v 1.000000 -1.000000 5.130000
v 2.000000 -1.000000 6.010001
v 3.000000 -1.000000 6.780000
v 4.000000 -1.000000 7.450001
v 4.000000 1.000000 7.450001
v 3.000000 1.000000 6.780000
v 2.000000 1.000000 6.010001
v 1.000000 1.000000 5.130000
v 0.200000 -1.000000 0.060000
v 0.840000 1.000000 5.060000
v 0.040000 -1.000000 0.200000
v -0.040000 -1.000000 0.560000
v 0.040000 -1.000000 1.720000
v 0.360000 -1.000000 3.280000
v 0.840000 -1.000000 5.060000
v 0.200000 1.000000 0.060000
v 0.040000 1.000000 0.200000
v -0.040000 1.000000 0.560000
v 0.040000 1.000000 1.720000
v 0.360000 1.000000 3.280000
v 0.841580 -0.995949 4.854890
v 0.792000 1.000000 4.882000
v 0.281000 1.000000 3.443000
v 4.690301 -0.259550 7.354560
v 0.281000 -1.000000 3.443000
v 4.790310 1.071334 7.307687
v 4.000000 1.000000 5.802500
v 3.000000 1.000000 4.597000
v 2.000000 1.000000 4.256500
v 1.000000 1.000000 3.829500
v 0.424800 1.000000 3.520300
v 0.424800 -1.000000 3.520300
v 0.160000 -1.000000 3.030000
v 4.810000 1.000000 6.150000
v 0.160000 1.000000 3.030000
v 4.739236 -0.234045 6.195823
v 4.000000 1.000000 5.400000
v 3.000000 1.000000 4.200000
v 2.000000 1.000000 3.900000
v 1.000000 1.000000 3.500000
v 0.328000 -1.000000 3.124000
v 0.328000 1.000000 3.124000
v 6.080571 1.000000 8.629862
v 6.080571 -1.000000 8.629862
v 6.050571 1.000000 8.509863
v 6.050571 -1.000000 8.509863
v 7.061138 1.000000 9.059711
v 7.061138 -1.000000 9.059711
v 7.031138 1.000000 8.939712
v 7.031138 -1.000000 8.939712
v 8.041706 1.000000 9.289559
v 8.041706 -1.000000 9.289559
v 8.011705 1.000000 9.169559
v 8.011705 -1.000000 9.169559
v 9.022272 1.000000 9.219408
v 9.022272 -1.000000 9.219408
v 8.992271 1.000000 9.099408
v 8.992271 -1.000000 9.099408
v 4.044001 0.145993 1.642712
v 3.051869 0.171496 1.318638
v 2.059737 0.196999 0.994565
v 1.070121 0.230845 0.570872
v 4.018834 0.062552 2.638907
v 3.026702 0.088055 2.314833
v 2.034570 0.113557 1.990759
v 1.044955 0.147404 1.567066
v 3.993668 -0.020889 3.635102
v 3.001536 0.004613 3.311028
v 2.009404 0.030116 2.986955
v 1.019788 0.063963 2.563262
v 3.943335 -0.187772 5.627492
v 2.976370 -0.078828 4.307223
v 1.984237 -0.053325 3.983150
v 0.994622 -0.019478 3.559456
v 0.997139 -0.011134 3.459837
v 1.986754 -0.044981 3.883530
v 2.978886 -0.070484 4.207604
v 3.948369 -0.171083 5.428253
v 0.988846 -0.038628 3.788083
v 0.956117 -0.147143 5.083634
v 1.977782 -0.074728 4.238673
v 1.933653 -0.221042 5.985502
v 2.968895 -0.103610 4.603093
v 2.913957 -0.285762 6.777787
v 3.938239 -0.204669 5.829222
v 3.896777 -0.342138 7.470453
v 4.950583 -0.395209 8.125035
v 0.283966 0.276280 0.012754
v 0.120493 0.264674 0.148187
v 0.031459 0.234672 0.504800
v 0.082240 0.137843 1.662403
v 0.362879 0.007524 3.224536
v 0.804665 -0.120077 4.805915
v 0.421611 -0.012557 3.465556
v 0.334815 0.020556 3.068323
v 10.292414 1.000000 8.976871
v 10.292414 -1.000000 8.976871
v 9.962414 1.000000 8.956870
v 9.962414 -1.000000 8.956870
vt 0.865000 0.745000
vt 0.875000 0.745000
vt 0.875000 0.750000
vt 0.865000 0.750000
vt 0.375000 0.990000
vt 0.625000 0.990000
vt 0.625000 1.000000
vt 0.375000 1.000000
vt 0.375000 0.200000
vt 0.625000 0.200000
vt 0.625000 0.250000
vt 0.375000 0.250000
vt 0.325000 0.745000
vt 0.375000 0.745000
vt 0.375000 0.750000
vt 0.325000 0.750000
vt 0.625000 0.750000
vt 0.375000 0.750000
vt 0.625000 0.750000
vt 0.375000 0.450000
vt 0.625000 0.450000
vt 0.625000 0.500000
vt 0.375000 0.500000
vt 0.625000 0.550000
vt 0.375000 0.550000
vt 0.625000 0.600000
vt 0.375000 0.600000
vt 0.625000 0.650000
vt 0.375000 0.650000
vt 0.375000 0.695000
vt 0.625000 0.695000
vt 0.625000 0.700000
vt 0.375000 0.700000
vt 0.375000 0.043250
vt 0.625000 0.043250
vt 0.625000 0.050000
vt 0.375000 0.050000
vt 0.375000 0.055000
vt 0.625000 0.055000
vt 0.625000 0.100000
vt 0.375000 0.100000
vt 0.625000 0.150000
vt 0.375000 0.150000
vt 0.865000 0.500000
vt 0.875000 0.500000
vt 0.875000 0.550000
vt 0.865000 0.550000
vt 0.875000 0.600000
vt 0.865000 0.600000
vt 0.875000 0.650000
vt 0.865000 0.650000
vt 0.865000 0.695000
vt 0.875000 0.695000
vt 0.875000 0.700000
vt 0.865000 0.700000
vt 0.675000 0.695000
vt 0.675000 0.700000
vt 0.725000 0.695000
vt 0.725000 0.700000
vt 0.775000 0.695000
vt 0.775000 0.700000
vt 0.825000 0.695000
vt 0.825000 0.700000
vt 0.675000 0.600000
vt 0.675000 0.650000
vt 0.725000 0.600000
vt 0.725000 0.650000
vt 0.775000 0.600000
vt 0.775000 0.650000
vt 0.825000 0.600000
vt 0.825000 0.650000
vt 0.675000 0.550000
vt 0.725000 0.550000
vt 0.775000 0.550000
vt 0.825000 0.550000
vt 0.675000 0.500000
vt 0.725000 0.500000
vt 0.775000 0.500000
vt 0.825000 0.500000
vt 0.325000 0.745000
vt 0.375000 0.745000
vt 0.135000 0.650000
vt 0.135000 0.600000
vt 0.135000 0.600000
vt 0.135000 0.650000
vt 0.175000 0.745000
vt 0.135000 0.745000
vt 0.135000 0.745000
vt 0.175000 0.745000
vt 0.135000 0.550000
vt 0.135000 0.550000
vt 0.135000 0.706750
vt 0.135000 0.700000
vt 0.135000 0.700000
vt 0.135000 0.706750
vt 0.135000 0.500000
vt 0.135000 0.500000
vt 0.375000 0.260000
vt 0.625000 0.260000
vt 0.625000 0.300000
vt 0.375000 0.300000
vt 0.625000 0.350000
vt 0.375000 0.350000
vt 0.625000 0.400000
vt 0.375000 0.400000
vt 0.175000 0.750000
vt 0.135000 0.750000
vt 0.225000 0.745000
vt 0.225000 0.750000
vt 0.275000 0.745000
vt 0.275000 0.750000
vt 0.625000 0.800000
vt 0.375000 0.800000
vt 0.625000 0.850000
vt 0.375000 0.850000
vt 0.625000 0.900000
vt 0.375000 0.900000
vt 0.625000 0.950000
vt 0.375000 0.950000
vt 0.625000 0.745000
vt 0.675000 0.745000
vt 0.675000 0.750000
vt 0.725000 0.745000
vt 0.725000 0.750000
vt 0.775000 0.745000
vt 0.775000 0.750000
vt 0.825000 0.745000
vt 0.825000 0.750000
vt 0.775000 0.706750
vt 0.825000 0.706750
vt 0.725000 0.706750
vt 0.675000 0.706750
vt 0.625000 0.706750
vt 0.225000 0.745000
vt 0.375000 0.000000
vt 0.625000 0.000000
vt 0.625000 0.005000
vt 0.375000 0.005000
vt 0.375000 0.706750
vt 0.135000 0.695000
vt 0.135000 0.695000
vt 0.865000 0.706750
vt 0.875000 0.706750
vt 0.125000 0.706750
vt 0.125000 0.745000
vt 0.125000 0.750000
vt 0.125000 0.500000
vt 0.125000 0.550000
vt 0.125000 0.600000
vt 0.125000 0.650000
vt 0.125000 0.695000
vt 0.125000 0.700000
vt 0.275000 0.745000
vt 0.375000 0.750000
vt 0.625000 0.750000
vt 0.375000 0.745000
vt 0.625000 0.745000
vt 0.375000 0.745000
vt 0.625000 0.745000
vt 0.625000 0.745000
vt 0.375000 0.745000
vt 0.375000 0.750000
vt 0.375000 0.745000
vt 0.375000 0.750000
vt 0.625000 0.750000
vt 0.625000 0.745000
vt 0.625000 0.745000
vt 0.375000 0.745000
vt 0.625000 0.750000
vt 0.325000 0.500000
vt 0.325000 0.550000
vt 0.325000 0.600000
vt 0.325000 0.650000
vt 0.325000 0.695000
vt 0.325000 0.700000
vt 0.175000 0.695000
vt 0.175000 0.700000
vt 0.225000 0.695000
vt 0.225000 0.700000
vt 0.275000 0.695000
vt 0.275000 0.700000
vt 0.175000 0.600000
vt 0.175000 0.650000
vt 0.225000 0.600000
vt 0.225000 0.650000
vt 0.275000 0.600000
vt 0.275000 0.650000
vt 0.175000 0.550000
vt 0.225000 0.550000
vt 0.275000 0.550000
vt 0.175000 0.500000
vt 0.225000 0.500000
vt 0.275000 0.500000
vt 0.275000 0.706750
vt 0.325000 0.706750
vt 0.225000 0.706750
vt 0.175000 0.706750
vt 0.625000 0.750000
vt 0.375000 0.750000
vn 0.0000 1.0000 0.0000
vn -0.8320 0.0000 0.5547
vn -0.4472 0.0000 -0.8944
vn 0.0000 -1.0000 -0.0000
vn -0.4403 0.0000 0.8979
vn 0.4335 0.2601 -0.8628
vn 0.5546 0.5869 -0.5899
vn 0.6690 0.6439 -0.3712
vn 0.8246 0.4881 -0.2861
vn 0.9770 -0.0532 0.2064
vn -0.9487 0.0000 0.3162
vn -0.9734 0.0000 0.2290
vn -0.9965 0.0000 0.0830
vn -0.8944 0.0000 -0.4472
vn -0.0202 0.9998 -0.0042
vn -0.0070 0.9999 -0.0098
vn 0.0717 0.9925 -0.0990
vn 0.0267 0.9989 -0.0381
vn 0.0000 0.9989 -0.0463
vn 0.5153 0.1348 -0.8464
vn 0.9970 -0.0506 -0.0584
vn 0.8726 0.0139 -0.4883
vn 0.9726 -0.0494 0.2273
vn 0.9684 -0.0136 -0.2491
vn 0.6485 -0.0123 0.7611
vn -0.0624 0.0149 -0.9979
vn 0.3224 0.0645 -0.9444
vn 0.2991 0.0153 -0.9541
vn 0.3336 0.0333 -0.9421
vn 0.0047 -0.9999 -0.0108
vn -0.4472 0.0000 0.8944
vn -0.5145 0.0000 0.8575
vn -0.6247 0.0000 0.7809
vn -0.6690 0.0000 0.7433
vn -0.0829 0.9958 0.0389
vn 0.6696 0.0130 -0.7426
vn 0.9080 -0.0331 -0.4177
vn 0.9812 -0.0323 -0.1901
vn 0.0186 -0.9998 -0.0045
vn 0.0397 -0.9991 -0.0165
vn 0.2873 0.0000 -0.9578
vn 0.0778 0.9903 -0.1152
vn -0.8321 0.0000 0.5547
vn 0.9890 -0.0742 -0.1282
vn 0.6196 0.0492 -0.7834
vn 0.9581 0.0047 -0.2863
vn 0.1299 0.9863 -0.1013
vn 0.5659 0.0889 -0.8197
vn -0.0135 0.9999 0.0043
vn 0.9818 -0.0151 -0.1895
vn 0.9512 0.1752 0.2540
vn -0.4015 0.0000 0.9159
vn 0.4015 0.0000 -0.9159
vn 0.2282 0.0000 -0.9736
vn -0.2282 0.0000 0.9736
vn -0.1454 0.0000 -0.9894
vn 0.0714 0.0000 0.9975
vn -0.0714 0.0000 -0.9975
vn 0.0016 -0.9965 -0.0834
vn -0.0790 -0.9964 0.0302
vn 0.0005 -0.9993 -0.0372
vn -0.0061 -0.9967 -0.0809
vn 0.0855 -0.9891 -0.1198
vn -0.1308 -0.9913 0.0154
vn 0.0605 0.0000 -0.9982
vn 0.1876 0.0000 0.9823
usemtl Material
s off
f 82/1/1 59/2/1 7/3/1 70/4/1
f 75/5/2 70/6/2 7/7/2 8/8/2
f 9/9/3 20/10/3 5/11/3 6/12/3
f 64/13/4 60/14/4 4/15/4 36/16/4
f 3/17/5 4/15/5 104/18/5 103/19/5
f 25/20/6 40/21/6 1/22/6 2/23/6
f 2/23/7 1/22/7 13/24/7 24/25/7
f 24/25/8 13/24/8 14/26/8 23/27/8
f 23/27/9 14/26/9 15/28/9 22/29/9
f 96/30/10 94/31/10 16/32/10 21/33/10
f 85/34/11 83/35/11 17/36/11 12/37/11
f 93/38/12 95/39/12 18/40/12 11/41/12
f 11/41/13 18/40/13 19/42/13 10/43/13
f 10/43/14 19/42/14 20/10/14 9/9/14
f 76/44/1 5/45/1 20/46/1 77/47/1
f 77/47/1 20/46/1 19/48/1 78/49/1
f 78/49/1 19/48/1 18/50/1 79/51/1
f 102/52/1 95/53/1 17/54/1 80/55/1
f 94/31/1 97/56/1 56/57/1 16/32/1
f 97/56/1 98/58/1 55/59/1 56/57/1
f 98/58/1 99/60/1 54/61/1 55/59/1
f 99/60/1 100/62/1 53/63/1 54/61/1
f 14/26/15 48/64/15 52/65/15 15/28/15
f 48/64/1 47/66/1 51/67/1 52/65/1
f 47/66/1 46/68/1 50/69/1 51/67/1
f 46/68/1 45/70/1 49/71/1 50/69/1
f 13/24/16 44/72/16 48/64/16 14/26/16
f 44/72/1 43/73/1 47/66/1 48/64/1
f 43/73/1 42/74/1 46/68/1 47/66/1
f 42/74/1 41/75/1 45/70/1 46/68/1
f 1/22/17 40/76/17 44/72/17 13/24/17
f 40/76/18 39/77/18 43/73/18 44/72/18
f 39/77/1 38/78/1 42/74/1 43/73/1
f 38/78/19 37/79/19 41/75/19 42/74/19
f 60/14/20 64/13/20 146/80/20 147/81/20
f 73/82/21 72/83/21 150/84/21 151/85/21
f 61/86/22 81/87/22 153/88/22 140/89/22
f 72/83/23 71/90/23 149/91/23 150/84/23
f 92/92/24 74/93/24 152/94/24 154/95/24
f 71/90/25 69/96/25 148/97/25 149/91/25
f 69/98/26 76/99/26 37/100/26 28/101/26
f 28/101/27 37/100/27 38/102/27 27/103/27
f 27/103/28 38/102/28 39/104/28 26/105/28
f 26/105/29 39/104/29 40/21/29 25/20/29
f 81/87/30 61/86/30 33/106/30 75/107/30
f 61/86/4 62/108/4 34/109/4 33/106/4
f 62/108/4 63/110/4 35/111/4 34/109/4
f 63/110/4 64/13/4 36/16/4 35/111/4
f 4/15/31 3/17/31 29/112/31 36/113/31
f 36/113/32 29/112/32 30/114/32 35/115/32
f 35/115/33 30/114/33 31/116/33 34/117/33
f 34/117/34 31/116/34 32/118/34 33/119/34
f 58/120/1 65/121/1 29/122/1 3/17/1
f 65/121/1 66/123/1 30/124/1 29/122/1
f 66/123/1 67/125/1 31/126/1 30/124/1
f 67/125/1 68/127/1 32/128/1 31/126/1
f 89/129/1 90/130/1 68/127/1 67/125/1
f 88/131/1 89/129/1 67/125/1 66/123/1
f 87/132/1 88/131/1 66/123/1 65/121/1
f 86/133/35 87/132/35 65/121/35 58/120/35
f 62/108/36 61/86/36 140/89/36 142/134/36
f 8/135/11 7/136/11 59/137/11 57/138/11
f 84/139/37 86/133/37 58/120/37 60/14/37
f 101/140/38 73/82/38 151/85/38 155/141/38
f 91/142/1 83/143/1 59/2/1 82/1/1
f 90/130/1 91/142/1 82/1/1 68/127/1
f 85/144/39 92/92/39 81/87/39 57/145/39
f 57/145/40 81/87/40 75/107/40 8/146/40
f 6/12/41 5/11/41 76/99/41 69/98/41
f 6/147/4 69/96/4 71/90/4 9/148/4
f 9/148/4 71/90/4 72/83/4 10/149/4
f 10/149/4 72/83/4 73/82/4 11/150/4
f 93/151/4 101/140/4 74/93/4 12/152/4
f 100/62/1 102/52/1 80/55/1 53/63/1
f 45/70/1 78/49/1 79/51/1 49/71/1
f 41/75/1 77/47/1 78/49/1 45/70/1
f 37/79/42 76/44/42 77/47/42 41/75/42
f 33/119/43 32/118/43 70/6/43 75/5/43
f 68/127/1 82/1/1 70/4/1 32/128/1
f 12/152/4 74/93/4 92/92/4 85/144/4
f 53/63/1 80/55/1 91/142/1 90/130/1
f 80/55/1 17/54/1 83/143/1 91/142/1
f 21/33/44 16/32/44 86/133/44 84/139/44
f 63/110/45 62/108/45 142/134/45 144/153/45
f 81/87/46 92/92/46 154/95/46 153/88/46
f 16/32/47 56/57/47 87/132/47 86/133/47
f 56/57/1 55/59/1 88/131/1 87/132/1
f 55/59/1 54/61/1 89/129/1 88/131/1
f 54/61/1 53/63/1 90/130/1 89/129/1
f 57/138/11 59/137/11 83/35/11 85/34/11
f 49/71/1 79/51/1 102/52/1 100/62/1
f 11/150/4 73/82/4 101/140/4 93/151/4
f 64/13/48 63/110/48 144/153/48 146/80/48
f 50/69/1 49/71/1 100/62/1 99/60/1
f 51/67/1 50/69/1 99/60/1 98/58/1
f 52/65/1 51/67/1 98/58/1 97/56/1
f 15/28/49 52/65/49 97/56/49 94/31/49
f 79/51/1 18/50/1 95/53/1 102/52/1
f 12/37/12 17/36/12 95/39/12 93/38/12
f 74/93/50 101/140/50 155/141/50 152/94/50
f 22/29/51 15/28/51 94/31/51 96/30/51
f 103/19/52 104/18/52 108/154/52 107/155/52
f 4/15/4 60/14/4 106/156/4 104/18/4
f 58/120/1 3/17/1 103/19/1 105/157/1
f 60/14/53 58/120/53 105/157/53 106/156/53
f 110/158/54 109/159/54 113/160/54 114/161/54
f 106/156/53 105/157/53 109/159/53 110/158/53
f 105/157/1 103/19/1 107/155/1 109/159/1
f 104/18/4 106/156/4 110/158/4 108/154/4
f 112/162/4 114/161/4 118/163/4 116/164/4
f 109/159/1 107/155/1 111/165/1 113/160/1
f 108/154/4 110/158/4 114/161/4 112/162/4
f 107/155/55 108/154/55 112/162/55 111/165/55
f 118/163/56 117/166/56 158/167/56 159/168/56
f 111/165/57 112/162/57 116/164/57 115/169/57
f 114/161/58 113/160/58 117/166/58 118/163/58
f 113/160/1 111/165/1 115/169/1 117/166/1
f 25/170/59 2/23/59 24/25/59 119/171/59
f 119/171/59 24/25/59 23/27/59 123/172/59
f 123/172/59 23/27/59 22/29/59 127/173/59
f 138/174/59 96/30/59 21/33/59 131/175/59
f 155/141/59 135/176/59 134/177/59 152/94/59
f 135/176/59 136/178/59 133/179/59 134/177/59
f 136/178/59 137/180/59 132/181/59 133/179/59
f 137/180/59 138/174/59 131/175/59 132/181/59
f 150/84/59 126/182/59 130/183/59 151/85/59
f 126/182/59 125/184/59 129/185/59 130/183/59
f 125/184/59 124/186/59 128/187/59 129/185/59
f 124/186/59 123/172/59 127/173/59 128/187/59
f 149/91/59 122/188/59 126/182/59 150/84/59
f 122/188/59 121/189/59 125/184/59 126/182/59
f 121/189/59 120/190/59 124/186/59 125/184/59
f 120/190/59 119/171/59 123/172/59 124/186/59
f 148/97/60 28/191/60 122/188/60 149/91/60
f 28/191/61 27/192/61 121/189/61 122/188/61
f 27/192/59 26/193/59 120/190/59 121/189/59
f 26/193/59 25/170/59 119/171/59 120/190/59
f 143/194/59 145/195/59 146/80/59 144/153/59
f 141/196/59 143/194/59 144/153/59 142/134/59
f 139/197/59 141/196/59 142/134/59 140/89/59
f 154/95/62 139/197/62 140/89/62 153/88/62
f 145/195/63 84/139/63 147/81/63 146/80/63
f 131/175/64 21/33/64 84/139/64 145/195/64
f 152/94/59 134/177/59 139/197/59 154/95/59
f 134/177/59 133/179/59 141/196/59 139/197/59
f 133/179/59 132/181/59 143/194/59 141/196/59
f 132/181/59 131/175/59 145/195/59 143/194/59
f 128/187/59 127/173/59 138/174/59 137/180/59
f 129/185/59 128/187/59 137/180/59 136/178/59
f 130/183/59 129/185/59 136/178/59 135/176/59
f 151/85/59 130/183/59 135/176/59 155/141/59
f 127/173/59 22/29/59 96/30/59 138/174/59
f 159/168/65 158/167/65 156/198/65 157/199/65
f 117/166/1 115/169/1 156/198/1 158/167/1
f 116/164/4 118/163/4 159/168/4 157/199/4
f 115/169/66 116/164/66 157/199/66 156/198/66
