# Blender v2.82 (sub 7) OBJ File: 'Bucket Plastic.blend'
# www.blender.org
mtllib Bucket Plastic.mtl
o Cube
v 5.000000 1.000000 1.500000
v 5.000220 0.000000 1.499921
v 5.000000 1.000000 8.100000
v 5.000000 -1.000000 8.100000
v 0.000000 1.000000 0.000000
v 0.000000 -1.000000 0.000000
v 0.800000 1.000000 5.000000
v 0.800000 -1.000000 5.000000
v -0.200000 -1.000000 0.100000
v -0.300000 -1.000000 0.300000
v -0.200000 -1.000000 1.500000
v 0.200000 -1.000000 3.200000
v 5.600000 1.000000 1.981099
v 5.800000 1.000000 2.500000
v 5.800000 1.000000 3.000000
v 4.700000 1.000000 6.700000
v 0.200000 1.000000 3.200000
v -0.200000 1.000000 1.500000
v -0.300000 1.000000 0.300000
v -0.200000 1.000000 0.100000
v 4.700221 0.000000 6.699921
v 5.800220 0.000000 2.999921
v 5.800220 0.000000 2.499921
v 5.600221 0.000000 1.981020
v 4.000221 0.000000 1.199921
v 3.000221 0.000000 0.899921
v 2.000220 0.000000 0.599921
v 0.402359 -0.042798 0.076410
v 4.000000 1.000000 7.600000
v 3.000000 1.000000 7.000000
v 2.000000 1.000000 6.200000
v 1.000000 1.000000 5.300000
v 1.000000 -1.000000 5.300000
v 2.000000 -1.000000 6.200000
v 3.000000 -1.000000 7.000000
v 4.000000 -1.000000 7.600000
v 0.402139 0.957202 0.076489
v 2.000000 1.000000 0.600000
v 3.000000 1.000000 0.900000
v 4.000000 1.000000 1.200000
v 1.000000 1.000000 0.600000
v 2.000000 1.000000 1.000000
v 3.000000 1.000000 1.300000
v 4.000000 1.000000 1.600000
v 1.000000 1.000000 1.600000
v 2.000000 1.000000 2.000000
v 3.000000 1.000000 2.300000
v 4.000000 1.000000 2.600000
v 1.000000 1.000000 2.600000
v 2.000000 1.000000 3.000000
v 3.000000 1.000000 3.300000
v 4.000000 1.000000 3.600000
v 1.000000 1.000000 3.600000
v 2.000000 1.000000 4.000000
v 3.000000 1.000000 4.300000
v 4.000000 1.000000 5.600000
v 0.740000 -1.000000 4.820000
v 5.070000 1.000000 8.080000
v 0.740000 1.000000 4.820000
v 5.070000 -1.000000 8.080000
v 1.000000 -1.000000 5.130000
v 2.000000 -1.000000 6.010001
v 3.000000 -1.000000 6.780000
v 4.000000 -1.000000 7.450001
v 4.000000 1.000000 7.450001
v 3.000000 1.000000 6.780000
v 2.000000 1.000000 6.010001
v 1.000000 1.000000 5.130000
v 0.200000 -1.000000 0.060000
v 0.840000 1.000000 5.060000
v 0.040000 -1.000000 0.200000
v -0.040000 -1.000000 0.560000
v 0.040000 -1.000000 1.720000
v 0.360000 -1.000000 3.280000
v 0.840000 -1.000000 5.060000
v 0.200000 1.000000 0.060000
v 0.040000 1.000000 0.200000
v -0.040000 1.000000 0.560000
v 0.040000 1.000000 1.720000
v 0.360000 1.000000 3.280000
v 0.841580 -0.995949 4.854890
v 0.792000 1.000000 4.882000
v 0.281000 1.000000 3.443000
v 4.790531 0.071334 7.307608
v 0.281000 -1.000000 3.443000
v 4.790310 1.071334 7.307687
v 4.000000 1.000000 5.802500
v 3.000000 1.000000 4.597000
v 2.000000 1.000000 4.256500
v 1.000000 1.000000 3.829500
v 0.424800 1.000000 3.520300
v 0.424800 -1.000000 3.520300
v 0.160000 -1.000000 3.030000
v 4.810000 1.000000 6.150000
v 0.160000 1.000000 3.030000
v 4.810221 0.000000 6.149921
v 4.000000 1.000000 5.400000
v 3.000000 1.000000 4.200000
v 2.000000 1.000000 3.900000
v 1.000000 1.000000 3.500000
v 0.328000 -1.000000 3.124000
v 0.328000 1.000000 3.124000
v 6.080571 1.000000 8.629862
v 6.080571 -1.000000 8.629862
v 6.050571 1.000000 8.509863
v 6.050571 -1.000000 8.509863
v 7.061138 1.000000 9.059711
v 7.061138 -1.000000 9.059711
v 7.031138 1.000000 8.939712
v 7.031138 -1.000000 8.939712
v 8.041706 1.000000 9.289559
v 8.041706 -1.000000 9.289559
v 8.011705 1.000000 9.169559
v 8.011705 -1.000000 9.169559
v 9.022272 1.000000 9.219408
v 9.022272 -1.000000 9.219408
v 8.992271 1.000000 9.099408
v 8.992271 -1.000000 9.099408
v 4.000221 0.000000 1.599921
v 3.000221 0.000000 1.299921
v 2.000220 0.000000 0.999921
v 1.000221 0.000000 0.599921
v 4.000221 0.000000 2.599921
v 3.000221 0.000000 2.299921
v 2.000220 0.000000 1.999921
v 1.000221 0.000000 1.599921
v 4.000221 0.000000 3.599921
v 3.000221 0.000000 3.299922
v 2.000220 0.000000 2.999921
v 1.000221 0.000000 2.599921
v 4.000221 0.000000 5.599921
v 3.000221 0.000000 4.299922
v 2.000220 0.000000 3.999921
v 1.000221 0.000000 3.599921
v 1.000221 0.000000 3.499922
v 2.000220 0.000000 3.899921
v 3.000221 0.000000 4.199922
v 4.000221 0.000000 5.399921
v 1.000221 0.000000 3.829422
v 1.000221 0.000000 5.129921
v 2.000220 0.000000 4.256421
v 2.000220 0.000000 6.009922
v 3.000221 0.000000 4.596921
v 3.000221 0.000000 6.779922
v 4.000221 0.000000 5.802422
v 4.000221 0.000000 7.449922
v 5.070221 0.000000 8.079921
v 0.200221 0.000000 0.059921
v 0.040220 0.000000 0.199921
v -0.039780 0.000000 0.559921
v 0.040221 0.000000 1.719921
v 0.360220 0.000000 3.279922
v 0.841801 0.004051 4.854811
v 0.425020 0.000000 3.520221
v 0.328220 0.000000 3.123921
v 10.292414 1.000000 8.976871
v 10.292414 -1.000000 8.976871
v 9.962414 1.000000 8.956870
v 9.962414 -1.000000 8.956870
vt 0.865000 0.745000
vt 0.875000 0.745000
vt 0.875000 0.750000
vt 0.865000 0.750000
vt 0.375000 0.990000
vt 0.625000 0.990000
vt 0.625000 1.000000
vt 0.375000 1.000000
vt 0.375000 0.200000
vt 0.625000 0.200000
vt 0.625000 0.250000
vt 0.375000 0.250000
vt 0.325000 0.745000
vt 0.375000 0.745000
vt 0.375000 0.750000
vt 0.325000 0.750000
vt 0.625000 0.750000
vt 0.375000 0.750000
vt 0.625000 0.750000
vt 0.375000 0.450000
vt 0.625000 0.450000
vt 0.625000 0.500000
vt 0.375000 0.500000
vt 0.625000 0.550000
vt 0.375000 0.550000
vt 0.625000 0.600000
vt 0.375000 0.600000
vt 0.625000 0.650000
vt 0.375000 0.650000
vt 0.375000 0.695000
vt 0.625000 0.695000
vt 0.625000 0.700000
vt 0.375000 0.700000
vt 0.375000 0.043250
vt 0.625000 0.043250
vt 0.625000 0.050000
vt 0.375000 0.050000
vt 0.375000 0.055000
vt 0.625000 0.055000
vt 0.625000 0.100000
vt 0.375000 0.100000
vt 0.625000 0.150000
vt 0.375000 0.150000
vt 0.865000 0.500000
vt 0.875000 0.500000
vt 0.875000 0.550000
vt 0.865000 0.550000
vt 0.875000 0.600000
vt 0.865000 0.600000
vt 0.875000 0.650000
vt 0.865000 0.650000
vt 0.865000 0.695000
vt 0.875000 0.695000
vt 0.875000 0.700000
vt 0.865000 0.700000
vt 0.675000 0.695000
vt 0.675000 0.700000
vt 0.725000 0.695000
vt 0.725000 0.700000
vt 0.775000 0.695000
vt 0.775000 0.700000
vt 0.825000 0.695000
vt 0.825000 0.700000
vt 0.675000 0.600000
vt 0.675000 0.650000
vt 0.725000 0.600000
vt 0.725000 0.650000
vt 0.775000 0.600000
vt 0.775000 0.650000
vt 0.825000 0.600000
vt 0.825000 0.650000
vt 0.675000 0.550000
vt 0.725000 0.550000
vt 0.775000 0.550000
vt 0.825000 0.550000
vt 0.675000 0.500000
vt 0.725000 0.500000
vt 0.775000 0.500000
vt 0.825000 0.500000
vt 0.325000 0.745000
vt 0.375000 0.745000
vt 0.135000 0.650000
vt 0.135000 0.600000
vt 0.135000 0.600000
vt 0.135000 0.650000
vt 0.175000 0.745000
vt 0.135000 0.745000
vt 0.135000 0.745000
vt 0.175000 0.745000
vt 0.135000 0.550000
vt 0.135000 0.550000
vt 0.135000 0.706750
vt 0.135000 0.700000
vt 0.135000 0.700000
vt 0.135000 0.706750
vt 0.135000 0.500000
vt 0.135000 0.500000
vt 0.375000 0.260000
vt 0.625000 0.260000
vt 0.625000 0.300000
vt 0.375000 0.300000
vt 0.625000 0.350000
vt 0.375000 0.350000
vt 0.625000 0.400000
vt 0.375000 0.400000
vt 0.175000 0.750000
vt 0.135000 0.750000
vt 0.225000 0.745000
vt 0.225000 0.750000
vt 0.275000 0.745000
vt 0.275000 0.750000
vt 0.625000 0.800000
vt 0.375000 0.800000
vt 0.625000 0.850000
vt 0.375000 0.850000
vt 0.625000 0.900000
vt 0.375000 0.900000
vt 0.625000 0.950000
vt 0.375000 0.950000
vt 0.625000 0.745000
vt 0.675000 0.745000
vt 0.675000 0.750000
vt 0.725000 0.745000
vt 0.725000 0.750000
vt 0.775000 0.745000
vt 0.775000 0.750000
vt 0.825000 0.745000
vt 0.825000 0.750000
vt 0.775000 0.706750
vt 0.825000 0.706750
vt 0.725000 0.706750
vt 0.675000 0.706750
vt 0.625000 0.706750
vt 0.225000 0.745000
vt 0.375000 0.000000
vt 0.625000 0.000000
vt 0.625000 0.005000
vt 0.375000 0.005000
vt 0.375000 0.706750
vt 0.135000 0.695000
vt 0.135000 0.695000
vt 0.865000 0.706750
vt 0.875000 0.706750
vt 0.125000 0.706750
vt 0.125000 0.745000
vt 0.125000 0.750000
vt 0.125000 0.500000
vt 0.125000 0.550000
vt 0.125000 0.600000
vt 0.125000 0.650000
vt 0.125000 0.695000
vt 0.125000 0.700000
vt 0.275000 0.745000
vt 0.375000 0.750000
vt 0.625000 0.750000
vt 0.375000 0.745000
vt 0.625000 0.745000
vt 0.375000 0.745000
vt 0.625000 0.745000
vt 0.625000 0.745000
vt 0.375000 0.745000
vt 0.375000 0.750000
vt 0.375000 0.745000
vt 0.375000 0.750000
vt 0.625000 0.750000
vt 0.625000 0.745000
vt 0.625000 0.745000
vt 0.375000 0.745000
vt 0.625000 0.750000
vt 0.325000 0.500000
vt 0.325000 0.550000
vt 0.325000 0.600000
vt 0.325000 0.650000
vt 0.325000 0.695000
vt 0.325000 0.700000
vt 0.175000 0.695000
vt 0.175000 0.700000
vt 0.225000 0.695000
vt 0.225000 0.700000
vt 0.275000 0.695000
vt 0.275000 0.700000
vt 0.175000 0.600000
vt 0.175000 0.650000
vt 0.225000 0.600000
vt 0.225000 0.650000
vt 0.275000 0.600000
vt 0.275000 0.650000
vt 0.175000 0.550000
vt 0.225000 0.550000
vt 0.275000 0.550000
vt 0.175000 0.500000
vt 0.225000 0.500000
vt 0.275000 0.500000
vt 0.275000 0.706750
vt 0.325000 0.706750
vt 0.225000 0.706750
vt 0.175000 0.706750
vt 0.625000 0.750000
vt 0.375000 0.750000
vn 0.0000 1.0000 0.0000
vn -0.8320 0.0000 0.5547
vn -0.4472 0.0000 -0.8944
vn 0.0000 -1.0000 -0.0000
vn -0.4403 0.0000 0.8979
vn 0.2873 0.0001 -0.9578
vn 0.6256 0.0002 -0.7802
vn 0.9331 0.0002 -0.3596
vn 1.0000 0.0002 0.0000
vn 0.9806 0.0002 0.1961
vn -0.9487 0.0000 0.3162
vn -0.9734 0.0000 0.2290
vn -0.9965 0.0000 0.0830
vn -0.8944 0.0000 -0.4472
vn 0.0000 0.9989 -0.0463
vn 0.5074 -0.0002 -0.8617
vn 0.9976 -0.0002 -0.0688
vn 0.8666 -0.0002 -0.4990
vn 0.9762 -0.0002 0.2169
vn 0.9655 -0.0002 -0.2604
vn 0.6585 -0.0001 0.7526
vn 0.0810 0.0000 -0.9967
vn 0.3113 0.0001 -0.9503
vn 0.0047 -0.9999 -0.0108
vn -0.4472 0.0000 0.8944
vn -0.5145 0.0000 0.8575
vn -0.6247 0.0000 0.7809
vn -0.6690 0.0000 0.7433
vn -0.0829 0.9958 0.0389
vn 0.6606 -0.0002 -0.7507
vn 0.9403 0.0001 -0.3403
vn 0.9796 -0.0002 -0.2009
vn 0.0186 -0.9998 -0.0045
vn 0.0397 -0.9991 -0.0165
vn 0.2873 0.0000 -0.9578
vn 0.0778 0.9903 -0.1152
vn -0.8321 0.0000 0.5547
vn 0.9891 0.0002 -0.1470
vn 0.6101 -0.0002 -0.7923
vn 0.9545 -0.0002 -0.2981
vn 0.1299 0.9863 -0.1013
vn 0.5566 -0.0002 -0.8308
vn 0.9540 0.0002 0.2998
vn -0.4015 0.0000 0.9159
vn 0.4015 0.0000 -0.9159
vn 0.2282 0.0000 -0.9736
vn -0.2282 0.0000 0.9736
vn -0.1454 0.0000 -0.9894
vn 0.0714 0.0000 0.9975
vn -0.0714 0.0000 -0.9975
vn -0.0778 -0.9903 0.1152
vn 0.0000 -0.9989 0.0463
vn -0.0077 -1.0000 0.0028
vn 0.0829 -0.9958 -0.0389
vn -0.1299 -0.9863 0.1013
vn 0.0605 0.0000 -0.9982
vn 0.1876 0.0000 0.9823
usemtl Material
s off
f 82/1/1 59/2/1 7/3/1 70/4/1
f 75/5/2 70/6/2 7/7/2 8/8/2
f 9/9/3 20/10/3 5/11/3 6/12/3
f 64/13/4 60/14/4 4/15/4 36/16/4
f 3/17/5 4/15/5 104/18/5 103/19/5
f 25/20/6 40/21/6 1/22/6 2/23/6
f 2/23/7 1/22/7 13/24/7 24/25/7
f 24/25/8 13/24/8 14/26/8 23/27/8
f 23/27/9 14/26/9 15/28/9 22/29/9
f 96/30/10 94/31/10 16/32/10 21/33/10
f 85/34/11 83/35/11 17/36/11 12/37/11
f 93/38/12 95/39/12 18/40/12 11/41/12
f 11/41/13 18/40/13 19/42/13 10/43/13
f 10/43/14 19/42/14 20/10/14 9/9/14
f 76/44/1 5/45/1 20/46/1 77/47/1
f 77/47/1 20/46/1 19/48/1 78/49/1
f 78/49/1 19/48/1 18/50/1 79/51/1
f 102/52/1 95/53/1 17/54/1 80/55/1
f 94/31/1 97/56/1 56/57/1 16/32/1
f 97/56/1 98/58/1 55/59/1 56/57/1
f 98/58/1 99/60/1 54/61/1 55/59/1
f 99/60/1 100/62/1 53/63/1 54/61/1
f 14/26/1 48/64/1 52/65/1 15/28/1
f 48/64/1 47/66/1 51/67/1 52/65/1
f 47/66/1 46/68/1 50/69/1 51/67/1
f 46/68/1 45/70/1 49/71/1 50/69/1
f 13/24/1 44/72/1 48/64/1 14/26/1
f 44/72/1 43/73/1 47/66/1 48/64/1
f 43/73/1 42/74/1 46/68/1 47/66/1
f 42/74/1 41/75/1 45/70/1 46/68/1
f 1/22/1 40/76/1 44/72/1 13/24/1
f 40/76/1 39/77/1 43/73/1 44/72/1
f 39/77/1 38/78/1 42/74/1 43/73/1
f 38/78/15 37/79/15 41/75/15 42/74/15
f 60/14/16 64/13/16 146/80/16 147/81/16
f 73/82/17 72/83/17 150/84/17 151/85/17
f 61/86/18 81/87/18 153/88/18 140/89/18
f 72/83/19 71/90/19 149/91/19 150/84/19
f 92/92/20 74/93/20 152/94/20 154/95/20
f 71/90/21 69/96/21 148/97/21 149/91/21
f 69/98/22 76/99/22 37/100/22 28/101/22
f 28/101/23 37/100/23 38/102/23 27/103/23
f 27/103/6 38/102/6 39/104/6 26/105/6
f 26/105/6 39/104/6 40/21/6 25/20/6
f 81/87/24 61/86/24 33/106/24 75/107/24
f 61/86/4 62/108/4 34/109/4 33/106/4
f 62/108/4 63/110/4 35/111/4 34/109/4
f 63/110/4 64/13/4 36/16/4 35/111/4
f 4/15/25 3/17/25 29/112/25 36/113/25
f 36/113/26 29/112/26 30/114/26 35/115/26
f 35/115/27 30/114/27 31/116/27 34/117/27
f 34/117/28 31/116/28 32/118/28 33/119/28
f 58/120/1 65/121/1 29/122/1 3/17/1
f 65/121/1 66/123/1 30/124/1 29/122/1
f 66/123/1 67/125/1 31/126/1 30/124/1
f 67/125/1 68/127/1 32/128/1 31/126/1
f 89/129/1 90/130/1 68/127/1 67/125/1
f 88/131/1 89/129/1 67/125/1 66/123/1
f 87/132/1 88/131/1 66/123/1 65/121/1
f 86/133/29 87/132/29 65/121/29 58/120/29
f 62/108/30 61/86/30 140/89/30 142/134/30
f 8/135/11 7/136/11 59/137/11 57/138/11
f 84/139/31 86/133/31 58/120/31 60/14/31
f 101/140/32 73/82/32 151/85/32 155/141/32
f 91/142/1 83/143/1 59/2/1 82/1/1
f 90/130/1 91/142/1 82/1/1 68/127/1
f 85/144/33 92/92/33 81/87/33 57/145/33
f 57/145/34 81/87/34 75/107/34 8/146/34
f 6/12/35 5/11/35 76/99/35 69/98/35
f 6/147/4 69/96/4 71/90/4 9/148/4
f 9/148/4 71/90/4 72/83/4 10/149/4
f 10/149/4 72/83/4 73/82/4 11/150/4
f 93/151/4 101/140/4 74/93/4 12/152/4
f 100/62/1 102/52/1 80/55/1 53/63/1
f 45/70/1 78/49/1 79/51/1 49/71/1
f 41/75/1 77/47/1 78/49/1 45/70/1
f 37/79/36 76/44/36 77/47/36 41/75/36
f 33/119/37 32/118/37 70/6/37 75/5/37
f 68/127/1 82/1/1 70/4/1 32/128/1
f 12/152/4 74/93/4 92/92/4 85/144/4
f 53/63/1 80/55/1 91/142/1 90/130/1
f 80/55/1 17/54/1 83/143/1 91/142/1
f 21/33/38 16/32/38 86/133/38 84/139/38
f 63/110/39 62/108/39 142/134/39 144/153/39
f 81/87/40 92/92/40 154/95/40 153/88/40
f 16/32/41 56/57/41 87/132/41 86/133/41
f 56/57/1 55/59/1 88/131/1 87/132/1
f 55/59/1 54/61/1 89/129/1 88/131/1
f 54/61/1 53/63/1 90/130/1 89/129/1
f 57/138/11 59/137/11 83/35/11 85/34/11
f 49/71/1 79/51/1 102/52/1 100/62/1
f 11/150/4 73/82/4 101/140/4 93/151/4
f 64/13/42 63/110/42 144/153/42 146/80/42
f 50/69/1 49/71/1 100/62/1 99/60/1
f 51/67/1 50/69/1 99/60/1 98/58/1
f 52/65/1 51/67/1 98/58/1 97/56/1
f 15/28/1 52/65/1 97/56/1 94/31/1
f 79/51/1 18/50/1 95/53/1 102/52/1
f 12/37/12 17/36/12 95/39/12 93/38/12
f 74/93/32 101/140/32 155/141/32 152/94/32
f 22/29/43 15/28/43 94/31/43 96/30/43
f 103/19/44 104/18/44 108/154/44 107/155/44
f 4/15/4 60/14/4 106/156/4 104/18/4
f 58/120/1 3/17/1 103/19/1 105/157/1
f 60/14/45 58/120/45 105/157/45 106/156/45
f 110/158/46 109/159/46 113/160/46 114/161/46
f 106/156/45 105/157/45 109/159/45 110/158/45
f 105/157/1 103/19/1 107/155/1 109/159/1
f 104/18/4 106/156/4 110/158/4 108/154/4
f 112/162/4 114/161/4 118/163/4 116/164/4
f 109/159/1 107/155/1 111/165/1 113/160/1
f 108/154/4 110/158/4 114/161/4 112/162/4
f 107/155/47 108/154/47 112/162/47 111/165/47
f 118/163/48 117/166/48 158/167/48 159/168/48
f 111/165/49 112/162/49 116/164/49 115/169/49
f 114/161/50 113/160/50 117/166/50 118/163/50
f 113/160/1 111/165/1 115/169/1 117/166/1
f 25/170/4 2/23/4 24/25/4 119/171/4
f 119/171/4 24/25/4 23/27/4 123/172/4
f 123/172/4 23/27/4 22/29/4 127/173/4
f 138/174/4 96/30/4 21/33/4 131/175/4
f 155/141/4 135/176/4 134/177/4 152/94/4
f 135/176/4 136/178/4 133/179/4 134/177/4
f 136/178/4 137/180/4 132/181/4 133/179/4
f 137/180/4 138/174/4 131/175/4 132/181/4
f 150/84/4 126/182/4 130/183/4 151/85/4
f 126/182/4 125/184/4 129/185/4 130/183/4
f 125/184/4 124/186/4 128/187/4 129/185/4
f 124/186/4 123/172/4 127/173/4 128/187/4
f 149/91/4 122/188/4 126/182/4 150/84/4
f 122/188/4 121/189/4 125/184/4 126/182/4
f 121/189/4 120/190/4 124/186/4 125/184/4
f 120/190/4 119/171/4 123/172/4 124/186/4
f 148/97/51 28/191/51 122/188/51 149/91/51
f 28/191/52 27/192/52 121/189/52 122/188/52
f 27/192/4 26/193/4 120/190/4 121/189/4
f 26/193/4 25/170/4 119/171/4 120/190/4
f 143/194/4 145/195/4 146/80/4 144/153/4
f 141/196/4 143/194/4 144/153/4 142/134/4
f 139/197/4 141/196/4 142/134/4 140/89/4
f 154/95/53 139/197/53 140/89/53 153/88/53
f 145/195/54 84/139/54 147/81/54 146/80/54
f 131/175/55 21/33/55 84/139/55 145/195/55
f 152/94/4 134/177/4 139/197/4 154/95/4
f 134/177/4 133/179/4 141/196/4 139/197/4
f 133/179/4 132/181/4 143/194/4 141/196/4
f 132/181/4 131/175/4 145/195/4 143/194/4
f 128/187/4 127/173/4 138/174/4 137/180/4
f 129/185/4 128/187/4 137/180/4 136/178/4
f 130/183/4 129/185/4 136/178/4 135/176/4
f 151/85/4 130/183/4 135/176/4 155/141/4
f 127/173/4 22/29/4 96/30/4 138/174/4
f 159/168/56 158/167/56 156/198/56 157/199/56
f 117/166/1 115/169/1 156/198/1 158/167/1
f 116/164/4 118/163/4 159/168/4 157/199/4
f 115/169/57 116/164/57 157/199/57 156/198/57
