# Blender v2.82 (sub 7) OBJ File: 'Jewel Bumper.blend'
# www.blender.org
mtllib Jewel Bumper.mtl
o Icosphere
v 0.207291 0.313641 0.637987
v -0.542705 0.313641 0.394294
v -0.542705 0.313641 -0.394294
v 0.207291 0.313641 -0.637987
v 0.670820 0.313639 0.000000
v 0.713293 0.145933 0.231759
v 0.713293 0.145933 -0.231759
v 0.000000 0.145933 0.750000
v 0.440839 0.145933 0.606763
v -0.713293 0.145933 0.231759
v -0.440839 0.145933 0.606763
v -0.440839 0.145933 -0.606763
v -0.713293 0.145933 -0.231759
v 0.440839 0.145933 -0.606763
v 0.000000 0.145933 -0.750000
v 0.516142 0.343084 0.374998
v -0.197152 0.343085 0.606759
v -0.637986 0.343084 0.000000
v -0.197152 0.343085 -0.606759
v 0.516142 0.343084 -0.374998
v -0.641964 0.045933 0.208584
v 0.396755 0.045933 0.546086
v 0.000000 0.045933 0.675000
v 0.641964 0.045933 -0.208584
v 0.641964 0.045933 0.208584
v 0.170913 0.475200 0.296563
v 0.036041 0.475200 0.340384
v 0.142675 0.431374 0.433230
v 0.334865 0.475199 0.070906
v 0.456119 0.431372 -0.001819
v 0.334865 0.475199 -0.070906
v -0.229233 0.475200 0.254190
v -0.312589 0.475200 0.139462
v -0.367938 0.431373 0.269568
v -0.312589 0.475200 -0.139462
v -0.229233 0.475200 -0.254190
v -0.370076 0.431373 -0.266625
v 0.036041 0.475200 -0.340384
v 0.170913 0.475200 -0.296563
v 0.139215 0.431374 -0.434355
v 0.078075 0.599539 0.056725
v 0.078075 0.599539 -0.056725
v -0.029823 0.599539 -0.091783
v -0.096507 0.599539 0.000000
v -0.029823 0.599539 0.091783
v 0.136730 0.577072 0.237251
v 0.028832 0.577072 0.272308
v 0.267892 0.577071 -0.056725
v 0.267892 0.577071 0.056725
v -0.183387 0.577072 0.203352
v -0.250071 0.577072 0.111569
v -0.250071 0.577072 -0.111569
v -0.183387 0.577072 -0.203352
v 0.028832 0.577072 -0.272308
v 0.136730 0.577072 -0.237251
v -0.396755 0.045933 0.546086
v -0.396755 0.045933 -0.546086
v -0.641964 0.045933 -0.208584
v 0.396755 0.045933 -0.546086
v 0.000000 0.045933 -0.675000
v -0.513570 -0.054067 0.166867
v 0.317405 -0.054067 0.436869
v 0.000001 -0.054067 0.540000
v 0.513573 -0.054067 -0.166867
v 0.513573 -0.054067 0.166867
v -0.317403 -0.054067 0.436869
v -0.317403 -0.054067 -0.436869
v -0.513570 -0.054067 -0.166867
v 0.317405 -0.054067 -0.436869
v 0.000001 -0.054067 -0.540000
v -0.513569 -0.554067 0.166867
v 0.317407 -0.554067 0.436869
v 0.000002 -0.554067 0.540000
v 0.513574 -0.554067 -0.166867
v 0.513574 -0.554067 0.166867
v -0.317402 -0.554067 0.436869
v -0.317402 -0.554067 -0.436869
v -0.513569 -0.554067 -0.166867
v 0.317407 -0.554067 -0.436869
v 0.000002 -0.554067 -0.540000
vt 0.961383 0.379888
vt 0.909091 0.314921
vt 0.856220 0.380349
vt 0.234111 0.379888
vt 0.181818 0.314921
vt 0.128948 0.380349
vt 0.415929 0.379888
vt 0.363636 0.314921
vt 0.310766 0.380349
vt 0.597747 0.379888
vt 0.545454 0.314921
vt 0.492584 0.380349
vt 0.818181 0.314921
vt 0.853156 0.376264
vt 0.090909 0.314921
vt 0.125884 0.376264
vt 0.454545 0.314921
vt 0.418909 0.375906
vt 0.772726 0.236191
vt 0.863635 0.236191
vt 0.863635 0.236191
vt 0.772726 0.236191
vt 0.489520 0.376264
vt 0.272727 0.314921
vt 0.237091 0.375907
vt 0.704478 0.408090
vt 0.695005 0.416493
vt 0.695005 0.416493
vt 0.704478 0.408090
vt 0.307702 0.376264
vt 1.000000 0.314921
vt 0.964364 0.375906
vt 0.204612 0.408090
vt 0.159024 0.408090
vt 0.159024 0.408090
vt 0.204612 0.408090
vt 0.727272 0.314921
vt 0.636363 0.314921
vt 0.671338 0.376263
vt 0.779565 0.379888
vt 0.674402 0.380349
vt 0.395903 0.416493
vt 0.386430 0.408090
vt 0.386430 0.408090
vt 0.395903 0.416493
vt 0.782545 0.375906
vt 0.600727 0.375906
vt 0.590909 0.236191
vt 0.500000 0.236191
vt 0.409090 0.236191
vt 0.318182 0.236191
vt 0.227273 0.236191
vt 0.136363 0.236191
vt 0.954545 0.236191
vt 0.681818 0.236191
vt 0.045454 0.236191
vt 0.568248 0.408090
vt 0.522660 0.408090
vt 0.522660 0.408090
vt 0.568248 0.408090
vt 0.750066 0.408090
vt 0.759539 0.416493
vt 0.772726 0.393651
vt 0.681818 0.393651
vt 0.931884 0.408090
vt 0.941358 0.416493
vt 0.954545 0.393651
vt 0.214085 0.416493
vt 0.227273 0.393651
vt 0.409090 0.393651
vt 0.886296 0.408090
vt 0.886296 0.408090
vt 0.931884 0.408090
vt 0.750066 0.408090
vt 0.759539 0.416493
vt 0.340842 0.408090
vt 0.340842 0.408090
vt 0.941358 0.416493
vt 0.214085 0.416493
vt 0.545454 0.447571
vt 0.363636 0.447571
vt 0.181818 0.447571
vt 0.909090 0.447571
vt 0.535981 0.455973
vt 0.545454 0.472382
vt 0.545454 0.472382
vt 0.554927 0.455973
vt 0.577721 0.416493
vt 0.876823 0.416493
vt 0.899617 0.455973
vt 0.149551 0.416493
vt 0.172345 0.455973
vt 0.331369 0.416493
vt 0.354162 0.455973
vt 0.513187 0.416493
vt 0.727272 0.447571
vt 0.590909 0.236191
vt 0.500000 0.236191
vt 0.409090 0.236191
vt 0.681818 0.236191
vt 0.318182 0.236191
vt 0.227273 0.236191
vt 0.954545 0.236191
vt 0.136363 0.236191
vt 0.045454 0.236191
vt 0.954545 0.236191
vt 0.863635 0.236191
vt 0.772726 0.236191
vt 0.500000 0.236191
vt 0.409090 0.236191
vt 0.227273 0.236191
vt 0.136363 0.236191
vt 0.681818 0.236191
vt 0.590909 0.236191
vt 0.318182 0.236191
vt 0.045454 0.236191
vt 0.954545 0.236191
vt 0.863635 0.236191
vt 0.772726 0.236191
vt 0.500000 0.236191
vt 0.409090 0.236191
vt 0.227273 0.236191
vt 0.136363 0.236191
vt 0.681818 0.236191
vt 0.590909 0.236191
vt 0.318182 0.236191
vt 0.045454 0.236191
vt 0.000000 0.000000
vt 0.000000 0.000000
vt 0.000000 0.000000
vt 0.000000 0.000000
vt 0.000000 0.000000
vt 0.000000 0.000000
vt 0.000000 0.000000
vt 0.000000 0.000000
vt 0.000000 0.000000
vt 0.000000 0.000000
vn -0.0952 0.9501 0.2970
vn -0.3119 0.9501 0.0012
vn -0.0976 0.9501 -0.2962
vn 0.2516 0.9501 -0.1843
vn 0.0253 0.8701 0.4923
vn -0.4604 0.8701 0.1762
vn 0.0251 0.8691 -0.4941
vn 0.2516 -0.5807 0.7743
vn 0.2689 0.8701 -0.4132
vn -0.4621 0.8691 -0.1766
vn 0.8356 0.5493 0.0000
vn -0.3099 0.8701 -0.3834
vn -0.3107 0.8691 0.3849
vn -0.8523 0.5230 -0.0000
vn 0.4760 0.8701 0.1280
vn 0.2530 0.9501 0.1823
vn 0.2582 0.5493 -0.7947
vn 0.2701 0.8691 0.4145
vn 0.4776 0.8691 -0.1288
vn 0.7722 0.5735 -0.2735
vn 0.7558 0.3568 -0.5491
vn 0.4987 0.5735 -0.6499
vn -0.0215 0.5735 -0.8189
vn -0.2887 0.3568 -0.8884
vn -0.4640 0.5735 -0.6751
vn -0.7855 0.5735 -0.2326
vn -0.9342 0.3568 0.0000
vn -0.7855 0.5735 0.2326
vn -0.4640 0.5735 0.6751
vn -0.2887 0.3568 0.8884
vn -0.0215 0.5735 0.8189
vn 0.4987 0.5735 0.6499
vn 0.7558 0.3568 0.5491
vn 0.7722 0.5735 0.2735
vn 0.2996 0.2455 -0.9219
vn -0.7843 0.2455 -0.5698
vn -0.7843 0.2455 0.5698
vn 0.2996 0.2455 0.9219
vn 0.9694 0.2455 0.0000
vn 0.6895 0.5230 -0.5010
vn 0.1050 0.9405 0.3233
vn 0.3399 0.9405 0.0000
vn -0.2750 0.9405 0.1998
vn -0.2750 0.9405 -0.1998
vn 0.1050 0.9405 -0.3233
vn -0.2634 0.5230 0.8106
vn 0.2582 0.5493 0.7947
vn -0.2634 0.5230 -0.8106
vn -0.6760 0.5493 0.4912
vn 0.6895 0.5230 0.5010
vn 0.4953 0.7897 -0.3619
vn -0.1911 0.7897 -0.5829
vn -0.6134 0.7897 0.0016
vn -0.1880 0.7897 0.5839
vn 0.4972 0.7897 0.3593
vn -0.6760 0.5493 -0.4912
vn 0.1171 0.9895 -0.0851
vn -0.0447 0.9895 -0.1377
vn -0.1448 0.9895 0.0000
vn -0.0447 0.9895 0.1377
vn 0.0000 1.0000 0.0000
vn 0.1175 0.9931 0.0000
vn 0.0363 0.9931 0.1118
vn -0.0951 0.9931 0.0691
vn -0.0951 0.9931 -0.0691
vn 0.0363 0.9931 -0.1118
vn 0.1171 0.9895 0.0851
vn 0.6586 -0.5807 -0.4785
vn 0.2516 -0.5807 -0.7743
vn 0.8141 -0.5807 0.0000
vn -0.6586 -0.5807 -0.4785
vn 0.6586 -0.5807 0.4785
vn -0.2516 -0.5807 0.7743
vn -0.6586 -0.5807 0.4785
vn -0.8141 -0.5807 0.0000
vn -0.2516 -0.5807 -0.7743
vn -0.1899 -0.7889 0.5844
vn 0.1899 -0.7889 0.5844
vn 0.1899 -0.7889 -0.5844
vn -0.6145 -0.7889 0.0000
vn 0.6145 -0.7889 0.0000
vn -0.4971 -0.7889 -0.3612
vn -0.1899 -0.7889 -0.5844
vn 0.4971 -0.7889 0.3612
vn -0.4971 -0.7889 0.3612
vn 0.4971 -0.7889 -0.3612
vn -0.3090 -0.0000 0.9511
vn 0.3090 0.0000 0.9511
vn 0.3090 0.0000 -0.9511
vn -1.0000 -0.0000 0.0000
vn 1.0000 0.0000 0.0000
vn -0.8090 -0.0000 -0.5878
vn -0.3090 -0.0000 -0.9511
vn 0.8090 0.0000 0.5878
vn -0.8090 -0.0000 0.5878
vn 0.8090 0.0000 -0.5878
vn 0.0000 -1.0000 -0.0000
usemtl None
s off
f 34/1/1 17/2/1 28/3/1
f 37/4/2 18/5/2 34/6/2
f 40/7/3 19/8/3 37/9/3
f 30/10/4 20/11/4 40/12/4
f 17/2/5 1/13/5 28/14/5
f 18/5/6 2/15/6 34/16/6
f 4/17/7 19/8/7 40/18/7
f 9/19/8 8/20/8 23/21/8 22/22/8
f 20/11/9 4/17/9 40/23/9
f 3/24/10 18/5/10 37/25/10
f 29/26/11 31/27/11 48/28/11 49/29/11
f 19/8/12 3/24/12 37/30/12
f 2/31/13 17/2/13 34/32/13
f 35/33/14 33/34/14 51/35/14 52/36/14
f 16/37/15 5/38/15 30/39/15
f 28/40/16 16/37/16 30/41/16
f 39/42/17 38/43/17 54/44/17 55/45/17
f 1/13/18 16/37/18 28/46/18
f 5/38/19 20/11/19 30/47/19
f 7/48/20 20/11/20 5/38/20
f 7/48/21 14/49/21 20/11/21
f 14/49/22 4/17/22 20/11/22
f 15/50/23 19/8/23 4/17/23
f 15/50/24 12/51/24 19/8/24
f 12/51/25 3/24/25 19/8/25
f 13/52/26 18/5/26 3/24/26
f 13/52/27 10/53/27 18/5/27
f 10/53/28 2/15/28 18/5/28
f 11/54/29 17/2/29 2/31/29
f 11/54/30 8/20/30 17/2/30
f 8/20/31 1/13/31 17/2/31
f 9/19/32 16/37/32 1/13/32
f 9/19/33 6/55/33 16/37/33
f 6/55/34 5/38/34 16/37/34
f 14/49/35 15/50/35 4/17/35
f 12/51/36 13/52/36 3/24/36
f 10/53/37 11/56/37 2/15/37
f 8/20/38 9/19/38 1/13/38
f 6/55/39 7/48/39 5/38/39
f 31/57/40 39/58/40 55/59/40 48/60/40
f 26/61/41 27/62/41 28/63/41
f 29/26/42 30/64/42 31/27/42
f 32/65/43 33/66/43 34/67/43
f 35/33/44 36/68/44 37/69/44
f 38/43/45 39/42/45 40/70/45
f 32/65/46 27/71/46 47/72/46 50/73/46
f 27/62/47 26/61/47 46/74/47 47/75/47
f 38/43/48 36/76/48 53/77/48 54/44/48
f 33/66/49 32/65/49 50/73/49 51/78/49
f 26/61/50 29/26/50 49/29/50 46/74/50
f 30/10/51 40/12/51 39/58/51 31/57/51
f 40/7/52 37/9/52 36/76/52 38/43/52
f 37/4/53 34/6/53 33/34/53 35/33/53
f 34/1/54 28/3/54 27/71/54 32/65/54
f 28/40/55 30/41/55 29/26/55 26/61/55
f 36/68/56 35/33/56 52/36/56 53/79/56
f 48/60/57 55/59/57 42/80/57
f 54/44/58 53/77/58 43/81/58
f 52/36/59 51/35/59 44/82/59
f 50/73/60 47/72/60 45/83/60
f 42/80/61 43/84/61 44/85/61 45/86/61 41/87/61
f 48/60/62 42/80/62 41/87/62 49/88/62
f 45/83/63 47/72/63 46/89/63 41/90/63
f 44/82/64 51/35/64 50/91/64 45/92/64
f 43/81/65 53/77/65 52/93/65 44/94/65
f 42/80/66 55/59/66 54/95/66 43/84/66
f 46/74/67 49/29/67 41/96/67
f 14/49/68 7/48/68 24/97/68 59/98/68
f 15/50/69 14/49/69 59/98/69 60/99/69
f 7/48/70 6/55/70 25/100/70 24/97/70
f 13/52/71 12/51/71 57/101/71 58/102/71
f 6/55/72 9/19/72 22/22/72 25/100/72
f 8/20/73 11/54/73 56/103/73 23/21/73
f 11/56/74 10/53/74 21/104/74 56/105/74
f 10/53/75 13/52/75 58/102/75 21/104/75
f 12/51/76 15/50/76 60/99/76 57/101/76
f 23/21/77 56/103/77 66/106/77 63/107/77
f 22/22/78 23/21/78 63/107/78 62/108/78
f 60/99/79 59/98/79 69/109/79 70/110/79
f 21/104/80 58/102/80 68/111/80 61/112/80
f 24/97/81 25/100/81 65/113/81 64/114/81
f 58/102/82 57/101/82 67/115/82 68/111/82
f 57/101/83 60/99/83 70/110/83 67/115/83
f 25/100/84 22/22/84 62/108/84 65/113/84
f 56/105/85 21/104/85 61/112/85 66/116/85
f 59/98/86 24/97/86 64/114/86 69/109/86
f 63/107/87 66/106/87 76/117/87 73/118/87
f 62/108/88 63/107/88 73/118/88 72/119/88
f 70/110/89 69/109/89 79/120/89 80/121/89
f 61/112/90 68/111/90 78/122/90 71/123/90
f 64/114/91 65/113/91 75/124/91 74/125/91
f 68/111/92 67/115/92 77/126/92 78/122/92
f 67/115/93 70/110/93 80/121/93 77/126/93
f 65/113/94 62/108/94 72/119/94 75/124/94
f 66/116/95 61/112/95 71/123/95 76/127/95
f 69/109/96 64/114/96 74/125/96 79/120/96
f 79/128/97 78/129/97 80/130/97
f 78/129/97 79/128/97 74/131/97
f 71/132/97 78/129/97 74/131/97
f 71/132/97 74/131/97 75/133/97
f 76/134/97 71/132/97 75/133/97
f 76/134/97 75/133/97 72/135/97
f 73/136/97 76/134/97 72/135/97
f 78/129/97 77/137/97 80/130/97
