# Blender v2.82 (sub 7) OBJ File: 'Kickback.blend'
# www.blender.org
mtllib Kickback.mtl
o Cube
v 0.000000 -0.500000 -0.353553
v 0.707107 -0.500000 0.000000
v -0.707107 -0.500000 -0.000000
v -0.000000 -0.500000 0.353553
v -0.000000 0.441074 -0.020833
v -0.000000 0.441074 0.020833
v 0.353553 0.439167 -0.014338
v 0.353553 0.439167 0.014339
v 0.374387 0.441074 0.000000
v -0.353553 0.439167 0.014338
v -0.353553 0.439167 -0.014339
v -0.374387 0.441074 -0.000000
vt 0.375000 0.750000
vt 0.610269 0.750000
vt 0.609194 0.765234
vt 0.610269 1.000000
vt 0.375000 1.000000
vt 0.125000 0.500000
vt 0.375000 0.500000
vt 0.125000 0.750000
vt 0.375000 0.000000
vt 0.610269 0.000000
vt 0.609194 0.234766
vt 0.610269 0.250000
vt 0.375000 0.250000
vt 0.610269 0.500000
vt 0.609194 0.734766
vt 0.611482 0.750000
vt 0.611482 0.250000
vt 0.625000 0.750000
vt 0.625000 1.000000
vt 0.625000 0.000000
vt 0.625000 0.250000
vt 0.609194 0.265234
vn 0.3196 0.2153 0.9228
vn 0.0000 -1.0000 0.0000
vn -0.3196 0.2153 0.9228
vn 0.3196 0.2153 -0.9228
vn -0.0912 0.9958 0.0000
vn 0.0912 0.9958 0.0000
vn 0.0054 1.0000 0.0000
vn -0.0054 1.0000 0.0000
vn -0.3196 0.2153 -0.9228
usemtl Material
s off
f 2/1/1 9/2/1 8/3/1 6/4/1 4/5/1
f 3/6/2 1/7/2 2/1/2 4/8/2
f 4/9/3 6/10/3 10/11/3 12/12/3 3/13/3
f 1/7/4 5/14/4 7/15/4 9/2/4 2/1/4
f 7/15/5 8/16/5 9/2/5
f 10/11/6 11/17/6 12/12/6
f 6/4/7 8/3/7 7/18/7 5/19/7
f 10/11/8 6/10/8 5/20/8 11/21/8
f 3/13/9 12/12/9 11/22/9 5/14/9 1/7/9
