# Blender v2.82 (sub 7) OBJ File: 'Launcher.blend'
# www.blender.org
mtllib Launcher v2.mtl
o Cube
v 0.500000 0.500000 -2.500000
v 0.500000 -0.500000 -2.500000
v 0.500000 0.500000 0.500000
v 0.500000 -0.500000 0.500000
v -0.500000 0.500000 -2.500000
v -0.500000 -0.500000 -2.500000
v -0.500000 0.500000 0.500000
v -0.500000 -0.500000 0.500000
v 0.375000 -0.500000 -2.500000
v 0.250000 -0.500000 -2.500000
v 0.125000 -0.500000 -2.500000
v 0.000000 -0.500000 -2.500000
v -0.125000 -0.500000 -2.500000
v -0.250000 -0.500000 -2.500000
v -0.375000 -0.500000 -2.500000
v 0.375000 0.500000 0.350000
v 0.250000 0.500000 0.250000
v 0.125000 0.500000 0.175000
v 0.000000 0.500000 0.163000
v -0.125000 0.500000 0.175000
v -0.250000 0.500000 0.250000
v -0.375000 0.500000 0.350000
v -0.375000 -0.500000 0.350000
v -0.250000 -0.500000 0.250000
v -0.125000 -0.500000 0.175000
v 0.000000 -0.500000 0.163000
v 0.125000 -0.500000 0.175000
v 0.250000 -0.500000 0.250000
v 0.375000 -0.500000 0.350000
v -0.375000 0.500000 -2.500000
v -0.250000 0.500000 -2.500000
v -0.125000 0.500000 -2.500000
v 0.000000 0.500000 -2.500000
v 0.125000 0.500000 -2.500000
v 0.250000 0.500000 -2.500000
v 0.375000 0.500000 -2.500000
vt 0.843750 0.500000
vt 0.875000 0.500000
vt 0.875000 0.750000
vt 0.843750 0.750000
vt 0.375000 0.968750
vt 0.625000 0.968750
vt 0.625000 1.000000
vt 0.375000 1.000000
vt 0.375000 0.000000
vt 0.625000 0.000000
vt 0.625000 0.250000
vt 0.375000 0.250000
vt 0.343750 0.500000
vt 0.375000 0.500000
vt 0.375000 0.750000
vt 0.343750 0.750000
vt 0.625000 0.500000
vt 0.625000 0.750000
vt 0.375000 0.468750
vt 0.625000 0.468750
vt 0.625000 0.281250
vt 0.375000 0.281250
vt 0.625000 0.312500
vt 0.375000 0.312500
vt 0.625000 0.343750
vt 0.375000 0.343750
vt 0.625000 0.375000
vt 0.375000 0.375000
vt 0.625000 0.406250
vt 0.375000 0.406250
vt 0.625000 0.437500
vt 0.375000 0.437500
vt 0.125000 0.500000
vt 0.156250 0.500000
vt 0.156250 0.750000
vt 0.125000 0.750000
vt 0.187500 0.500000
vt 0.187500 0.750000
vt 0.218750 0.500000
vt 0.218750 0.750000
vt 0.250000 0.500000
vt 0.250000 0.750000
vt 0.281250 0.500000
vt 0.281250 0.750000
vt 0.312500 0.500000
vt 0.312500 0.750000
vt 0.625000 0.781250
vt 0.375000 0.781250
vt 0.625000 0.812500
vt 0.375000 0.812500
vt 0.625000 0.843750
vt 0.375000 0.843750
vt 0.625000 0.875000
vt 0.375000 0.875000
vt 0.625000 0.906250
vt 0.375000 0.906250
vt 0.625000 0.937500
vt 0.375000 0.937500
vt 0.656250 0.500000
vt 0.656250 0.750000
vt 0.687500 0.500000
vt 0.687500 0.750000
vt 0.718750 0.500000
vt 0.718750 0.750000
vt 0.750000 0.500000
vt 0.750000 0.750000
vt 0.781250 0.500000
vt 0.781250 0.750000
vt 0.812500 0.500000
vt 0.812500 0.750000
vn 0.0000 1.0000 0.0000
vn 0.7682 0.0000 0.6402
vn -1.0000 0.0000 0.0000
vn 0.0000 -1.0000 0.0000
vn 1.0000 0.0000 0.0000
vn 0.0000 0.0000 -1.0000
vn -0.7682 0.0000 0.6402
vn -0.6247 0.0000 0.7809
vn -0.5145 0.0000 0.8575
vn -0.0956 0.0000 0.9954
vn 0.0956 0.0000 0.9954
vn 0.5145 0.0000 0.8575
vn 0.6247 0.0000 0.7809
usemtl Material
s off
f 30/1/1 5/2/1 7/3/1 22/4/1
f 23/5/2 22/6/2 7/7/2 8/8/2
f 8/9/3 7/10/3 5/11/3 6/12/3
f 9/13/4 2/14/4 4/15/4 29/16/4
f 2/14/5 1/17/5 3/18/5 4/15/5
f 9/19/6 36/20/6 1/17/6 2/14/6
f 6/12/6 5/11/6 30/21/6 15/22/6
f 15/22/6 30/21/6 31/23/6 14/24/6
f 14/24/6 31/23/6 32/25/6 13/26/6
f 13/26/6 32/25/6 33/27/6 12/28/6
f 12/28/6 33/27/6 34/29/6 11/30/6
f 11/30/6 34/29/6 35/31/6 10/32/6
f 10/32/6 35/31/6 36/20/6 9/19/6
f 6/33/4 15/34/4 23/35/4 8/36/4
f 15/34/4 14/37/4 24/38/4 23/35/4
f 14/37/4 13/39/4 25/40/4 24/38/4
f 13/39/4 12/41/4 26/42/4 25/40/4
f 12/41/4 11/43/4 27/44/4 26/42/4
f 11/43/4 10/45/4 28/46/4 27/44/4
f 10/45/4 9/13/4 29/16/4 28/46/4
f 4/15/7 3/18/7 16/47/7 29/48/7
f 29/48/8 16/47/8 17/49/8 28/50/8
f 28/50/9 17/49/9 18/51/9 27/52/9
f 27/52/10 18/51/10 19/53/10 26/54/10
f 26/54/11 19/53/11 20/55/11 25/56/11
f 25/56/12 20/55/12 21/57/12 24/58/12
f 24/58/13 21/57/13 22/6/13 23/5/13
f 1/17/1 36/59/1 16/60/1 3/18/1
f 36/59/1 35/61/1 17/62/1 16/60/1
f 35/61/1 34/63/1 18/64/1 17/62/1
f 34/63/1 33/65/1 19/66/1 18/64/1
f 33/65/1 32/67/1 20/68/1 19/66/1
f 32/67/1 31/69/1 21/70/1 20/68/1
f 31/69/1 30/1/1 22/4/1 21/70/1
