# Blender v2.82 (sub 7) OBJ File: 'Left Plastic v3.blend'
# www.blender.org
mtllib Left Plastic v3.mtl
o Cube
v 0.008723 1.000000 -9.958260
v 0.008723 -1.000000 -9.958260
v 0.300000 1.000000 10.000000
v 0.300000 -1.000000 10.000000
v 0.000000 1.000000 -10.000000
v 0.000000 -1.000000 -10.000000
v 0.000000 1.000000 10.000000
v 0.000000 -1.000000 10.000000
v 0.000000 -1.000000 -9.000000
v 0.000000 -1.000000 -8.000000
v 0.000000 -1.000000 -7.000000
v 0.000000 -1.000000 -6.000000
v 0.000000 -1.000000 -5.000000
v 0.000000 -1.000000 -4.000000
v 0.000000 -1.000000 -3.000000
v 0.000000 -1.000000 -2.000000
v 0.000000 -1.000000 -1.000000
v 0.000000 -1.000000 0.000000
v 0.000000 -1.000000 1.000000
v 0.000000 -1.000000 2.000000
v 0.000000 -1.000000 3.000000
v 0.000000 -1.000000 4.000000
v 0.000000 -1.000000 5.000000
v 0.000000 -1.000000 6.000000
v 0.000000 -1.000000 7.000000
v 0.000000 -1.000000 8.000000
v 0.000000 -1.000000 9.000000
v 0.143501 1.000000 -8.965849
v 0.378278 1.000000 -7.973438
v 0.613056 1.000000 -6.981027
v 0.847834 1.000000 -5.988616
v 1.082611 1.000000 -4.996205
v 1.317389 1.000000 -4.003795
v 1.552166 1.000000 -3.011384
v 1.786944 1.000000 -2.018973
v 2.021722 1.000000 -1.026561
v 2.256499 1.000000 -0.034151
v 2.491277 1.000000 0.958261
v 2.700000 1.000000 2.000000
v 2.400000 1.000000 3.000000
v 2.100000 1.000000 4.000000
v 1.800000 1.000000 5.000000
v 1.500000 1.000000 6.000000
v 1.200000 1.000000 7.000000
v 0.900000 1.000000 7.998639
v 0.600000 1.000000 9.000000
v 0.000000 1.000000 9.000000
v 0.000000 1.000000 8.000000
v 0.000000 1.000000 7.000000
v 0.000000 1.000000 6.000000
v 0.000000 1.000000 5.000000
v 0.000000 1.000000 4.000000
v 0.000000 1.000000 3.000000
v 0.000000 1.000000 2.000000
v 0.000000 1.000000 1.000000
v 0.000000 1.000000 0.000000
v 0.000000 1.000000 -1.000000
v 0.000000 1.000000 -2.000000
v 0.000000 1.000000 -3.000000
v 0.000000 1.000000 -4.000000
v 0.000000 1.000000 -5.000000
v 0.000000 1.000000 -6.000000
v 0.000000 1.000000 -7.000000
v 0.000000 1.000000 -8.000000
v 0.000000 1.000000 -9.000000
v 0.600000 -1.000000 9.000000
v 0.900000 -1.000000 7.998639
v 1.200000 -1.000000 7.000000
v 1.500000 -1.000000 6.000000
v 1.800000 -1.000000 5.000000
v 2.100000 -1.000000 4.000000
v 2.400000 -1.000000 3.000000
v 2.700000 -1.000000 2.000000
v 2.491277 -1.000000 0.958261
v 2.256499 -1.000000 -0.034151
v 2.021722 -1.000000 -1.026561
v 1.786944 -1.000000 -2.018973
v 1.552166 -1.000000 -3.011384
v 1.317389 -1.000000 -4.003795
v 1.082611 -1.000000 -4.996205
v 0.847834 -1.000000 -5.988616
v 0.613056 -1.000000 -6.981027
v 0.378278 -1.000000 -7.973438
v 0.143501 -1.000000 -8.965849
v 0.008723 0.900000 -9.958260
v 0.000000 0.900000 10.000000
v 0.300000 0.900000 10.000000
v 0.000000 0.900000 -10.000000
v 0.143501 0.900000 -8.965849
v 0.378278 0.900000 -7.973438
v 0.613056 0.900000 -6.981027
v 0.847834 0.900000 -5.988616
v 1.082611 0.900000 -4.996205
v 1.317389 0.900000 -4.003795
v 1.552166 0.900000 -3.011384
v 1.786944 0.900000 -2.018973
v 2.021722 0.900000 -1.026561
v 2.256499 0.900000 -0.034151
v 2.491277 0.900000 0.958261
v 2.700000 0.900000 2.000000
v 2.400000 0.900000 3.000000
v 2.100000 0.900000 4.000000
v 1.800000 0.900000 5.000000
v 1.500000 0.900000 6.000000
v 1.200000 0.900000 7.000000
v 0.900000 0.900000 7.998639
v 0.600000 0.900000 9.000000
v 0.000000 0.900000 9.000000
v 0.000000 0.900000 8.000000
v 0.000000 0.900000 7.000000
v 0.000000 0.900000 6.000000
v 0.000000 0.900000 5.000000
v 0.000000 0.900000 4.000000
v 0.000000 0.900000 3.000000
v 0.000000 0.900000 2.000000
v 0.000000 0.900000 1.000000
v 0.000000 0.900000 0.000000
v 0.000000 0.900000 -1.000000
v 0.000000 0.900000 -2.000000
v 0.000000 0.900000 -3.000000
v 0.000000 0.900000 -4.000000
v 0.000000 0.900000 -5.000000
v 0.000000 0.900000 -6.000000
v 0.000000 0.900000 -7.000000
v 0.000000 0.900000 -8.000000
v 0.000000 0.900000 -9.000000
v 0.008723 -0.905000 -9.958260
v 0.300000 -0.905000 10.000000
v 0.000000 -0.905000 -10.000000
v 0.143501 -0.905000 -8.965849
v 0.378278 -0.905000 -7.973438
v 0.613056 -0.905000 -6.981027
v 0.847834 -0.905000 -5.988616
v 1.082611 -0.905000 -4.996205
v 1.317389 -0.905000 -4.003795
v 1.552166 -0.905000 -3.011384
v 1.786944 -0.905000 -2.018973
v 2.021722 -0.905000 -1.026561
v 2.256499 -0.905000 -0.034151
v 2.491277 -0.905000 0.958261
v 2.700000 -0.905000 2.000000
v 1.921087 -0.905000 2.856326
v 1.621087 -0.905000 3.856326
v 1.321087 -0.905000 4.856326
v 1.500000 -0.905000 6.000000
v 1.200000 -0.905000 7.000000
v 0.900000 -0.905000 7.998639
v 0.600000 -0.905000 9.000000
v 0.000000 -0.905000 9.000000
v 0.000000 -0.905000 8.000000
v 0.000000 -0.905000 7.000000
v 0.000000 -0.905000 6.000000
v 0.000000 -0.905000 5.000000
v 0.000000 -0.905000 4.000000
v 0.000000 -0.905000 3.000000
v 0.000000 -0.905000 2.000000
v 0.000000 -0.905000 1.000000
v 0.000000 -0.905000 0.000000
v 0.000000 -0.905000 -1.000000
v 0.000000 -0.905000 -2.000000
v 0.000000 -0.905000 -3.000000
v 0.000000 -0.905000 -4.000000
v 0.000000 -0.905000 -5.000000
v 0.000000 -0.905000 -6.000000
v 0.000000 -0.905000 -7.000000
v 0.000000 -0.905000 -8.000000
v 0.000000 -0.905000 -9.000000
v 0.000000 -0.905000 10.000000
v 1.236086 0.900000 4.830826
v 0.936086 0.900000 5.830826
v 1.536086 0.900000 3.830826
v 1.836086 0.900000 2.830826
v 2.136086 0.900000 1.830826
v 2.136086 -0.905000 1.830826
v 1.836086 -0.905000 2.830826
v 1.536086 -0.905000 3.830826
v 1.236086 -0.905000 4.830826
v 0.936086 -0.905000 5.830826
vt 0.625000 0.737500
vt 0.875000 0.737500
vt 0.875000 0.750000
vt 0.625000 0.750000
vt 0.612500 0.750000
vt 0.625000 1.000000
vt 0.612500 1.000000
vt 0.612500 0.237500
vt 0.625000 0.237500
vt 0.625000 0.250000
vt 0.612500 0.250000
vt 0.125000 0.737500
vt 0.375000 0.737500
vt 0.375000 0.750000
vt 0.125000 0.750000
vt 0.612500 0.737500
vt 0.625000 0.500000
vt 0.612500 0.500000
vt 0.625000 0.512500
vt 0.612500 0.512500
vt 0.625000 0.525000
vt 0.612500 0.525000
vt 0.625000 0.537500
vt 0.612500 0.537500
vt 0.625000 0.550000
vt 0.612500 0.550000
vt 0.625000 0.562500
vt 0.612500 0.562500
vt 0.625000 0.575000
vt 0.612500 0.575000
vt 0.625000 0.587500
vt 0.612500 0.587500
vt 0.625000 0.600000
vt 0.612500 0.600000
vt 0.625000 0.612500
vt 0.612500 0.612500
vt 0.625000 0.625000
vt 0.612500 0.625000
vt 0.625000 0.637500
vt 0.612500 0.637500
vt 0.625000 0.650000
vt 0.612500 0.650000
vt 0.625000 0.662500
vt 0.612500 0.662500
vt 0.625000 0.675000
vt 0.612500 0.675000
vt 0.625000 0.687500
vt 0.612500 0.687500
vt 0.625000 0.700000
vt 0.612500 0.700000
vt 0.625000 0.712500
vt 0.612500 0.712500
vt 0.625000 0.725000
vt 0.612500 0.725000
vt 0.125000 0.500000
vt 0.375000 0.500000
vt 0.375000 0.512500
vt 0.125000 0.512500
vt 0.375000 0.525000
vt 0.125000 0.525000
vt 0.375000 0.537500
vt 0.125000 0.537500
vt 0.375000 0.550000
vt 0.125000 0.550000
vt 0.375000 0.562500
vt 0.125000 0.562500
vt 0.375000 0.575000
vt 0.125000 0.575000
vt 0.375000 0.587500
vt 0.125000 0.587500
vt 0.375000 0.600000
vt 0.125000 0.600000
vt 0.375000 0.612500
vt 0.125000 0.612500
vt 0.375000 0.625000
vt 0.125000 0.625000
vt 0.375000 0.637500
vt 0.125000 0.637500
vt 0.375000 0.650000
vt 0.125000 0.650000
vt 0.375000 0.662500
vt 0.125000 0.662500
vt 0.375000 0.675000
vt 0.125000 0.675000
vt 0.375000 0.687500
vt 0.125000 0.687500
vt 0.375000 0.700000
vt 0.125000 0.700000
vt 0.375000 0.712500
vt 0.125000 0.712500
vt 0.375000 0.725000
vt 0.125000 0.725000
vt 0.612500 0.000000
vt 0.625000 0.000000
vt 0.625000 0.012500
vt 0.612500 0.012500
vt 0.625000 0.025000
vt 0.612500 0.025000
vt 0.625000 0.037500
vt 0.612500 0.037500
vt 0.625000 0.050000
vt 0.612500 0.050000
vt 0.625000 0.062500
vt 0.612500 0.062500
vt 0.625000 0.075000
vt 0.612500 0.075000
vt 0.625000 0.087500
vt 0.612500 0.087500
vt 0.625000 0.100000
vt 0.612500 0.100000
vt 0.625000 0.112500
vt 0.612500 0.112500
vt 0.625000 0.125000
vt 0.612500 0.125000
vt 0.625000 0.137500
vt 0.612500 0.137500
vt 0.625000 0.150000
vt 0.612500 0.150000
vt 0.625000 0.162500
vt 0.612500 0.162500
vt 0.625000 0.175000
vt 0.612500 0.175000
vt 0.625000 0.187500
vt 0.612500 0.187500
vt 0.625000 0.200000
vt 0.612500 0.200000
vt 0.625000 0.212500
vt 0.612500 0.212500
vt 0.625000 0.225000
vt 0.612500 0.225000
vt 0.875000 0.500000
vt 0.875000 0.512500
vt 0.875000 0.525000
vt 0.875000 0.537500
vt 0.875000 0.550000
vt 0.875000 0.562500
vt 0.875000 0.575000
vt 0.875000 0.587500
vt 0.875000 0.600000
vt 0.875000 0.612500
vt 0.875000 0.625000
vt 0.875000 0.637500
vt 0.875000 0.650000
vt 0.875000 0.662500
vt 0.875000 0.675000
vt 0.875000 0.687500
vt 0.875000 0.700000
vt 0.875000 0.712500
vt 0.875000 0.725000
vt 0.386875 0.225000
vt 0.386875 0.237500
vt 0.386875 0.212500
vt 0.386875 0.200000
vt 0.386875 0.187500
vt 0.386875 0.175000
vt 0.386875 0.162500
vt 0.386875 0.150000
vt 0.386875 0.137500
vt 0.386875 0.125000
vt 0.386875 0.112500
vt 0.386875 0.100000
vt 0.386875 0.087500
vt 0.386875 0.075000
vt 0.386875 0.062500
vt 0.386875 0.050000
vt 0.386875 0.037500
vt 0.386875 0.025000
vt 0.386875 0.012500
vt 0.386875 0.000000
vt 0.386875 0.725000
vt 0.386875 0.737500
vt 0.386875 0.712500
vt 0.386875 0.700000
vt 0.612500 0.700000
vt 0.612500 0.687500
vt 0.386875 0.662500
vt 0.386875 0.650000
vt 0.386875 0.650000
vt 0.386875 0.662500
vt 0.612500 0.662500
vt 0.612500 0.650000
vt 0.386875 0.687500
vt 0.386875 0.687500
vt 0.386875 0.700000
vt 0.386875 0.637500
vt 0.386875 0.625000
vt 0.386875 0.612500
vt 0.386875 0.600000
vt 0.386875 0.587500
vt 0.386875 0.575000
vt 0.386875 0.562500
vt 0.386875 0.550000
vt 0.386875 0.537500
vt 0.386875 0.525000
vt 0.386875 0.512500
vt 0.386875 0.500000
vt 0.386875 0.250000
vt 0.386875 0.750000
vt 0.386875 1.000000
vt 0.375000 1.000000
vt 0.375000 0.237500
vt 0.375000 0.250000
vt 0.386875 0.675000
vt 0.375000 0.000000
vt 0.375000 0.012500
vt 0.375000 0.025000
vt 0.375000 0.037500
vt 0.375000 0.050000
vt 0.375000 0.062500
vt 0.375000 0.075000
vt 0.375000 0.087500
vt 0.375000 0.100000
vt 0.375000 0.112500
vt 0.375000 0.125000
vt 0.375000 0.137500
vt 0.375000 0.150000
vt 0.375000 0.162500
vt 0.375000 0.175000
vt 0.375000 0.187500
vt 0.375000 0.200000
vt 0.375000 0.212500
vt 0.375000 0.225000
vt 0.386875 0.675000
vt 0.612500 0.675000
vn 0.0000 1.0000 0.0000
vn 0.0000 0.0000 1.0000
vn -1.0000 0.0000 0.0000
vn 0.0000 -1.0000 0.0000
vn 0.9578 0.0000 0.2873
vn 0.9789 0.0000 -0.2046
vn 0.9909 0.0000 -0.1346
vn 0.9731 0.0000 -0.2302
vn 0.9805 0.0000 -0.1965
vn 0.9577 0.0000 0.2877
vn 0.9579 0.0000 0.2870
vn 0.3147 0.9314 0.1829
vn 0.1788 0.9824 0.0536
vn 0.3634 0.9314 0.0205
vn -0.2873 0.0000 0.9578
vn 0.2873 0.0000 -0.9578
usemtl Material
s off
f 46/1/1 47/2/1 7/3/1 3/4/1
f 87/5/2 3/4/2 7/6/2 86/7/2
f 126/8/3 65/9/3 5/10/3 88/11/3
f 27/12/4 66/13/4 4/14/4 8/15/4
f 107/16/5 46/1/5 3/4/5 87/5/5
f 88/11/6 5/10/6 1/17/6 85/18/6
f 85/18/7 1/17/7 28/19/7 89/20/7
f 89/20/8 28/19/8 29/21/8 90/22/8
f 90/22/8 29/21/8 30/23/8 91/24/8
f 91/24/8 30/23/8 31/25/8 92/26/8
f 92/26/8 31/25/8 32/27/8 93/28/8
f 93/28/8 32/27/8 33/29/8 94/30/8
f 94/30/8 33/29/8 34/31/8 95/32/8
f 95/32/8 34/31/8 35/33/8 96/34/8
f 96/34/8 35/33/8 36/35/8 97/36/8
f 97/36/8 36/35/8 37/37/8 98/38/8
f 98/38/8 37/37/8 38/39/8 99/40/8
f 99/40/9 38/39/9 39/41/9 100/42/9
f 100/42/5 39/41/5 40/43/5 101/44/5
f 101/44/5 40/43/5 41/45/5 102/46/5
f 102/46/5 41/45/5 42/47/5 103/48/5
f 103/48/5 42/47/5 43/49/5 104/50/5
f 104/50/5 43/49/5 44/51/5 105/52/5
f 105/52/10 44/51/10 45/53/10 106/54/10
f 106/54/11 45/53/11 46/1/11 107/16/11
f 6/55/4 2/56/4 84/57/4 9/58/4
f 9/58/4 84/57/4 83/59/4 10/60/4
f 10/60/4 83/59/4 82/61/4 11/62/4
f 11/62/4 82/61/4 81/63/4 12/64/4
f 12/64/4 81/63/4 80/65/4 13/66/4
f 13/66/4 80/65/4 79/67/4 14/68/4
f 14/68/4 79/67/4 78/69/4 15/70/4
f 15/70/4 78/69/4 77/71/4 16/72/4
f 16/72/4 77/71/4 76/73/4 17/74/4
f 17/74/4 76/73/4 75/75/4 18/76/4
f 18/76/4 75/75/4 74/77/4 19/78/4
f 19/78/4 74/77/4 73/79/4 20/80/4
f 20/80/4 73/79/4 72/81/4 21/82/4
f 21/82/4 72/81/4 71/83/4 22/84/4
f 22/84/4 71/83/4 70/85/4 23/86/4
f 23/86/4 70/85/4 69/87/4 24/88/4
f 24/88/4 69/87/4 68/89/4 25/90/4
f 25/90/4 68/89/4 67/91/4 26/92/4
f 26/92/4 67/91/4 66/13/4 27/12/4
f 86/93/3 7/94/3 47/95/3 108/96/3
f 108/96/3 47/95/3 48/97/3 109/98/3
f 109/98/3 48/97/3 49/99/3 110/100/3
f 110/100/3 49/99/3 50/101/3 111/102/3
f 111/102/3 50/101/3 51/103/3 112/104/3
f 112/104/3 51/103/3 52/105/3 113/106/3
f 113/106/3 52/105/3 53/107/3 114/108/3
f 114/108/3 53/107/3 54/109/3 115/110/3
f 115/110/3 54/109/3 55/111/3 116/112/3
f 116/112/3 55/111/3 56/113/3 117/114/3
f 117/114/3 56/113/3 57/115/3 118/116/3
f 118/116/3 57/115/3 58/117/3 119/118/3
f 119/118/3 58/117/3 59/119/3 120/120/3
f 120/120/3 59/119/3 60/121/3 121/122/3
f 121/122/3 60/121/3 61/123/3 122/124/3
f 122/124/3 61/123/3 62/125/3 123/126/3
f 123/126/3 62/125/3 63/127/3 124/128/3
f 124/128/3 63/127/3 64/129/3 125/130/3
f 125/130/3 64/129/3 65/9/3 126/8/3
f 1/17/1 5/131/1 65/132/1 28/19/1
f 28/19/1 65/132/1 64/133/1 29/21/1
f 29/21/1 64/133/1 63/134/1 30/23/1
f 30/23/1 63/134/1 62/135/1 31/25/1
f 31/25/1 62/135/1 61/136/1 32/27/1
f 32/27/1 61/136/1 60/137/1 33/29/1
f 33/29/1 60/137/1 59/138/1 34/31/1
f 34/31/1 59/138/1 58/139/1 35/33/1
f 35/33/1 58/139/1 57/140/1 36/35/1
f 36/35/1 57/140/1 56/141/1 37/37/1
f 37/37/1 56/141/1 55/142/1 38/39/1
f 38/39/1 55/142/1 54/143/1 39/41/1
f 39/41/1 54/143/1 53/144/1 40/43/1
f 40/43/1 53/144/1 52/145/1 41/45/1
f 41/45/1 52/145/1 51/146/1 42/47/1
f 42/47/1 51/146/1 50/147/1 43/49/1
f 43/49/1 50/147/1 49/148/1 44/51/1
f 44/51/1 49/148/1 48/149/1 45/53/1
f 45/53/1 48/149/1 47/2/1 46/1/1
f 166/150/3 125/130/3 126/8/3 167/151/3
f 165/152/3 124/128/3 125/130/3 166/150/3
f 164/153/3 123/126/3 124/128/3 165/152/3
f 163/154/3 122/124/3 123/126/3 164/153/3
f 162/155/3 121/122/3 122/124/3 163/154/3
f 161/156/3 120/120/3 121/122/3 162/155/3
f 160/157/3 119/118/3 120/120/3 161/156/3
f 159/158/3 118/116/3 119/118/3 160/157/3
f 158/159/3 117/114/3 118/116/3 159/158/3
f 157/160/3 116/112/3 117/114/3 158/159/3
f 156/161/3 115/110/3 116/112/3 157/160/3
f 155/162/3 114/108/3 115/110/3 156/161/3
f 154/163/3 113/106/3 114/108/3 155/162/3
f 153/164/3 112/104/3 113/106/3 154/163/3
f 152/165/3 111/102/3 112/104/3 153/164/3
f 151/166/3 110/100/3 111/102/3 152/165/3
f 150/167/3 109/98/3 110/100/3 151/166/3
f 149/168/3 108/96/3 109/98/3 150/167/3
f 168/169/3 86/93/3 108/96/3 149/168/3
f 147/170/11 106/54/11 107/16/11 148/171/11
f 146/172/10 105/52/10 106/54/10 147/170/10
f 145/173/5 104/50/5 105/52/5 146/172/5
f 103/48/4 104/50/4 170/174/4 169/175/4
f 142/176/1 141/177/1 174/178/1 175/179/1
f 100/42/4 101/44/4 172/180/4 173/181/4
f 145/173/1 144/182/1 177/183/1 178/184/1
f 140/185/9 99/40/9 100/42/9 141/177/9
f 139/186/8 98/38/8 99/40/8 140/185/8
f 138/187/8 97/36/8 98/38/8 139/186/8
f 137/188/8 96/34/8 97/36/8 138/187/8
f 136/189/8 95/32/8 96/34/8 137/188/8
f 135/190/8 94/30/8 95/32/8 136/189/8
f 134/191/8 93/28/8 94/30/8 135/190/8
f 133/192/8 92/26/8 93/28/8 134/191/8
f 132/193/8 91/24/8 92/26/8 133/192/8
f 131/194/8 90/22/8 91/24/8 132/193/8
f 130/195/8 89/20/8 90/22/8 131/194/8
f 127/196/7 85/18/7 89/20/7 130/195/7
f 129/197/6 88/11/6 85/18/6 127/196/6
f 148/171/5 107/16/5 87/5/5 128/198/5
f 167/151/3 126/8/3 88/11/3 129/197/3
f 128/198/2 87/5/2 86/7/2 168/199/2
f 4/14/2 128/198/2 168/199/2 8/200/2
f 9/201/3 167/151/3 129/197/3 6/202/3
f 66/13/5 148/171/5 128/198/5 4/14/5
f 6/202/6 129/197/6 127/196/6 2/56/6
f 2/56/7 127/196/7 130/195/7 84/57/7
f 84/57/8 130/195/8 131/194/8 83/59/8
f 83/59/8 131/194/8 132/193/8 82/61/8
f 82/61/8 132/193/8 133/192/8 81/63/8
f 81/63/8 133/192/8 134/191/8 80/65/8
f 80/65/8 134/191/8 135/190/8 79/67/8
f 79/67/8 135/190/8 136/189/8 78/69/8
f 78/69/8 136/189/8 137/188/8 77/71/8
f 77/71/8 137/188/8 138/187/8 76/73/8
f 76/73/8 138/187/8 139/186/8 75/75/8
f 75/75/8 139/186/8 140/185/8 74/77/8
f 74/77/9 140/185/9 141/177/9 73/79/9
f 73/79/12 141/177/12 142/176/12 72/81/12
f 72/81/13 142/176/13 143/203/13 71/83/13
f 71/83/13 143/203/13 144/182/13 70/85/13
f 70/85/14 144/182/14 145/173/14 69/87/14
f 69/87/5 145/173/5 146/172/5 68/89/5
f 68/89/10 146/172/10 147/170/10 67/91/10
f 67/91/11 147/170/11 148/171/11 66/13/11
f 8/204/3 168/169/3 149/168/3 27/205/3
f 27/205/3 149/168/3 150/167/3 26/206/3
f 26/206/3 150/167/3 151/166/3 25/207/3
f 25/207/3 151/166/3 152/165/3 24/208/3
f 24/208/3 152/165/3 153/164/3 23/209/3
f 23/209/3 153/164/3 154/163/3 22/210/3
f 22/210/3 154/163/3 155/162/3 21/211/3
f 21/211/3 155/162/3 156/161/3 20/212/3
f 20/212/3 156/161/3 157/160/3 19/213/3
f 19/213/3 157/160/3 158/159/3 18/214/3
f 18/214/3 158/159/3 159/158/3 17/215/3
f 17/215/3 159/158/3 160/157/3 16/216/3
f 16/216/3 160/157/3 161/156/3 15/217/3
f 15/217/3 161/156/3 162/155/3 14/218/3
f 14/218/3 162/155/3 163/154/3 13/219/3
f 13/219/3 163/154/3 164/153/3 12/220/3
f 12/220/3 164/153/3 165/152/3 11/221/3
f 11/221/3 165/152/3 166/150/3 10/222/3
f 10/222/3 166/150/3 167/151/3 9/201/3
f 177/183/5 169/175/5 170/174/5 178/184/5
f 176/223/5 171/224/5 169/175/5 177/183/5
f 175/179/5 172/180/5 171/224/5 176/223/5
f 174/178/5 173/181/5 172/180/5 175/179/5
f 141/177/15 100/42/15 173/181/15 174/178/15
f 104/50/16 145/173/16 178/184/16 170/174/16
f 143/203/1 142/176/1 175/179/1 176/223/1
f 102/46/4 103/48/4 169/175/4 171/224/4
f 144/182/1 143/203/1 176/223/1 177/183/1
f 101/44/4 102/46/4 171/224/4 172/180/4
