# Blender v2.82 (sub 7) OBJ File: 'Metal Target.blend'
# www.blender.org
mtllib Metal Target.mtl
o Cube
v 0.300000 0.500000 -0.500000
v 0.300000 -0.500000 -0.500000
v 0.300000 -0.500000 0.500000
v -0.300000 0.500000 -0.500000
v -0.300000 -0.500000 -0.500000
v -0.300000 -0.500000 0.500000
v 0.300000 0.500000 0.375000
v 0.300000 0.375000 0.500000
v 0.300000 0.483253 0.437500
v 0.300000 0.437500 0.483253
v -0.300000 0.375000 0.500000
v -0.300000 0.500000 0.375000
v -0.300000 0.437500 0.483253
v -0.300000 0.483253 0.437500
vt 0.375000 0.000000
vt 0.593750 0.000000
vt 0.609375 0.004187
vt 0.620813 0.015625
vt 0.625000 0.031250
vt 0.625000 0.250000
vt 0.375000 0.250000
vt 0.625000 0.500000
vt 0.875000 0.500000
vt 0.875000 0.718750
vt 0.625000 0.718750
vt 0.125000 0.500000
vt 0.375000 0.500000
vt 0.375000 0.750000
vt 0.125000 0.750000
vt 0.593750 0.750000
vt 0.593750 1.000000
vt 0.375000 1.000000
vt 0.875000 0.734375
vt 0.625000 0.734375
vt 0.875000 0.750000
vt 0.625000 0.750000
vt 0.609375 0.750000
vt 0.609375 1.000000
vt 0.620813 0.734375
vt 0.609375 0.745813
vn -1.0000 -0.0000 0.0000
vn 0.0000 1.0000 0.0000
vn 0.0000 -1.0000 0.0000
vn 0.0000 0.0000 1.0000
vn 0.0000 0.0000 -1.0000
vn 0.0000 0.9659 0.2588
vn 0.0000 0.7071 0.7071
vn 0.0000 0.2588 0.9659
vn 1.0000 -0.0000 0.0000
usemtl Material
s off
f 6/1/1 11/2/1 13/3/1 14/4/1 12/5/1 4/6/1 5/7/1
f 1/8/2 4/9/2 12/10/2 7/11/2
f 5/12/3 2/13/3 3/14/3 6/15/3
f 3/14/4 8/16/4 11/17/4 6/18/4
f 5/7/5 4/6/5 1/8/5 2/13/5
f 7/11/6 12/10/6 14/19/6 9/20/6
f 9/20/7 14/19/7 13/21/7 10/22/7
f 10/23/8 13/24/8 11/17/8 8/16/8
f 2/13/9 1/8/9 7/11/9 9/25/9 10/26/9 8/16/9 3/14/9
