# Blender v2.82 (sub 7) OBJ File: 'Ring v2.blend'
# www.blender.org
mtllib Ring v2.mtl
o Torus
v 0.000000 1.125000 0.000000
v -0.088388 1.088388 0.000000
v -0.125000 1.000000 0.000000
v -0.088388 0.911612 0.000000
v 0.000000 0.875000 0.000000
v 0.088388 0.911612 0.000000
v 0.125000 1.000000 0.000000
v 0.088388 1.088388 0.000000
v 0.000000 1.039364 -0.430519
v -0.088388 1.005540 -0.416508
v -0.125000 0.923880 -0.382683
v -0.088388 0.842219 -0.348859
v 0.000000 0.808395 -0.334848
v 0.088388 0.842219 -0.348859
v 0.125000 0.923880 -0.382683
v 0.088388 1.005540 -0.416508
v 0.000000 0.795495 -0.795495
v -0.088388 0.769607 -0.769607
v -0.125000 0.707107 -0.707107
v -0.088388 0.644607 -0.644607
v 0.000000 0.618718 -0.618719
v 0.088388 0.644607 -0.644607
v 0.125000 0.707107 -0.707107
v 0.088388 0.769607 -0.769607
v 0.000000 0.430519 -1.039364
v -0.088388 0.416508 -1.005540
v -0.125000 0.382684 -0.923879
v -0.088388 0.348859 -0.842219
v 0.000000 0.334848 -0.808394
v 0.088388 0.348859 -0.842219
v 0.125000 0.382684 -0.923879
v 0.088388 0.416508 -1.005540
v 0.000000 0.000000 -1.125000
v -0.088388 0.000000 -1.088388
v -0.125000 0.000000 -1.000000
v -0.088388 0.000000 -0.911612
v 0.000000 0.000000 -0.875000
v 0.088388 0.000000 -0.911612
v 0.125000 0.000000 -1.000000
v 0.088388 0.000000 -1.088388
v -0.000000 -0.290519 -1.039364
v -0.088388 -0.296508 -1.005540
v -0.125000 -0.297936 -0.923880
v -0.088388 -0.298859 -0.842219
v -0.000000 -0.294848 -0.808395
v 0.088388 -0.298859 -0.842219
v 0.125000 -0.297936 -0.923880
v 0.088388 -0.296508 -1.005540
v -0.000000 -0.290519 1.039364
v -0.088388 -0.296508 1.005540
v -0.125000 -0.297936 0.923880
v -0.088388 -0.298859 0.842219
v -0.000000 -0.294848 0.808395
v 0.088388 -0.298859 0.842219
v 0.125000 -0.297936 0.923880
v 0.088388 -0.296508 1.005540
v 0.000000 0.000000 1.125000
v -0.088388 0.000000 1.088388
v -0.125000 0.000000 1.000000
v -0.088388 0.000000 0.911612
v 0.000000 0.000000 0.875000
v 0.088388 0.000000 0.911612
v 0.125000 0.000000 1.000000
v 0.088388 0.000000 1.088388
v 0.000000 0.430519 1.039364
v -0.088388 0.416508 1.005540
v -0.125000 0.382684 0.923879
v -0.088388 0.348859 0.842219
v 0.000000 0.334848 0.808394
v 0.088388 0.348859 0.842219
v 0.125000 0.382684 0.923879
v 0.088388 0.416508 1.005540
v 0.000000 0.795495 0.795496
v -0.088388 0.769606 0.769607
v -0.125000 0.707106 0.707107
v -0.088388 0.644606 0.644607
v 0.000000 0.618718 0.618719
v 0.088388 0.644606 0.644607
v 0.125000 0.707106 0.707107
v 0.088388 0.769606 0.769607
v 0.000000 1.039364 0.430519
v -0.088388 1.005540 0.416509
v -0.125000 0.923879 0.382684
v -0.088388 0.842219 0.348859
v 0.000000 0.808394 0.334848
v 0.088388 0.842219 0.348859
v 0.125000 0.923879 0.382684
v 0.088388 1.005540 0.416509
v 0.000000 0.479128 -1.323737
v -0.088388 0.465117 -1.329912
v 0.088388 0.465117 -1.329912
v 0.000000 0.048609 -1.329373
v -0.088388 0.048609 -1.332761
v 0.088388 0.048609 -1.332761
vt 0.500000 0.500000
vt 0.562500 0.500000
vt 0.562500 0.625000
vt 0.500000 0.625000
vt 0.562500 0.750000
vt 0.500000 0.750000
vt 0.562500 0.875000
vt 0.500000 0.875000
vt 0.562500 1.000000
vt 0.500000 1.000000
vt 0.500000 0.000000
vt 0.562500 0.000000
vt 0.562500 0.125000
vt 0.500000 0.125000
vt 0.562500 0.250000
vt 0.500000 0.250000
vt 0.562500 0.375000
vt 0.500000 0.375000
vt 0.625000 0.500000
vt 0.625000 0.625000
vt 0.625000 0.750000
vt 0.625000 0.875000
vt 0.625000 1.000000
vt 0.625000 0.000000
vt 0.625000 0.125000
vt 0.625000 0.250000
vt 0.625000 0.375000
vt 0.687500 0.500000
vt 0.687500 0.625000
vt 0.687500 0.750000
vt 0.687500 0.875000
vt 0.687500 1.000000
vt 0.687500 0.000000
vt 0.687500 0.125000
vt 0.687500 0.250000
vt 0.687500 0.375000
vt 0.750000 0.625000
vt 0.687500 0.625000
vt 0.750000 0.625000
vt 0.750000 0.750000
vt 0.750000 0.875000
vt 0.750000 1.000000
vt 0.750000 0.000000
vt 0.750000 0.125000
vt 0.750000 0.250000
vt 0.750000 0.375000
vt 0.750000 0.500000
vt 0.750000 0.500000
vt 0.750000 0.375000
vt 0.812500 0.500000
vt 0.812500 0.625000
vt 0.812500 0.750000
vt 0.812500 0.875000
vt 0.812500 1.000000
vt 0.812500 0.000000
vt 0.812500 0.125000
vt 0.812500 0.250000
vt 0.812500 0.375000
vt 0.000000 0.000000
vt 0.000000 0.000000
vt 0.000000 0.000000
vt 0.000000 0.000000
vt 0.000000 0.000000
vt 0.000000 0.000000
vt 0.000000 0.000000
vt 0.000000 0.000000
vt 0.000000 0.000000
vt 0.000000 0.000000
vt 0.000000 0.000000
vt 0.000000 0.000000
vt 0.000000 0.000000
vt 0.000000 0.000000
vt 0.000000 0.000000
vt 0.000000 0.000000
vt 0.187500 0.500000
vt 0.250000 0.500000
vt 0.250000 0.625000
vt 0.187500 0.625000
vt 0.250000 0.750000
vt 0.187500 0.750000
vt 0.250000 0.875000
vt 0.187500 0.875000
vt 0.250000 1.000000
vt 0.187500 1.000000
vt 0.187500 0.000000
vt 0.250000 0.000000
vt 0.250000 0.125000
vt 0.187500 0.125000
vt 0.250000 0.250000
vt 0.187500 0.250000
vt 0.250000 0.375000
vt 0.187500 0.375000
vt 0.312500 0.500000
vt 0.312500 0.625000
vt 0.312500 0.750000
vt 0.312500 0.875000
vt 0.312500 1.000000
vt 0.312500 0.000000
vt 0.312500 0.125000
vt 0.312500 0.250000
vt 0.312500 0.375000
vt 0.375000 0.500000
vt 0.375000 0.625000
vt 0.375000 0.750000
vt 0.375000 0.875000
vt 0.375000 1.000000
vt 0.375000 0.000000
vt 0.375000 0.125000
vt 0.375000 0.250000
vt 0.375000 0.375000
vt 0.437500 0.500000
vt 0.437500 0.625000
vt 0.437500 0.750000
vt 0.437500 0.875000
vt 0.437500 1.000000
vt 0.437500 0.000000
vt 0.437500 0.125000
vt 0.437500 0.250000
vt 0.437500 0.375000
vt 0.687500 0.500000
vt 0.687500 0.375000
vn -0.3764 0.9087 -0.1807
vn -0.9212 0.3816 -0.0759
vn -0.9212 -0.3816 0.0759
vn -0.3764 -0.9087 0.1807
vn 0.3764 -0.9087 0.1807
vn 0.9212 -0.3816 0.0759
vn 0.9212 0.3816 -0.0759
vn 0.3764 0.9087 -0.1807
vn -0.3764 0.7703 -0.5147
vn -0.9212 0.3235 -0.2161
vn -0.9212 -0.3235 0.2161
vn -0.3764 -0.7703 0.5147
vn 0.3764 -0.7703 0.5147
vn 0.9212 -0.3235 0.2161
vn 0.9212 0.3235 -0.2161
vn 0.3764 0.7703 -0.5147
vn -0.3764 0.5147 -0.7703
vn -0.9212 0.2161 -0.3235
vn -0.9212 -0.2161 0.3235
vn -0.3764 -0.5147 0.7703
vn 0.3764 -0.5147 0.7703
vn 0.9212 -0.2161 0.3235
vn 0.9212 0.2161 -0.3235
vn 0.3764 0.5147 -0.7703
vn -1.0000 0.0000 0.0000
vn -0.9212 0.0759 -0.3816
vn -0.9212 -0.0759 0.3816
vn -0.3764 -0.1807 0.9087
vn 0.3764 -0.1807 0.9087
vn 0.9212 -0.0759 0.3816
vn 0.9212 0.0759 -0.3816
vn 0.0398 -0.9766 -0.2116
vn -0.3500 -0.2584 -0.9004
vn -0.9130 -0.1054 -0.3940
vn -0.9140 0.0961 0.3941
vn -0.3661 0.2078 0.9071
vn 0.3661 0.2078 0.9071
vn 0.9140 0.0961 0.3941
vn 0.9130 -0.1054 -0.3940
vn 0.3500 -0.2584 -0.9004
vn 0.0000 -0.9930 0.1177
vn 0.0000 -0.9999 -0.0144
vn -0.0069 -0.9999 -0.0144
vn 0.0069 -0.9999 -0.0144
vn 0.0000 -0.9930 -0.1177
vn -0.0069 -0.9999 0.0144
vn 0.0000 -0.9999 0.0144
vn -0.0000 -0.9847 -0.1744
vn 0.0069 -0.9999 0.0144
vn -0.0000 -0.9847 0.1744
vn -0.3500 -0.2584 0.9004
vn -0.9130 -0.1054 0.3940
vn -0.9140 0.0961 -0.3941
vn -0.3661 0.2078 -0.9071
vn 0.3661 0.2078 -0.9071
vn 0.9140 0.0961 -0.3941
vn 0.9130 -0.1054 0.3940
vn 0.3500 -0.2584 0.9004
vn -0.3764 0.1807 0.9087
vn -0.9212 0.0759 0.3816
vn -0.9212 -0.0759 -0.3816
vn -0.3764 -0.1807 -0.9087
vn 0.3764 -0.1807 -0.9087
vn 0.9212 -0.0759 -0.3816
vn 0.9212 0.0759 0.3816
vn 0.3764 0.1807 0.9087
vn -0.3764 0.5147 0.7703
vn -0.9212 0.2161 0.3235
vn -0.9212 -0.2161 -0.3235
vn -0.3764 -0.5147 -0.7703
vn 0.3764 -0.5147 -0.7703
vn 0.9212 -0.2161 -0.3235
vn 0.9212 0.2161 0.3235
vn 0.3764 0.5147 0.7703
vn -0.3764 0.7703 0.5147
vn -0.9212 0.3235 0.2161
vn -0.9212 -0.3235 -0.2161
vn -0.3764 -0.7703 -0.5147
vn 0.3764 -0.7703 -0.5147
vn 0.9212 -0.3235 -0.2161
vn 0.9212 0.3235 0.2161
vn 0.3764 0.7703 0.5147
vn -0.3764 0.9087 0.1807
vn -0.9212 0.3816 0.0759
vn -0.9212 -0.3816 -0.0759
vn -0.3764 -0.9087 -0.1807
vn 0.3764 -0.9087 -0.1807
vn 0.9212 -0.3816 -0.0759
vn 0.9212 0.3816 0.0759
vn 0.3764 0.9087 0.1807
vn 0.0532 0.0100 -0.9985
vn -0.0532 0.0100 -0.9985
vn -0.1307 0.9790 0.1563
vn 1.0000 -0.0000 -0.0000
vn -0.0398 -0.9766 -0.2116
vn 0.1307 0.9790 0.1563
usemtl None
s off
f 1/1/1 9/2/1 10/3/1 2/4/1
f 2/4/2 10/3/2 11/5/2 3/6/2
f 3/6/3 11/5/3 12/7/3 4/8/3
f 4/8/4 12/7/4 13/9/4 5/10/4
f 5/11/5 13/12/5 14/13/5 6/14/5
f 6/14/6 14/13/6 15/15/6 7/16/6
f 7/16/7 15/15/7 16/17/7 8/18/7
f 8/18/8 16/17/8 9/2/8 1/1/8
f 9/2/9 17/19/9 18/20/9 10/3/9
f 10/3/10 18/20/10 19/21/10 11/5/10
f 11/5/11 19/21/11 20/22/11 12/7/11
f 12/7/12 20/22/12 21/23/12 13/9/12
f 13/12/13 21/24/13 22/25/13 14/13/13
f 14/13/14 22/25/14 23/26/14 15/15/14
f 15/15/15 23/26/15 24/27/15 16/17/15
f 16/17/16 24/27/16 17/19/16 9/2/16
f 17/19/17 25/28/17 26/29/17 18/20/17
f 18/20/18 26/29/18 27/30/18 19/21/18
f 19/21/19 27/30/19 28/31/19 20/22/19
f 20/22/20 28/31/20 29/32/20 21/23/20
f 21/24/21 29/33/21 30/34/21 22/25/21
f 22/25/22 30/34/22 31/35/22 23/26/22
f 23/26/23 31/35/23 32/36/23 24/27/23
f 24/27/24 32/36/24 25/28/24 17/19/24
f 34/37/25 26/29/25 90/38/25 93/39/25
f 26/29/26 34/37/26 35/40/26 27/30/26
f 27/30/27 35/40/27 36/41/27 28/31/27
f 28/31/28 36/41/28 37/42/28 29/32/28
f 29/33/29 37/43/29 38/44/29 30/34/29
f 30/34/30 38/44/30 39/45/30 31/35/30
f 31/35/31 39/45/31 40/46/31 32/36/31
f 40/46/32 33/47/32 92/48/32 94/49/32
f 33/47/33 41/50/33 42/51/33 34/37/33
f 34/37/34 42/51/34 43/52/34 35/40/34
f 35/40/35 43/52/35 44/53/35 36/41/35
f 36/41/36 44/53/36 45/54/36 37/42/36
f 37/43/37 45/55/37 46/56/37 38/44/37
f 38/44/38 46/56/38 47/57/38 39/45/38
f 39/45/39 47/57/39 48/58/39 40/46/39
f 40/46/40 48/58/40 41/50/40 33/47/40
f 45/59/41 44/60/41 46/61/41
f 44/60/42 48/62/42 46/61/42
f 48/62/43 47/63/43 46/61/43
f 44/60/44 43/64/44 42/65/44
f 48/62/42 44/60/42 42/65/42
f 53/66/45 54/67/45 52/68/45
f 55/69/46 56/70/46 54/67/46
f 56/70/47 52/68/47 54/67/47
f 42/65/48 41/71/48 48/62/48
f 51/72/49 52/68/49 50/73/49
f 50/73/50 56/70/50 49/74/50
f 52/68/47 56/70/47 50/73/47
f 49/75/51 57/76/51 58/77/51 50/78/51
f 50/78/52 58/77/52 59/79/52 51/80/52
f 51/80/53 59/79/53 60/81/53 52/82/53
f 52/82/54 60/81/54 61/83/54 53/84/54
f 53/85/55 61/86/55 62/87/55 54/88/55
f 54/88/56 62/87/56 63/89/56 55/90/56
f 55/90/57 63/89/57 64/91/57 56/92/57
f 56/92/58 64/91/58 57/76/58 49/75/58
f 57/76/59 65/93/59 66/94/59 58/77/59
f 58/77/60 66/94/60 67/95/60 59/79/60
f 59/79/61 67/95/61 68/96/61 60/81/61
f 60/81/62 68/96/62 69/97/62 61/83/62
f 61/86/63 69/98/63 70/99/63 62/87/63
f 62/87/64 70/99/64 71/100/64 63/89/64
f 63/89/65 71/100/65 72/101/65 64/91/65
f 64/91/66 72/101/66 65/93/66 57/76/66
f 65/93/67 73/102/67 74/103/67 66/94/67
f 66/94/68 74/103/68 75/104/68 67/95/68
f 67/95/69 75/104/69 76/105/69 68/96/69
f 68/96/70 76/105/70 77/106/70 69/97/70
f 69/98/71 77/107/71 78/108/71 70/99/71
f 70/99/72 78/108/72 79/109/72 71/100/72
f 71/100/73 79/109/73 80/110/73 72/101/73
f 72/101/74 80/110/74 73/102/74 65/93/74
f 73/102/75 81/111/75 82/112/75 74/103/75
f 74/103/76 82/112/76 83/113/76 75/104/76
f 75/104/77 83/113/77 84/114/77 76/105/77
f 76/105/78 84/114/78 85/115/78 77/106/78
f 77/107/79 85/116/79 86/117/79 78/108/79
f 78/108/80 86/117/80 87/118/80 79/109/80
f 79/109/81 87/118/81 88/119/81 80/110/81
f 80/110/82 88/119/82 81/111/82 73/102/82
f 81/111/83 1/1/83 2/4/83 82/112/83
f 82/112/84 2/4/84 3/6/84 83/113/84
f 83/113/85 3/6/85 4/8/85 84/114/85
f 84/114/86 4/8/86 5/10/86 85/115/86
f 85/116/87 5/11/87 6/14/87 86/117/87
f 86/117/88 6/14/88 7/16/88 87/118/88
f 87/118/89 7/16/89 8/18/89 88/119/89
f 88/119/90 8/18/90 1/1/90 81/111/90
f 89/120/91 92/48/91 93/39/91 90/38/91
f 91/121/92 94/49/92 92/48/92 89/120/92
f 26/29/93 25/28/93 89/120/93 90/38/93
f 32/36/94 40/46/94 94/49/94 91/121/94
f 33/47/95 34/37/95 93/39/95 92/48/95
f 25/28/96 32/36/96 91/121/96 89/120/96
