# Blender v2.82 (sub 7) OBJ File: 'Switch Target.blend'
# www.blender.org
mtllib Switch Target.mtl
o Cylinder
v 0.004043 -0.000000 -0.500000
v 0.174259 0.000000 -0.079244
v 0.004043 -0.097545 -0.490393
v 0.174259 -0.015460 -0.077721
v 0.004043 -0.191342 -0.461940
v 0.174259 -0.030325 -0.073212
v 0.004043 -0.277785 -0.415735
v 0.174259 -0.044025 -0.065889
v 0.004043 -0.353553 -0.353553
v 0.174259 -0.056034 -0.056034
v 0.004043 -0.415735 -0.277785
v 0.174259 -0.065889 -0.044025
v 0.004043 -0.461940 -0.191342
v 0.174259 -0.073212 -0.030325
v 0.004043 -0.490393 -0.097545
v 0.174259 -0.077721 -0.015460
v 0.004043 -0.500000 -0.000000
v 0.174259 -0.079244 -0.000000
v 0.004043 -0.490393 0.097545
v 0.174259 -0.077721 0.015460
v 0.004043 -0.461940 0.191342
v 0.174259 -0.073212 0.030325
v 0.004043 -0.415735 0.277785
v 0.174259 -0.065889 0.044025
v 0.004043 -0.353553 0.353553
v 0.174259 -0.056034 0.056034
v 0.004043 -0.277785 0.415735
v 0.174259 -0.044026 0.065889
v 0.004043 -0.191342 0.461940
v 0.174259 -0.030325 0.073212
v 0.004043 -0.097545 0.490393
v 0.174259 -0.015460 0.077721
v 0.004043 0.000000 0.500000
v 0.174259 -0.000000 0.079244
v 0.004043 0.097545 0.490393
v 0.174259 0.015460 0.077721
v 0.004043 0.191342 0.461940
v 0.174259 0.030325 0.073211
v 0.004043 0.277785 0.415735
v 0.174259 0.044025 0.065889
v 0.004043 0.353554 0.353553
v 0.174259 0.056034 0.056034
v 0.004043 0.415735 0.277785
v 0.174259 0.065889 0.044025
v 0.004043 0.461940 0.191341
v 0.174259 0.073211 0.030325
v 0.004043 0.490393 0.097545
v 0.174259 0.077721 0.015459
v 0.004043 0.500000 -0.000001
v 0.174259 0.079244 -0.000000
v 0.004043 0.490393 -0.097546
v 0.174259 0.077721 -0.015460
v 0.004043 0.461940 -0.191342
v 0.174259 0.073211 -0.030325
v 0.004043 0.415734 -0.277786
v 0.174259 0.065889 -0.044026
v 0.004043 0.353553 -0.353554
v 0.174259 0.056034 -0.056034
v 0.004043 0.277785 -0.415735
v 0.174259 0.044025 -0.065889
v 0.004043 0.191341 -0.461940
v 0.174259 0.030325 -0.073212
v 0.004043 0.097544 -0.490393
v 0.174259 0.015459 -0.077721
v 0.104043 -0.097545 -0.490393
v 0.104043 -0.000000 -0.500000
v 0.104043 -0.191342 -0.461940
v 0.104043 -0.277785 -0.415735
v 0.104043 -0.353553 -0.353553
v 0.104043 -0.415735 -0.277785
v 0.104043 -0.461940 -0.191342
v 0.104043 -0.490393 -0.097545
v 0.104043 -0.500000 -0.000000
v 0.104043 -0.490393 0.097545
v 0.104043 -0.461940 0.191342
v 0.104043 -0.415735 0.277785
v 0.104043 -0.353553 0.353553
v 0.104043 -0.277785 0.415735
v 0.104043 -0.191342 0.461940
v 0.104043 -0.097545 0.490393
v 0.104043 0.000000 0.500000
v 0.104043 0.097545 0.490393
v 0.104043 0.191342 0.461940
v 0.104043 0.277785 0.415735
v 0.104043 0.353554 0.353553
v 0.104043 0.415735 0.277785
v 0.104043 0.461940 0.191341
v 0.104043 0.490393 0.097545
v 0.104043 0.500000 -0.000001
v 0.104043 0.490392 -0.097546
v 0.104043 0.461939 -0.191342
v 0.104043 0.415734 -0.277786
v 0.104043 0.353553 -0.353554
v 0.104043 0.277784 -0.415735
v 0.104043 0.191341 -0.461940
v 0.104043 0.097544 -0.490393
v 0.104043 -0.024032 -0.120819
v 0.104043 0.000000 -0.123186
v 0.104043 -0.047141 -0.113809
v 0.104043 -0.068438 -0.102425
v 0.104043 -0.087105 -0.087105
v 0.104043 -0.102425 -0.068438
v 0.104043 -0.113809 -0.047141
v 0.104043 -0.120819 -0.024032
v 0.104043 -0.123186 -0.000000
v 0.104043 -0.120819 0.024032
v 0.104043 -0.113809 0.047141
v 0.104043 -0.102425 0.068438
v 0.104043 -0.087105 0.087105
v 0.104043 -0.068438 0.102425
v 0.104043 -0.047141 0.113809
v 0.104043 -0.024032 0.120819
v 0.104043 -0.000000 0.123185
v 0.104043 0.024032 0.120818
v 0.104043 0.047141 0.113808
v 0.104043 0.068438 0.102425
v 0.104043 0.087105 0.087105
v 0.104043 0.102425 0.068438
v 0.104043 0.113808 0.047141
v 0.104043 0.120818 0.024032
v 0.104043 0.123185 -0.000000
v 0.104043 0.120818 -0.024032
v 0.104043 0.113808 -0.047141
v 0.104043 0.102425 -0.068438
v 0.104043 0.087105 -0.087106
v 0.104043 0.068438 -0.102425
v 0.104043 0.047141 -0.113809
v 0.104043 0.024032 -0.120819
v 0.154043 -0.020198 -0.101544
v 0.154043 0.000000 -0.103533
v 0.154043 -0.039621 -0.095652
v 0.154043 -0.057520 -0.086085
v 0.154043 -0.073209 -0.073209
v 0.154043 -0.086085 -0.057520
v 0.154043 -0.095652 -0.039621
v 0.154043 -0.101544 -0.020198
v 0.154043 -0.103533 -0.000000
v 0.154043 -0.101544 0.020198
v 0.154043 -0.095652 0.039620
v 0.154043 -0.086085 0.057520
v 0.154043 -0.073209 0.073209
v 0.154043 -0.057520 0.086085
v 0.154043 -0.039621 0.095652
v 0.154043 -0.020198 0.101544
v 0.154043 -0.000000 0.103533
v 0.154043 0.020198 0.101544
v 0.154043 0.039620 0.095652
v 0.154043 0.057520 0.086085
v 0.154043 0.073209 0.073209
v 0.154043 0.086085 0.057520
v 0.154043 0.095652 0.039620
v 0.154043 0.101544 0.020198
v 0.154043 0.103533 -0.000000
v 0.154043 0.101544 -0.020198
v 0.154043 0.095652 -0.039621
v 0.154043 0.086085 -0.057520
v 0.154043 0.073209 -0.073209
v 0.154043 0.057520 -0.086085
v 0.154043 0.039620 -0.095652
v 0.154043 0.020198 -0.101544
vt 1.000000 0.500000
vt 1.000000 1.000000
vt 0.968750 1.000000
vt 0.968750 0.500000
vt 0.937500 1.000000
vt 0.937500 0.500000
vt 0.906250 1.000000
vt 0.906250 0.500000
vt 0.875000 1.000000
vt 0.875000 0.500000
vt 0.843750 1.000000
vt 0.843750 0.500000
vt 0.812500 1.000000
vt 0.812500 0.500000
vt 0.781250 1.000000
vt 0.781250 0.500000
vt 0.750000 1.000000
vt 0.750000 0.500000
vt 0.718750 1.000000
vt 0.718750 0.500000
vt 0.687500 1.000000
vt 0.687500 0.500000
vt 0.656250 1.000000
vt 0.656250 0.500000
vt 0.625000 1.000000
vt 0.625000 0.500000
vt 0.593750 1.000000
vt 0.593750 0.500000
vt 0.562500 1.000000
vt 0.562500 0.500000
vt 0.531250 1.000000
vt 0.531250 0.500000
vt 0.500000 1.000000
vt 0.500000 0.500000
vt 0.468750 1.000000
vt 0.468750 0.500000
vt 0.437500 1.000000
vt 0.437500 0.500000
vt 0.406250 1.000000
vt 0.406250 0.500000
vt 0.375000 1.000000
vt 0.375000 0.500000
vt 0.343750 1.000000
vt 0.343750 0.500000
vt 0.312500 1.000000
vt 0.312500 0.500000
vt 0.281250 1.000000
vt 0.281250 0.500000
vt 0.250000 1.000000
vt 0.250000 0.500000
vt 0.218750 1.000000
vt 0.218750 0.500000
vt 0.187500 1.000000
vt 0.187500 0.500000
vt 0.156250 1.000000
vt 0.156250 0.500000
vt 0.125000 1.000000
vt 0.125000 0.500000
vt 0.093750 1.000000
vt 0.093750 0.500000
vt 0.062500 1.000000
vt 0.062500 0.500000
vt 0.257421 0.287306
vt 0.250000 0.288037
vt 0.242580 0.287306
vt 0.235444 0.285141
vt 0.228868 0.281627
vt 0.223104 0.276896
vt 0.218373 0.271132
vt 0.214858 0.264556
vt 0.212694 0.257421
vt 0.211963 0.250000
vt 0.212694 0.242579
vt 0.214859 0.235444
vt 0.218373 0.228868
vt 0.223104 0.223104
vt 0.228868 0.218373
vt 0.235444 0.214858
vt 0.242579 0.212694
vt 0.250000 0.211963
vt 0.257421 0.212694
vt 0.264556 0.214858
vt 0.271132 0.218373
vt 0.276896 0.223104
vt 0.281627 0.228868
vt 0.285142 0.235444
vt 0.287306 0.242579
vt 0.288037 0.250000
vt 0.287306 0.257421
vt 0.285141 0.264556
vt 0.281627 0.271132
vt 0.276896 0.276896
vt 0.271132 0.281627
vt 0.264556 0.285142
vt 0.031250 1.000000
vt 0.031250 0.500000
vt 0.000000 1.000000
vt 0.000000 0.500000
vt 0.750000 0.490000
vt 0.796822 0.485388
vt 0.841844 0.471731
vt 0.883337 0.449553
vt 0.919706 0.419706
vt 0.949553 0.383337
vt 0.971731 0.341844
vt 0.985388 0.296822
vt 0.990000 0.250000
vt 0.985388 0.203178
vt 0.971731 0.158156
vt 0.949553 0.116663
vt 0.919706 0.080294
vt 0.883337 0.050447
vt 0.841844 0.028269
vt 0.796822 0.014612
vt 0.750000 0.010000
vt 0.703178 0.014612
vt 0.658156 0.028269
vt 0.616663 0.050447
vt 0.580294 0.080294
vt 0.550447 0.116663
vt 0.528269 0.158156
vt 0.514611 0.203179
vt 0.510000 0.250000
vt 0.514612 0.296822
vt 0.528269 0.341844
vt 0.550447 0.383337
vt 0.580295 0.419706
vt 0.616663 0.449553
vt 0.658156 0.471731
vt 0.703179 0.485389
vt 0.250000 0.309129
vt 0.261536 0.307993
vt 0.296822 0.485388
vt 0.250000 0.490000
vt 0.272628 0.304628
vt 0.341844 0.471731
vt 0.282850 0.299164
vt 0.383337 0.449553
vt 0.291810 0.291811
vt 0.419706 0.419706
vt 0.299164 0.282850
vt 0.449553 0.383337
vt 0.304628 0.272628
vt 0.471731 0.341844
vt 0.307993 0.261535
vt 0.485388 0.296822
vt 0.309129 0.250000
vt 0.490000 0.250000
vt 0.307993 0.238464
vt 0.485388 0.203178
vt 0.304628 0.227372
vt 0.471731 0.158156
vt 0.299164 0.217149
vt 0.449553 0.116663
vt 0.291810 0.208189
vt 0.419706 0.080294
vt 0.282850 0.200836
vt 0.383337 0.050447
vt 0.272628 0.195372
vt 0.341844 0.028269
vt 0.261536 0.192007
vt 0.296822 0.014612
vt 0.250000 0.190871
vt 0.250000 0.010000
vt 0.238465 0.192007
vt 0.203178 0.014612
vt 0.227372 0.195372
vt 0.158156 0.028269
vt 0.217149 0.200836
vt 0.116663 0.050447
vt 0.208189 0.208190
vt 0.080294 0.080294
vt 0.200836 0.217150
vt 0.050447 0.116663
vt 0.195372 0.227372
vt 0.028269 0.158156
vt 0.192007 0.238465
vt 0.014611 0.203179
vt 0.190871 0.250000
vt 0.010000 0.250000
vt 0.192007 0.261535
vt 0.014612 0.296822
vt 0.195372 0.272628
vt 0.028269 0.341844
vt 0.200836 0.282850
vt 0.050447 0.383337
vt 0.208190 0.291810
vt 0.080295 0.419706
vt 0.217150 0.299164
vt 0.116663 0.449553
vt 0.227372 0.304628
vt 0.158156 0.471731
vt 0.238464 0.307993
vt 0.203179 0.485389
vt 0.250000 0.299696
vt 0.259695 0.298741
vt 0.269018 0.295913
vt 0.277609 0.291321
vt 0.285140 0.285140
vt 0.291321 0.277610
vt 0.295913 0.269018
vt 0.298741 0.259695
vt 0.299696 0.250000
vt 0.298741 0.240305
vt 0.295913 0.230982
vt 0.291321 0.222390
vt 0.285140 0.214860
vt 0.277610 0.208679
vt 0.269018 0.204087
vt 0.259695 0.201259
vt 0.250000 0.200304
vt 0.240305 0.201259
vt 0.230982 0.204087
vt 0.222390 0.208679
vt 0.214860 0.214860
vt 0.208679 0.222390
vt 0.204087 0.230982
vt 0.201259 0.240305
vt 0.200304 0.250000
vt 0.201259 0.259695
vt 0.204087 0.269018
vt 0.208679 0.277610
vt 0.214860 0.285140
vt 0.222391 0.291321
vt 0.230982 0.295913
vt 0.240305 0.298741
vn -0.0000 -0.0980 -0.9952
vn -0.0000 -0.2903 -0.9569
vn -0.0000 -0.4714 -0.8819
vn -0.0000 -0.6344 -0.7730
vn -0.0000 -0.7730 -0.6344
vn -0.0000 -0.8819 -0.4714
vn -0.0000 -0.9569 -0.2903
vn -0.0000 -0.9952 -0.0980
vn -0.0000 -0.9952 0.0980
vn -0.0000 -0.9569 0.2903
vn -0.0000 -0.8819 0.4714
vn -0.0000 -0.7730 0.6344
vn -0.0000 -0.6344 0.7730
vn 0.0000 -0.4714 0.8819
vn 0.0000 -0.2903 0.9569
vn 0.0000 -0.0980 0.9952
vn 0.0000 0.0980 0.9952
vn 0.0000 0.2903 0.9569
vn 0.0000 0.4714 0.8819
vn 0.0000 0.6344 0.7730
vn 0.0000 0.7730 0.6344
vn 0.0000 0.8819 0.4714
vn 0.0000 0.9569 0.2903
vn 0.0000 0.9952 0.0980
vn 0.0000 0.9952 -0.0980
vn 0.0000 0.9569 -0.2903
vn 0.0000 0.8819 -0.4714
vn 0.0000 0.7730 -0.6344
vn 0.0000 0.6344 -0.7730
vn 0.0000 0.4714 -0.8819
vn 1.0000 0.0000 -0.0000
vn -0.0000 0.2903 -0.9569
vn -0.0000 0.0980 -0.9952
vn -1.0000 0.0000 -0.0000
vn 0.3643 -0.0913 -0.9268
vn 0.3643 -0.2703 -0.8912
vn 0.3643 -0.4390 -0.8213
vn 0.3643 -0.5908 -0.7199
vn 0.3643 -0.7199 -0.5908
vn 0.3643 -0.8213 -0.4390
vn 0.3643 -0.8912 -0.2703
vn 0.3643 -0.9268 -0.0913
vn 0.3643 -0.9268 0.0913
vn 0.3643 -0.8912 0.2703
vn 0.3643 -0.8213 0.4390
vn 0.3643 -0.7199 0.5908
vn 0.3643 -0.5908 0.7199
vn 0.3643 -0.4390 0.8213
vn 0.3643 -0.2703 0.8912
vn 0.3643 -0.0913 0.9268
vn 0.3643 0.0913 0.9268
vn 0.3643 0.2703 0.8912
vn 0.3643 0.4390 0.8213
vn 0.3643 0.5908 0.7199
vn 0.3643 0.7199 0.5908
vn 0.3643 0.8213 0.4390
vn 0.3643 0.8912 0.2703
vn 0.3643 0.9268 0.0913
vn 0.3643 0.9268 -0.0913
vn 0.3643 0.8912 -0.2703
vn 0.3643 0.8213 -0.4390
vn 0.3643 0.7199 -0.5908
vn 0.3643 0.5908 -0.7199
vn 0.3643 0.4390 -0.8213
vn 0.3643 0.2703 -0.8912
vn 0.3643 0.0913 -0.9268
vn 0.7671 -0.0629 -0.6384
vn 0.7671 -0.1862 -0.6139
vn 0.7671 -0.3024 -0.5658
vn 0.7671 -0.4070 -0.4959
vn 0.7671 -0.4959 -0.4070
vn 0.7671 -0.5658 -0.3024
vn 0.7671 -0.6139 -0.1862
vn 0.7671 -0.6384 -0.0629
vn 0.7671 -0.6384 0.0629
vn 0.7671 -0.6139 0.1862
vn 0.7671 -0.5658 0.3024
vn 0.7671 -0.4959 0.4070
vn 0.7671 -0.4070 0.4959
vn 0.7671 -0.3024 0.5658
vn 0.7671 -0.1862 0.6139
vn 0.7671 -0.0629 0.6384
vn 0.7671 0.0629 0.6384
vn 0.7671 0.1862 0.6139
vn 0.7671 0.3024 0.5658
vn 0.7671 0.4070 0.4959
vn 0.7671 0.4959 0.4070
vn 0.7671 0.5658 0.3024
vn 0.7671 0.6139 0.1862
vn 0.7671 0.6384 0.0629
vn 0.7671 0.6384 -0.0629
vn 0.7671 0.6139 -0.1862
vn 0.7671 0.5658 -0.3024
vn 0.7671 0.4959 -0.4070
vn 0.7671 0.4070 -0.4959
vn 0.7671 0.3024 -0.5658
vn 0.7671 0.1862 -0.6139
vn 0.7671 0.0629 -0.6384
g Cylinder_Cylinder_Material.001
usemtl Material.001
s off
f 1/1/1 66/2/1 65/3/1 3/4/1
f 3/4/2 65/3/2 67/5/2 5/6/2
f 5/6/3 67/5/3 68/7/3 7/8/3
f 7/8/4 68/7/4 69/9/4 9/10/4
f 9/10/5 69/9/5 70/11/5 11/12/5
f 11/12/6 70/11/6 71/13/6 13/14/6
f 13/14/7 71/13/7 72/15/7 15/16/7
f 15/16/8 72/15/8 73/17/8 17/18/8
f 17/18/9 73/17/9 74/19/9 19/20/9
f 19/20/10 74/19/10 75/21/10 21/22/10
f 21/22/11 75/21/11 76/23/11 23/24/11
f 23/24/12 76/23/12 77/25/12 25/26/12
f 25/26/13 77/25/13 78/27/13 27/28/13
f 27/28/14 78/27/14 79/29/14 29/30/14
f 29/30/15 79/29/15 80/31/15 31/32/15
f 31/32/16 80/31/16 81/33/16 33/34/16
f 33/34/17 81/33/17 82/35/17 35/36/17
f 35/36/18 82/35/18 83/37/18 37/38/18
f 37/38/19 83/37/19 84/39/19 39/40/19
f 39/40/20 84/39/20 85/41/20 41/42/20
f 41/42/21 85/41/21 86/43/21 43/44/21
f 43/44/22 86/43/22 87/45/22 45/46/22
f 45/46/23 87/45/23 88/47/23 47/48/23
f 47/48/24 88/47/24 89/49/24 49/50/24
f 49/50/25 89/49/25 90/51/25 51/52/25
f 51/52/26 90/51/26 91/53/26 53/54/26
f 53/54/27 91/53/27 92/55/27 55/56/27
f 55/56/28 92/55/28 93/57/28 57/58/28
f 57/58/29 93/57/29 94/59/29 59/60/29
f 59/60/30 94/59/30 95/61/30 61/62/30
f 4/63/31 2/64/31 64/65/31 62/66/31 60/67/31 58/68/31 56/69/31 54/70/31 52/71/31 50/72/31 48/73/31 46/74/31 44/75/31 42/76/31 40/77/31 38/78/31 36/79/31 34/80/31 32/81/31 30/82/31 28/83/31 26/84/31 24/85/31 22/86/31 20/87/31 18/88/31 16/89/31 14/90/31 12/91/31 10/92/31 8/93/31 6/94/31
f 61/62/32 95/61/32 96/95/32 63/96/32
f 63/96/33 96/95/33 66/97/33 1/98/33
f 1/99/34 3/100/34 5/101/34 7/102/34 9/103/34 11/104/34 13/105/34 15/106/34 17/107/34 19/108/34 21/109/34 23/110/34 25/111/34 27/112/34 29/113/34 31/114/34 33/115/34 35/116/34 37/117/34 39/118/34 41/119/34 43/120/34 45/121/34 47/122/34 49/123/34 51/124/34 53/125/34 55/126/34 57/127/34 59/128/34 61/129/34 63/130/34
f 98/131/31 97/132/31 65/133/31 66/134/31
f 97/132/31 99/135/31 67/136/31 65/133/31
f 99/135/31 100/137/31 68/138/31 67/136/31
f 100/137/31 101/139/31 69/140/31 68/138/31
f 101/139/31 102/141/31 70/142/31 69/140/31
f 102/141/31 103/143/31 71/144/31 70/142/31
f 103/143/31 104/145/31 72/146/31 71/144/31
f 104/145/31 105/147/31 73/148/31 72/146/31
f 105/147/31 106/149/31 74/150/31 73/148/31
f 106/149/31 107/151/31 75/152/31 74/150/31
f 107/151/31 108/153/31 76/154/31 75/152/31
f 108/153/31 109/155/31 77/156/31 76/154/31
f 109/155/31 110/157/31 78/158/31 77/156/31
f 110/157/31 111/159/31 79/160/31 78/158/31
f 111/159/31 112/161/31 80/162/31 79/160/31
f 112/161/31 113/163/31 81/164/31 80/162/31
f 113/163/31 114/165/31 82/166/31 81/164/31
f 114/165/31 115/167/31 83/168/31 82/166/31
f 115/167/31 116/169/31 84/170/31 83/168/31
f 116/169/31 117/171/31 85/172/31 84/170/31
f 117/171/31 118/173/31 86/174/31 85/172/31
f 118/173/31 119/175/31 87/176/31 86/174/31
f 119/175/31 120/177/31 88/178/31 87/176/31
f 120/177/31 121/179/31 89/180/31 88/178/31
f 121/179/31 122/181/31 90/182/31 89/180/31
f 122/181/31 123/183/31 91/184/31 90/182/31
f 123/183/31 124/185/31 92/186/31 91/184/31
f 124/185/31 125/187/31 93/188/31 92/186/31
f 125/187/31 126/189/31 94/190/31 93/188/31
f 126/189/31 127/191/31 95/192/31 94/190/31
f 127/191/31 128/193/31 96/194/31 95/192/31
f 128/193/31 98/131/31 66/134/31 96/194/31
f 130/195/35 129/196/35 97/132/35 98/131/35
f 129/196/36 131/197/36 99/135/36 97/132/36
f 131/197/37 132/198/37 100/137/37 99/135/37
f 132/198/38 133/199/38 101/139/38 100/137/38
f 133/199/39 134/200/39 102/141/39 101/139/39
f 134/200/40 135/201/40 103/143/40 102/141/40
f 135/201/41 136/202/41 104/145/41 103/143/41
f 136/202/42 137/203/42 105/147/42 104/145/42
f 137/203/43 138/204/43 106/149/43 105/147/43
f 138/204/44 139/205/44 107/151/44 106/149/44
f 139/205/45 140/206/45 108/153/45 107/151/45
f 140/206/46 141/207/46 109/155/46 108/153/46
f 141/207/47 142/208/47 110/157/47 109/155/47
f 142/208/48 143/209/48 111/159/48 110/157/48
f 143/209/49 144/210/49 112/161/49 111/159/49
f 144/210/50 145/211/50 113/163/50 112/161/50
f 145/211/51 146/212/51 114/165/51 113/163/51
f 146/212/52 147/213/52 115/167/52 114/165/52
f 147/213/53 148/214/53 116/169/53 115/167/53
f 148/214/54 149/215/54 117/171/54 116/169/54
f 149/215/55 150/216/55 118/173/55 117/171/55
f 150/216/56 151/217/56 119/175/56 118/173/56
f 151/217/57 152/218/57 120/177/57 119/175/57
f 152/218/58 153/219/58 121/179/58 120/177/58
f 153/219/59 154/220/59 122/181/59 121/179/59
f 154/220/60 155/221/60 123/183/60 122/181/60
f 155/221/61 156/222/61 124/185/61 123/183/61
f 156/222/62 157/223/62 125/187/62 124/185/62
f 157/223/63 158/224/63 126/189/63 125/187/63
f 158/224/64 159/225/64 127/191/64 126/189/64
f 159/225/65 160/226/65 128/193/65 127/191/65
f 160/226/66 130/195/66 98/131/66 128/193/66
f 2/64/67 4/63/67 129/196/67 130/195/67
f 4/63/68 6/94/68 131/197/68 129/196/68
f 6/94/69 8/93/69 132/198/69 131/197/69
f 8/93/70 10/92/70 133/199/70 132/198/70
f 10/92/71 12/91/71 134/200/71 133/199/71
f 12/91/72 14/90/72 135/201/72 134/200/72
f 14/90/73 16/89/73 136/202/73 135/201/73
f 16/89/74 18/88/74 137/203/74 136/202/74
f 18/88/75 20/87/75 138/204/75 137/203/75
f 20/87/76 22/86/76 139/205/76 138/204/76
f 22/86/77 24/85/77 140/206/77 139/205/77
f 24/85/78 26/84/78 141/207/78 140/206/78
f 26/84/79 28/83/79 142/208/79 141/207/79
f 28/83/80 30/82/80 143/209/80 142/208/80
f 30/82/81 32/81/81 144/210/81 143/209/81
f 32/81/82 34/80/82 145/211/82 144/210/82
f 34/80/83 36/79/83 146/212/83 145/211/83
f 36/79/84 38/78/84 147/213/84 146/212/84
f 38/78/85 40/77/85 148/214/85 147/213/85
f 40/77/86 42/76/86 149/215/86 148/214/86
f 42/76/87 44/75/87 150/216/87 149/215/87
f 44/75/88 46/74/88 151/217/88 150/216/88
f 46/74/89 48/73/89 152/218/89 151/217/89
f 48/73/90 50/72/90 153/219/90 152/218/90
f 50/72/91 52/71/91 154/220/91 153/219/91
f 52/71/92 54/70/92 155/221/92 154/220/92
f 54/70/93 56/69/93 156/222/93 155/221/93
f 56/69/94 58/68/94 157/223/94 156/222/94
f 58/68/95 60/67/95 158/224/95 157/223/95
f 60/67/96 62/66/96 159/225/96 158/224/96
f 62/66/97 64/65/97 160/226/97 159/225/97
f 64/65/98 2/64/98 130/195/98 160/226/98
