# Blender v2.82 (sub 7) OBJ File: 'Wario W.blend'
# www.blender.org
mtllib Wario W.mtl
o Cube
v 0.500000 0.050000 -0.500000
v 0.500000 -0.050000 -0.500000
v 0.341954 0.050000 0.900481
v 0.341954 -0.050000 0.900481
v -0.465153 0.050000 -0.424264
v -0.465153 -0.050000 -0.424264
v -0.623972 0.050000 0.641662
v -0.623972 -0.050000 0.641662
v -2.297005 -0.050000 -0.841902
v -2.555824 -0.050000 0.124024
v -2.555824 0.050000 0.124024
v -2.297005 0.050000 -0.841902
v 0.575736 -0.050000 -1.465153
v -0.500000 -0.050000 -1.500000
v 0.575736 0.050000 -1.465153
v -0.500000 0.050000 -1.500000
v 1.900481 0.050000 -0.658046
v 1.900481 -0.050000 -0.658046
v 1.641662 0.050000 -1.623972
v 1.641662 -0.050000 -1.623972
v 0.158098 0.050000 -3.297005
v 0.158098 -0.050000 -3.297005
v 1.124024 0.050000 -3.555824
v 1.124024 -0.050000 -3.555824
vt 0.625000 0.500000
vt 0.875000 0.500000
vt 0.875000 0.750000
vt 0.625000 0.750000
vt 0.375000 0.750000
vt 0.625000 1.000000
vt 0.375000 1.000000
vt 0.125000 0.500000
vt 0.125000 0.750000
vt 0.125000 0.750000
vt 0.125000 0.500000
vt 0.375000 0.500000
vt 0.375000 0.500000
vt 0.625000 0.500000
vt 0.625000 0.500000
vt 0.375000 0.500000
vt 0.375000 0.000000
vt 0.625000 0.000000
vt 0.625000 0.250000
vt 0.375000 0.250000
vt 0.875000 0.500000
vt 0.875000 0.750000
vt 0.625000 0.250000
vt 0.375000 0.250000
vt 0.625000 1.000000
vt 0.375000 1.000000
vt 0.375000 0.250000
vt 0.625000 0.250000
vt 0.125000 0.500000
vt 0.875000 0.500000
vt 0.625000 0.500000
vt 0.375000 0.500000
vt 0.375000 0.500000
vt 0.625000 0.500000
vt 0.625000 0.500000
vt 0.375000 0.500000
vn 0.0000 1.0000 0.0000
vn -0.2588 0.0000 0.9659
vn 0.0000 -1.0000 0.0000
vn 0.9937 0.0000 0.1121
vn -0.9750 0.0000 0.2223
vn -0.9659 0.0000 -0.2588
vn 0.2223 0.0000 -0.9750
vn 0.0324 0.0000 -0.9995
vn -0.9995 0.0000 0.0324
vn 0.9659 0.0000 -0.2588
vn 0.1121 0.0000 0.9937
vn -0.2588 0.0000 -0.9659
usemtl Material
s off
f 1/1/1 5/2/1 7/3/1 3/4/1
f 4/5/2 3/4/2 7/6/2 8/7/2
f 6/8/3 8/9/3 10/10/3 9/11/3
f 6/8/3 2/12/3 4/5/3 8/9/3
f 2/12/4 1/1/4 3/4/4 4/5/4
f 13/13/5 15/14/5 21/15/5 22/16/5
f 10/17/6 11/18/6 12/19/6 9/20/6
f 7/3/1 5/2/1 12/21/1 11/22/1
f 5/23/7 6/24/7 9/20/7 12/19/7
f 8/7/2 7/6/2 11/25/2 10/26/2
f 14/27/8 16/28/8 15/14/8 13/13/8
f 6/24/9 5/23/9 16/28/9 14/27/9
f 2/12/3 6/8/3 14/29/3 13/13/3
f 5/2/1 1/1/1 15/14/1 16/30/1
f 17/31/10 18/32/10 20/33/10 19/34/10
f 1/1/11 2/12/11 18/32/11 17/31/11
f 2/12/3 13/13/3 20/33/3 18/32/3
f 15/14/1 1/1/1 17/31/1 19/34/1
f 22/16/12 21/15/12 23/35/12 24/36/12
f 15/14/1 19/34/1 23/35/1 21/15/1
f 20/33/3 13/13/3 22/16/3 24/36/3
f 19/34/10 20/33/10 24/36/10 23/35/10
